# Blender 5.1.0
# www.blender.org
mtllib ArrowLP.mtl
o Plane
v -5.078990 0.318560 1.176371
v -4.895191 0.002968 0.835270
v -4.803075 0.303997 0.998816
v 0.727886 0.319557 0.997225
v 0.729058 0.003641 0.664089
v 0.991224 0.350461 0.664014
v -4.801231 0.311075 -0.998896
v -4.895192 0.002967 -0.835287
v -5.078990 0.318560 -1.176376
v 0.991783 0.330437 -0.656841
v 0.727092 0.003813 -0.665477
v 0.727732 0.319204 -0.997180
v -5.150319 0.352361 1.856327
v -5.681166 0.284179 1.651983
v -5.485868 -0.026502 1.287332
v -5.151049 0.327280 -1.853902
v -5.485879 -0.026503 -1.290483
v -5.633554 0.306699 -1.691554
v -7.922321 0.086372 -0.010297
v -7.451202 -0.196659 0.218430
v -7.318308 0.145872 0.445592
v -7.794758 0.002477 -0.114007
v -7.507433 -0.194775 -0.215667
v -4.045250 0.001379 0.659212
v -4.209624 -0.001012 -0.650872
v -4.819308 1.555223 -0.999180
v -5.093986 1.521407 -1.170466
v -4.922297 1.863583 -0.835287
v -5.095256 1.596275 1.171163
v -4.812757 1.548567 0.998263
v -4.922295 1.863583 0.835270
v 0.705575 1.546492 0.996833
v 0.973182 1.548167 0.659203
v 0.700670 1.862772 0.666165
v 0.973182 1.548167 -0.659203
v 0.700825 1.547951 -0.997270
v 0.701500 1.863159 -0.663897
v -4.194349 1.871833 -0.627059
v -5.167340 1.528503 -1.854502
v -5.647781 1.507316 -1.692443
v -5.512984 1.834108 -1.290483
v -5.167967 1.547891 1.852739
v -5.512972 1.834108 1.287332
v -5.645658 1.490250 1.690563
v -7.531831 1.651024 -0.217054
v -7.869894 1.346813 -0.071837
v -7.939599 1.296400 -0.013659
v -7.853007 1.446235 0.060169
v -7.478272 1.661561 0.218430
v -4.072223 1.865114 0.660821
v -5.028883 0.378455 1.027045
v -5.059707 0.046174 1.133802
v -4.813892 0.046246 0.981267
v 0.956011 0.318922 0.950837
v 0.755092 0.045657 0.950813
v 0.959981 0.046387 0.658870
v -5.028189 0.318919 -1.025521
v -4.813892 0.046246 -0.981269
v -5.059708 0.046174 -1.133816
v 0.957413 0.301847 -0.950524
v 0.959981 0.046387 -0.658870
v 0.754971 0.045891 -0.951582
v -5.183867 0.042794 1.788801
v -5.225117 0.313363 1.960039
v -5.607238 0.008753 1.650874
v -5.224343 0.289129 -1.961254
v -5.183878 0.042793 -1.789185
v -5.245758 0.055452 -1.916286
v -7.856916 -0.189512 0.010685
v -7.452121 -0.154557 0.322379
v -7.854489 -0.189845 -0.045034
v -7.452108 -0.154556 -0.343534
v -4.839740 1.820491 -0.981269
v -5.044484 1.513698 -1.026356
v -5.085555 1.820420 -1.133815
v -5.085554 1.820420 1.133802
v -5.046092 1.547830 1.025520
v -4.839740 1.820491 0.981267
v 0.728904 1.820847 0.951663
v 0.938674 1.564031 0.951072
v 0.934139 1.820369 0.658870
v 0.934139 1.820369 -0.658870
v 0.938109 1.547834 -0.950837
v 0.726892 1.821115 -0.951364
v -5.209725 1.817034 -1.789185
v -5.243042 1.542260 -1.960617
v -5.271189 1.795410 -1.917143
v -5.242202 1.565048 1.960634
v -5.209713 1.817035 1.788801
v -5.637056 1.780842 1.644523
v -7.880332 1.584131 -0.045034
v -7.477951 1.619407 -0.343534
v -7.882712 1.584153 0.017596
v -7.477963 1.619406 0.322379
v 0.726516 -0.125408 0.000617
v 0.993821 0.323043 -0.025875
v -4.279264 0.046890 -0.955530
v -5.133435 -0.000897 1.018402
v -5.114848 0.318287 1.514745
v -5.133440 -0.000897 -1.018786
v -6.523238 -0.116973 0.689543
v -6.523242 -0.116973 -0.702172
v -3.921094 0.045628 0.952369
v 0.974579 1.548367 -0.000000
v 0.698548 1.995813 0.000617
v -4.323974 1.819861 -0.956407
v -5.132766 1.548265 1.514745
v -5.160556 1.860856 1.018402
v -5.160561 1.860856 -1.018786
v -6.561394 1.427421 1.015791
v -6.550354 1.744409 0.689543
v -7.166416 1.393322 -0.589833
v -6.550357 1.744408 -0.702172
v -4.020798 1.821037 0.953306
v -4.797437 0.915424 -1.000531
v -4.797433 0.915529 1.000530
v -4.845768 -0.126785 -0.000013
v -5.583364 -0.170310 -0.002044
v 0.096445 0.934627 0.999350
v 0.104528 0.932976 -0.999352
v -4.640474 -0.126864 -0.000434
v -4.934543 1.997033 0.000761
v -5.610538 1.953144 -0.002044
v -5.016425 0.066968 1.022313
v 0.942558 0.067032 0.928804
v -5.016424 0.066968 -1.022315
v 0.942558 0.067032 -0.928804
v -5.245325 0.059278 1.919971
v -7.825376 -0.166617 0.057495
v -7.825361 -0.166616 -0.082080
v -5.041667 1.799759 -1.022315
v -5.041667 1.799760 1.022313
v 0.917317 1.799724 0.928804
v 0.917317 1.799724 -0.928804
v -5.270568 1.792055 1.919971
v -7.850603 1.566062 -0.082080
v -7.850617 1.566061 0.057495
v 0.960666 -0.075334 0.000000
v -5.117625 0.044848 1.449804
v -5.117629 0.044847 -1.449903
v -6.535467 -0.074907 -0.986293
v 0.934804 1.945574 -0.000000
v -5.143490 1.820311 1.449804
v -5.143494 1.820310 -1.449903
v -6.561326 1.700469 0.973589
v -6.561330 1.700468 -0.986293
v -5.142219 -0.132213 -0.000273
v -6.529391 -0.263225 -0.006349
v -5.169394 1.991321 -0.000273
v -6.556558 1.859702 -0.006349
vn 0.0638 -0.9775 0.2009
vn 0.7468 0.0529 0.6629
vn 0.8094 -0.5350 0.2422
vn 0.0669 -0.9767 -0.2038
vn 0.7474 0.0532 -0.6622
vn 0.0627 -0.6634 -0.7456
vn 0.1694 -0.6012 -0.7809
vn 0.6443 -0.7167 -0.2669
vn 0.0736 -0.9908 -0.1133
vn 0.0543 0.9780 -0.2014
vn 0.7513 -0.0320 -0.6592
vn 0.7818 0.5788 -0.2317
vn 0.0514 0.9787 0.1989
vn 0.7514 -0.0332 0.6590
vn 0.0559 0.6674 0.7426
vn -0.5769 0.0599 -0.8146
vn 0.1193 0.6118 -0.7820
vn 0.2102 0.1086 -0.9716
vn 0.5681 0.7735 -0.2810
vn -0.0905 0.9902 -0.1059
vn -0.6357 0.0207 -0.7716
vn -0.5982 0.3882 -0.7010
vn -0.4943 0.5990 -0.6299
vn 0.1710 -0.9747 0.1439
vn 0.7490 -0.6484 0.1364
vn 0.1717 -0.9746 -0.1440
vn 0.8096 -0.5367 -0.2378
vn 0.9352 -0.0582 -0.3492
vn 0.7498 -0.6480 -0.1335
vn -0.6432 -0.7260 0.2435
vn -0.9982 -0.0540 0.0259
vn -0.6055 -0.7273 -0.3230
vn 0.0823 -0.9912 0.1037
vn -0.3451 -0.7236 0.5978
vn -0.0040 -0.9877 0.1563
vn 0.0072 -0.7106 0.7035
vn 0.0763 -0.0356 0.9964
vn 0.0533 -0.6675 0.7427
vn 0.0866 -0.9836 0.1580
vn 0.0102 -0.9842 0.1767
vn 0.0902 -0.0730 0.9932
vn 0.1052 -0.7094 0.6969
vn 0.7826 0.5755 0.2372
vn 0.0697 0.9883 0.1354
vn 0.6867 0.7139 0.1372
vn 0.9298 0.0890 -0.3571
vn 0.6882 0.7130 -0.1344
vn 0.0704 0.9883 -0.1355
vn -0.9999 0.0169 -0.0010
vn -0.7082 0.6502 0.2751
vn -0.6903 0.6536 -0.3102
vn 0.0714 0.0351 0.9968
vn 0.0085 0.7051 0.7090
vn 0.1021 0.7090 0.6978
vn 0.6343 0.0185 -0.7729
vn 0.0765 0.0398 -0.9963
vn 0.0547 -0.0000 -0.9985
vn 0.0556 0.0017 0.9985
vn 0.6352 0.0008 0.7724
vn 0.6373 0.0195 0.7704
vn 0.9741 0.0164 0.2255
vn 0.2098 0.1300 0.9691
vn 0.9337 -0.0533 0.3541
vn 0.9335 0.0944 0.3459
vn 0.2267 -0.1168 -0.9669
vn -0.5902 -0.0502 0.8057
vn -0.6503 0.0316 0.7590
vn -0.6182 -0.0373 -0.7851
vn -0.5879 0.0360 -0.8081
vn 0.9962 0.0664 0.0560
vn 0.7277 0.0853 0.6806
vn 0.9977 -0.0341 0.0582
vn 0.7307 -0.0607 0.6800
vn 0.9906 0.0520 0.1267
vn 0.0011 -0.0001 -1.0000
vn 0.0877 0.0737 -0.9934
vn 0.0893 -0.0708 -0.9935
vn 0.0076 -0.9999 -0.0086
vn -0.1253 -0.9708 -0.2044
vn 0.0017 -0.9854 -0.1701
vn -0.5816 0.0553 0.8116
vn -0.5928 0.0532 0.8036
vn -0.5693 -0.0729 -0.8189
vn 0.0196 -0.9998 -0.0011
vn 0.0011 0.0004 1.0000
vn 0.0867 0.0735 0.9935
vn 0.0858 -0.9835 -0.1592
vn 0.0980 -0.9952 0.0003
vn 0.0097 0.9840 0.1779
vn 0.0278 0.9996 -0.0000
vn 0.0101 0.9843 -0.1761
vn 0.0855 0.9833 0.1608
vn 0.0974 0.9952 0.0003
vn 0.0859 0.9831 -0.1618
vn 0.6178 -0.5604 0.5517
vn 0.7511 -0.6490 0.1205
vn 0.6349 0.0003 -0.7726
vn 0.0739 -0.0358 -0.9966
vn 0.9755 0.0096 -0.2200
vn 0.6147 -0.5648 -0.5506
vn 0.7307 -0.0652 -0.6796
vn 0.9977 -0.0374 -0.0560
vn 0.7488 -0.6519 -0.1197
vn 0.1040 -0.7078 -0.6987
vn 0.1740 -0.5884 0.7896
vn 0.6590 -0.7060 0.2594
vn 0.2147 -0.1135 0.9701
vn -0.5750 -0.0627 0.8157
vn -0.5640 -0.4785 0.6731
vn -0.1050 -0.9705 0.2171
vn -0.4215 -0.6291 0.6532
vn -0.5440 -0.4363 -0.7168
vn -0.4037 -0.6303 -0.6632
vn 0.0628 0.6644 -0.7448
vn 0.9748 0.0194 -0.2224
vn 0.6053 0.5737 0.5517
vn 0.7403 0.6614 0.1207
vn 0.6070 0.5702 -0.5536
vn 0.7408 0.6605 -0.1221
vn 0.9962 0.0662 -0.0575
vn 0.7281 0.0795 -0.6808
vn 0.1037 0.7078 -0.6988
vn 0.1187 0.6183 0.7770
vn 0.5820 0.7692 0.2638
vn -0.0855 0.9913 0.0999
vn -0.4473 0.6948 0.5631
vn -0.2775 0.9405 -0.1960
vn -0.6073 0.4079 0.6817
vn -0.5011 0.5909 0.6323
vn -0.2600 0.9426 0.2096
vn 0.7105 -0.7037 0.0003
vn 0.9992 -0.0398 -0.0000
vn 0.0160 -0.7007 -0.7133
vn 0.0114 -0.9846 -0.1745
vn 0.9742 0.0129 0.2251
vn 0.9917 -0.0224 0.1265
vn -0.3594 -0.7129 -0.6021
vn 0.9978 0.0663 -0.0000
vn 0.7016 0.7126 -0.0001
vn 0.0171 0.6991 -0.7148
vn -0.4688 0.6682 0.5778
vn -0.1701 0.9748 0.1440
vn -0.4635 0.6730 -0.5765
vn -0.1663 0.9738 -0.1549
vn 0.0461 -0.9989 -0.0002
vn 0.0924 -0.9957 0.0001
vn 0.0821 -0.9966 0.0001
vn -0.0037 1.0000 -0.0000
vn -0.0882 0.9961 -0.0000
vn -0.1549 0.9879 -0.0070
vt 0.249388 0.542773
vt 0.264281 0.556014
vt 0.273546 0.561489
vt 0.101225 0.519031
vt 0.082942 0.526956
vt 0.089451 0.509638
vt 0.000142 0.534775
vt 0.012539 0.530965
vt 0.052450 0.565004
vt 0.580125 0.519120
vt 0.598329 0.527140
vt 0.608866 0.529422
vt 0.431975 0.542821
vt 0.417005 0.556149
vt 0.417802 0.537630
vt 0.865330 0.350849
vt 0.842615 0.309951
vt 0.865284 0.307189
vt 0.668746 0.531140
vt 0.681144 0.534910
vt 0.628849 0.565086
vt 0.863769 0.598743
vt 0.842808 0.594959
vt 0.840914 0.553850
vt 0.262244 0.566506
vt 0.300749 0.571118
vt 0.081565 0.537555
vt 0.072429 0.529262
vt 0.856505 0.772687
vt 0.851008 0.747985
vt 0.887388 0.772589
vt 0.999952 0.610091
vt 0.975638 0.612937
vt 0.999993 0.608315
vt 0.281079 0.601638
vt 0.311440 0.617293
vt 0.213287 0.685342
vt 0.840740 0.507544
vt 0.816168 0.446518
vt 0.840648 0.444892
vt 0.313671 0.041658
vt 0.273778 0.457993
vt 0.246891 0.465064
vt 0.815313 0.843556
vt 0.339921 0.043385
vt 0.407767 0.561594
vt 0.419116 0.566553
vt 0.380566 0.571216
vt 0.850951 0.638767
vt 0.856505 0.613304
vt 0.887388 0.613096
vt 0.599780 0.537650
vt 0.865695 0.606534
vt 0.840746 0.600732
vt 0.840908 0.598963
vt 0.705732 0.445076
vt 0.681253 0.499335
vt 0.681292 0.441964
vt 0.681335 0.840245
vt 0.813193 0.000071
vt 0.816265 0.014999
vt 0.761049 0.017040
vt 0.760948 0.446655
vt 0.810765 0.431649
vt 0.840969 0.797285
vt 0.854041 0.792870
vt 0.840988 0.902332
vt 0.923003 0.795486
vt 0.914015 0.904555
vt 0.914007 0.797123
vt 0.840870 0.637939
vt 0.840875 0.750510
vt 0.872817 0.251127
vt 0.975334 0.289816
vt 0.865449 0.306957
vt 0.975625 0.597854
vt 0.895339 0.497661
vt 0.485077 0.829772
vt 0.510889 0.828329
vt 0.484971 0.937364
vt 0.704357 0.855407
vt 0.816188 0.857464
vt 0.884048 0.797134
vt 0.761046 0.370489
vt 0.816261 0.412959
vt 0.706754 0.415698
vt 0.151420 0.676373
vt 0.119786 0.754947
vt 0.089854 0.665563
vt 0.973881 0.043932
vt 0.975402 0.145984
vt 0.972994 0.357173
vt 0.178874 0.508652
vt 0.760951 0.797967
vt 0.705736 0.841159
vt 0.196712 0.023095
vt 0.255117 0.032844
vt 0.434471 0.465080
vt 0.506388 0.531874
vt 0.555439 0.456759
vt 0.367704 0.041659
vt 0.426356 0.032313
vt 0.484613 0.022879
vt 0.838746 0.432549
vt 0.263510 0.537529
vt 0.838834 0.855461
vt 0.840663 0.843197
vt 0.340640 0.026400
vt 0.316939 0.021072
vt 0.508649 0.962781
vt 0.484633 0.964634
vt 0.510779 0.940178
vt 0.683251 0.002847
vt 0.705883 0.002021
vt 0.705828 0.017032
vt 0.681349 0.015272
vt 0.916130 0.772545
vt 0.912200 0.748056
vt 0.926102 0.748090
vt 0.926453 0.770734
vt 0.342453 0.962614
vt 0.340640 0.941541
vt 0.367013 0.939045
vt 0.366738 0.964515
vt 0.175888 -0.000000
vt 0.200067 0.002345
vt 0.171263 0.016371
vt 0.683164 0.427689
vt 0.681333 0.415347
vt 0.704275 0.429715
vt 0.919233 0.930719
vt 0.907985 0.932279
vt 0.923008 0.907925
vt 0.842728 0.011654
vt 0.865256 0.006450
vt 0.865147 0.055883
vt 0.840891 0.052385
vt 0.329873 0.581814
vt 0.340640 0.589084
vt 0.844243 0.771127
vt 0.138712 0.791926
vt 0.134134 0.793913
vt 0.158288 0.761118
vt 0.167512 0.762569
vt 0.977661 0.313800
vt 0.998030 0.319163
vt 0.840763 0.302900
vt 0.842554 0.298137
vt 0.840746 0.257067
vt 0.998189 0.604093
vt 0.126333 0.789941
vt 0.108452 0.753104
vt 0.129195 0.793109
vt 0.999997 0.563201
vt 0.838884 -0.000000
vt 0.840706 0.012357
vt 0.926093 0.640763
vt 0.912190 0.640004
vt 0.916130 0.613161
vt 0.926453 0.615074
vt 0.850374 0.772752
vt 0.840746 0.774664
vt 0.591846 0.509786
vt 0.683112 0.429689
vt 0.705737 0.429697
vt 0.683210 0.852602
vt 0.508804 0.807131
vt 0.484792 0.805274
vt 0.340640 0.026355
vt 0.364365 0.021006
vt 0.341391 0.043349
vt 0.342608 0.806963
vt 0.366896 0.805155
vt 0.367122 0.829653
vt 0.340750 0.829611
vt 0.838788 0.424842
vt 0.816186 0.427670
vt 0.840663 0.412272
vt 0.505379 -0.000000
vt 0.510061 0.016547
vt 0.481227 0.002310
vt 0.844243 0.615469
vt 0.919233 0.775061
vt 0.907985 0.772896
vt 0.351439 0.581903
vt 0.400240 0.601659
vt 0.370261 0.617804
vt 0.340640 0.589195
vt 0.998120 0.002559
vt 1.000000 0.043708
vt 0.977503 -0.000115
vt 0.554565 0.789908
vt 0.551724 0.793045
vt 0.561369 0.754840
vt 0.572523 0.753077
vt 0.999851 0.293210
vt 0.975062 0.300780
vt 0.997938 0.289043
vt 0.542187 0.791889
vt 0.513468 0.762526
vt 0.522743 0.761021
vt 0.546173 0.793937
vt 0.999832 0.247756
vt 0.258463 0.011960
vt 0.426001 0.939771
vt 0.425666 0.975507
vt 0.099265 0.462598
vt 0.125216 0.460488
vt 0.681263 0.052498
vt 0.854060 0.907647
vt 0.884048 0.907625
vt 0.878184 0.932180
vt 0.850374 0.932136
vt 0.043572 0.529909
vt 0.064499 0.662501
vt 0.999957 0.462425
vt 0.426110 0.829697
vt 0.425875 0.793971
vt 0.422940 0.011427
vt 0.582310 0.464398
vt 0.840743 0.048228
vt 0.878184 0.772687
vt 0.637721 0.530075
vt 0.999999 0.146534
vt 0.467882 0.685300
vt 0.442794 0.690363
vt 0.840747 0.453066
vt 0.591303 0.665554
vt 0.616602 0.662557
vt 0.408542 0.464622
vt 0.175955 0.526853
vt 0.171719 0.553145
vt 0.165279 0.592327
vt 0.509741 0.552705
vt 0.840746 0.930324
vt 0.516118 0.591855
vt 0.529825 0.675819
s 1
f 2/1/1 124/2/2 52/3/3
f 8/4/4 126/5/5 58/6/6
f 68/7/7 67/8/8 17/9/9
f 28/10/10 131/11/11 75/12/12
f 31/13/13 132/14/14 78/15/15
f 40/16/16 87/17/17 86/18/18
f 85/19/19 87/20/17 41/21/20
f 46/22/21 136/23/22 92/24/23
f 98/25/24 52/3/3 139/26/25
f 100/27/26 59/28/27 8/4/4
f 67/29/8 16/30/28 140/31/29
f 69/32/30 19/33/31 71/34/32
f 15/35/33 65/36/34 101/37/35
f 103/38/36 3/39/37 53/40/38
f 5/41/39 103/42/36 24/43/40
f 103/38/36 4/44/41 3/39/37
f 5/41/39 55/45/42 103/42/36
f 76/46/43 108/47/44 143/48/45
f 39/49/46 85/50/19 144/51/47
f 75/12/12 109/52/48 28/10/10
f 47/53/49 93/54/50 91/55/51
f 30/56/52 114/57/53 78/58/15
f 30/56/52 79/59/54 114/57/53
f 74/60/55 26/61/56 115/62/57
f 116/63/58 51/64/59 3/39/37
f 77/65/60 29/66/61 51/67/59
f 88/68/62 13/69/63 42/70/64
f 86/71/18 39/49/46 66/72/65
f 21/73/66 48/74/67 19/75/31
f 22/76/68 46/22/21 112/77/69
f 33/78/70 80/79/71 6/80/72
f 80/81/71 4/44/41 54/82/73
f 29/66/61 107/83/74 13/69/63
f 120/84/75 36/85/76 12/86/77
f 148/87/78 23/88/79 102/89/80
f 44/90/81 110/91/82 21/73/66
f 18/92/83 112/77/69 40/16/16
f 24/43/40 121/93/84 5/41/39
f 119/94/85 32/95/86 30/56/52
f 121/93/84 11/96/87 95/97/88
f 50/98/89 122/99/90 31/13/13
f 122/99/90 38/100/91 28/10/10
f 34/101/92 105/102/93 122/99/90
f 105/102/93 37/103/94 122/99/90
f 124/104/2 53/40/38 3/39/37 51/64/59
f 2/1/1 53/105/38 124/2/2
f 125/106/95 54/82/73 4/44/41 55/107/42
f 125/108/95 55/45/42 5/41/39 56/109/96
f 125/110/95 56/111/96 6/80/72 54/112/73
f 126/113/5 57/114/97 7/115/98 58/116/6
f 59/117/27 9/118/99 57/119/97 126/120/5
f 8/4/4 59/28/27 126/5/5
f 127/121/100 60/122/101 10/123/102 61/124/103
f 127/125/100 61/126/103 11/96/87 62/127/104
f 127/128/100 62/129/104 12/86/77 60/130/101
f 128/131/105 63/132/106 13/69/63 64/133/107
f 128/134/105 64/135/107 14/136/108 65/137/34
f 65/36/34 15/35/33 63/138/106 128/139/105
f 68/140/7 66/72/65 16/30/28 67/29/8
f 129/141/109 69/142/30 20/143/110 70/144/111
f 18/92/83 66/145/65 68/146/7
f 19/75/31 69/147/30 129/148/109
f 129/148/109 70/149/111 21/73/66 19/75/31
f 130/150/112 71/34/32 19/33/31 22/76/68
f 130/151/112 72/152/113 23/88/79 71/153/32
f 22/76/68 72/154/113 130/150/112
f 131/155/11 73/156/114 26/61/56 74/60/55
f 74/157/55 27/158/115 75/159/12 131/160/11
f 76/161/43 29/66/61 77/65/60 132/162/14
f 28/10/10 73/163/114 131/11/11
f 132/164/14 77/165/60 30/56/52 78/58/15
f 133/166/116 79/59/54 32/95/86 80/81/71
f 31/13/13 76/46/43 132/14/14
f 133/167/116 80/79/71 33/78/70 81/168/117
f 133/169/116 81/170/117 34/101/92 79/171/54
f 134/172/118 82/173/119 35/174/120 83/175/121
f 134/176/118 83/177/121 36/85/76 84/178/122
f 134/179/118 84/180/122 37/103/94 82/181/119
f 87/182/17 85/50/19 39/49/46 86/71/18
f 135/183/123 88/68/62 42/70/64 89/184/124
f 89/185/124 43/186/125 90/187/126 135/188/123
f 135/189/123 90/190/126 44/90/81 88/191/62
f 46/22/21 47/53/49 91/55/51 136/23/22
f 136/192/22 91/193/51 45/194/127 92/195/23
f 93/196/50 47/197/49 48/74/67 137/198/128
f 137/199/128 94/200/129 49/201/130 93/202/50
f 48/74/67 94/203/129 137/198/128
f 138/204/131 56/109/96 5/41/39 95/97/88
f 138/204/131 95/97/88 11/96/87 61/126/103
f 96/205/132 138/206/131 61/124/103 10/123/102
f 96/205/132 6/80/72 56/111/96 138/206/131
f 58/6/6 97/207/133 25/208/134 8/4/4
f 139/26/25 63/138/106 15/35/33 98/25/24
f 97/209/133 58/116/6 7/115/98
f 1/210/135 99/211/136 139/212/25 52/213/3
f 98/25/24 2/1/1 52/3/3
f 99/211/136 13/69/63 63/132/106 139/212/25
f 140/214/29 100/27/26 17/9/9 67/8/8
f 100/27/26 140/214/29 59/28/27
f 9/118/99 59/117/27 140/31/29 16/30/28
f 70/144/111 20/143/110 101/37/35 65/36/34
f 23/88/79 69/142/30 71/153/32
f 23/88/79 20/143/110 69/142/30
f 21/73/66 70/149/111 65/137/34 14/136/108
f 141/215/137 68/7/7 17/9/9 102/89/80
f 72/152/113 141/215/137 102/89/80 23/88/79
f 22/76/68 18/92/83 68/146/7 141/216/137
f 141/216/137 72/154/113 22/76/68
f 53/105/38 2/1/1 24/43/40 103/42/36
f 97/207/133 62/127/104 11/96/87 25/208/134
f 103/38/36 55/107/42 4/44/41
f 12/86/77 62/129/104 97/209/133 7/115/98
f 81/168/117 33/78/70 104/217/138 142/218/139
f 82/173/119 142/218/139 104/217/138 35/174/120
f 37/103/94 105/102/93 142/219/139 82/181/119
f 34/101/92 81/170/117 142/219/139 105/102/93
f 38/100/91 106/220/140 73/163/114 28/10/10
f 26/61/56 73/156/114 106/221/140
f 89/184/124 42/70/64 107/83/74 143/222/45
f 143/222/45 107/83/74 29/66/61 76/161/43
f 43/186/125 89/185/124 143/48/45 108/47/44
f 76/46/43 31/13/13 108/47/44
f 144/51/47 75/159/12 27/158/115 39/49/46
f 41/21/20 109/52/48 144/223/47 85/19/19
f 94/203/129 48/74/67 110/91/82 145/224/141
f 75/12/12 144/223/47 109/52/48
f 93/202/50 49/201/130 45/194/127
f 91/193/51 93/202/50 45/194/127
f 90/190/126 145/224/141 110/91/82 44/90/81
f 43/186/125 111/225/142 145/226/141 90/187/126
f 111/225/142 49/201/130 94/200/129 145/226/141
f 87/17/17 40/16/16 112/77/69 146/227/143
f 92/24/23 146/227/143 112/77/69 46/22/21
f 113/228/144 146/229/143 92/195/23 45/194/127
f 41/21/20 87/20/17 146/229/143 113/228/144
f 50/98/89 31/13/13 78/15/15 114/230/53
f 34/101/92 50/98/89 114/230/53 79/171/54
f 84/178/122 36/85/76 26/61/56 106/221/140
f 30/56/52 32/95/86 79/59/54
f 37/103/94 84/180/122 106/220/140 38/100/91
f 74/157/55 57/119/97 9/118/99 27/158/115
f 115/62/57 7/115/98 57/114/97 74/60/55
f 51/64/59 116/63/58 30/56/52 77/165/60
f 64/135/107 88/191/62 44/90/81 14/136/108
f 51/67/59 29/66/61 1/210/135
f 60/122/101 83/175/121 35/174/120 10/123/102
f 88/68/62 64/133/107 13/69/63
f 12/86/77 36/85/76 83/177/121 60/130/101
f 66/145/65 18/92/83 40/16/16 86/18/18
f 47/53/49 46/22/21 22/76/68 19/33/31
f 66/72/65 39/49/46 16/30/28
f 19/75/31 48/74/67 47/197/49
f 24/43/40 2/1/1 117/231/145 121/93/84
f 6/80/72 80/79/71 54/112/73
f 80/81/71 32/95/86 4/44/41
f 25/208/134 121/93/84 117/231/145 8/4/4
f 147/232/146 117/231/145 2/1/1 98/25/24
f 118/233/147 147/232/146 98/25/24 15/35/33
f 100/27/26 147/232/146 118/233/147 17/9/9
f 8/4/4 117/231/145 147/232/146 100/27/26
f 29/66/61 13/69/63 99/211/136 1/210/135
f 35/174/120 104/217/138 96/205/132 10/123/102
f 13/69/63 107/83/74 42/70/64
f 119/94/85 4/44/41 32/95/86
f 33/78/70 6/80/72 96/205/132 104/217/138
f 27/158/115 9/118/99 16/30/28 39/49/46
f 118/233/147 15/35/33 101/37/35 148/87/78
f 148/87/78 101/37/35 20/143/110 23/88/79
f 102/89/80 17/9/9 118/233/147 148/87/78
f 119/94/85 116/63/58 3/39/37 4/44/41
f 14/136/108 44/90/81 21/73/66
f 21/73/66 110/91/82 48/74/67
f 18/92/83 22/76/68 112/77/69
f 120/84/75 12/86/77 7/115/98 115/62/57
f 116/63/58 119/94/85 30/56/52
f 25/208/134 11/96/87 121/93/84
f 121/93/84 95/97/88 5/41/39
f 36/85/76 120/84/75 115/62/57 26/61/56
f 149/234/148 108/47/44 31/13/13 122/99/90
f 51/67/59 1/210/135 52/213/3 124/235/2
f 149/234/148 122/99/90 28/10/10 109/52/48
f 123/236/149 149/234/148 109/52/48 41/21/20
f 123/236/149 43/186/125 108/47/44 149/234/148
f 111/225/142 43/186/125 123/236/149 150/237/150
f 50/98/89 34/101/92 122/99/90
f 122/99/90 37/103/94 38/100/91
f 113/228/144 150/237/150 123/236/149 41/21/20
f 49/201/130 111/225/142 150/237/150 45/194/127
f 150/237/150 113/228/144 45/194/127
