# Blender 5.1.0
# www.blender.org
mtllib AtSign.mtl
o ..002
v 0.197595 0.285671 -0.148706
v 0.060548 0.316407 -0.148706
v 0.299682 0.192944 -0.148706
v 0.221130 0.225854 -0.148706
v 0.197595 0.285671 0.148706
v 0.060548 0.316407 0.148706
v 0.299682 0.192944 0.148706
v 0.221130 0.225854 0.148706
v 0.272642 0.102885 0.148706
v 0.114450 0.289384 0.148706
v -0.023346 0.280906 0.148706
v 0.114450 0.289384 -0.148706
v -0.023346 0.280906 -0.148706
v -0.118876 0.238210 -0.148706
v -0.102623 0.289951 -0.148706
v -0.245287 0.185610 -0.148706
v -0.102623 0.289951 0.148706
v -0.245287 0.185610 0.148706
v -0.315527 0.044091 0.148706
v -0.118876 0.238210 0.148706
v -0.199564 0.154839 0.148706
v -0.259179 0.030312 0.148706
v -0.199564 0.154839 -0.148706
v -0.259179 0.030312 -0.148706
v -0.315527 0.044091 -0.148706
v -0.310748 -0.079438 -0.148706
v -0.247916 -0.143042 -0.148706
v -0.310748 -0.079438 0.148706
v -0.247916 -0.143042 0.148706
v -0.166712 -0.135408 0.148706
v -0.262738 -0.080121 0.148706
v -0.236874 -0.116281 0.148706
v -0.262738 -0.080121 -0.148706
v -0.236874 -0.116281 -0.148706
v -0.181233 -0.115687 -0.148706
v -0.166712 -0.135408 -0.148706
v -0.066674 -0.022674 -0.148706
v 0.043018 -0.022666 -0.148706
v -0.050019 0.000915 -0.148706
v -0.066674 -0.022674 0.148706
v 0.043018 -0.022666 0.148706
v -0.050019 0.000915 0.148706
v -0.181233 -0.115687 0.148706
v 0.068550 0.203039 0.148706
v 0.033376 0.119026 0.148706
v 0.091558 0.041001 0.148706
v 0.068550 0.203039 -0.148706
v 0.033376 0.119026 -0.148706
v 0.091558 0.041001 -0.148706
v 0.114564 -0.121036 -0.148706
v 0.041414 0.000922 -0.148706
v 0.041414 0.000922 0.148706
v 0.140777 -0.134431 -0.148706
v 0.047592 -0.110923 -0.148706
v 0.114564 -0.121036 0.148706
v 0.140777 -0.134431 0.148706
v 0.047592 -0.110923 0.148706
v 0.017406 -0.134995 0.148706
v 0.017406 -0.134995 -0.148706
v 0.244613 -0.076543 0.148706
v 0.272642 0.102885 -0.148706
v 0.244613 -0.076543 -0.148706
v 0.149591 -0.206030 -0.148706
v 0.331735 0.079510 -0.148706
v 0.317148 -0.048317 -0.148706
v 0.331735 0.079510 0.148706
v 0.317148 -0.048317 0.148706
v 0.235393 -0.190827 0.148706
v 0.149591 -0.206030 0.148706
v 0.040498 -0.259904 0.148706
v -0.088629 -0.273550 0.148706
v 0.040498 -0.259904 -0.148706
v -0.088629 -0.273550 -0.148706
v 0.235393 -0.190827 -0.148706
v 0.091825 -0.280774 -0.148706
v -0.086152 -0.286690 -0.148706
v 0.091825 -0.280774 0.148706
v -0.086152 -0.286690 0.148706
v -0.213011 -0.242144 0.148706
v -0.213011 -0.242144 -0.148706
vn 0.3487 0.6715 -0.6539
vn 0.0223 0.7449 -0.6668
vn 0.6461 0.4000 -0.6501
vn -0.4679 -0.4064 -0.7848
vn 0.3487 0.6715 0.6539
vn 0.0223 0.7449 0.6668
vn 0.6461 0.4000 0.6501
vn -0.4679 -0.4064 0.7848
vn -0.6287 -0.0764 0.7739
vn -0.1475 -0.6083 0.7799
vn 0.1579 -0.6428 0.7496
vn -0.1475 -0.6083 -0.7799
vn 0.1579 -0.6428 -0.7496
vn 0.3779 -0.5395 -0.7524
vn -0.2905 0.6946 -0.6582
vn -0.5763 0.4854 -0.6574
vn -0.2905 0.6946 0.6582
vn -0.5763 0.4854 0.6574
vn -0.7385 0.1582 0.6555
vn 0.3779 -0.5395 0.7524
vn 0.5475 -0.3809 0.7451
vn 0.6354 -0.1551 0.7565
vn 0.5475 -0.3808 -0.7451
vn 0.6354 -0.1551 -0.7565
vn -0.7385 0.1582 -0.6555
vn -0.7095 -0.3075 -0.6340
vn -0.2676 -0.7357 -0.6222
vn -0.7096 -0.3075 0.6340
vn -0.2676 -0.7357 0.6222
vn 0.3501 -0.6903 0.6331
vn 0.5905 0.1790 0.7869
vn 0.2543 0.5010 0.8272
vn 0.5905 0.1790 -0.7869
vn 0.2543 0.5010 -0.8272
vn -0.2541 0.5150 -0.8186
vn 0.3501 -0.6904 -0.6331
vn 0.2393 -0.5323 -0.8120
vn -0.3024 -0.3185 -0.8984
vn 0.2324 0.1204 -0.9651
vn 0.2393 -0.5323 0.8120
vn -0.3024 -0.3185 0.8984
vn 0.2324 0.1204 0.9651
vn -0.2541 0.5150 0.8186
vn 0.2166 0.8083 0.5474
vn -0.0498 -0.1777 0.9828
vn 0.7001 0.0994 0.7071
vn 0.2166 0.8084 -0.5474
vn -0.0498 -0.1777 -0.9828
vn 0.7001 0.0994 -0.7071
vn 0.4579 0.3267 -0.8268
vn -0.2991 0.2794 -0.9124
vn -0.2991 0.2795 0.9124
vn 0.8183 -0.1950 -0.5406
vn -0.5143 0.2315 -0.8258
vn 0.4579 0.3267 0.8268
vn 0.8183 -0.1949 0.5407
vn -0.5143 0.2315 0.8258
vn -0.7913 -0.2789 0.5442
vn -0.7913 -0.2789 -0.5442
vn -0.5952 0.2475 0.7645
vn -0.6288 -0.0764 -0.7738
vn -0.5952 0.2475 -0.7645
vn -0.4143 0.4937 -0.7646
vn 0.7434 0.0603 -0.6661
vn 0.7102 -0.2332 -0.6643
vn 0.7434 0.0603 0.6661
vn 0.7102 -0.2332 0.6643
vn 0.5438 -0.5230 0.6563
vn -0.4143 0.4937 0.7646
vn -0.1844 0.6365 0.7489
vn 0.0470 0.6611 0.7488
vn -0.1844 0.6365 -0.7489
vn 0.0470 0.6611 -0.7488
vn 0.5438 -0.5230 -0.6563
vn 0.2213 -0.7244 -0.6530
vn -0.1129 -0.7357 -0.6679
vn 0.2213 -0.7244 0.6530
vn -0.1129 -0.7357 0.6679
vn -0.8078 0.2428 0.5371
vn -0.8076 0.2436 -0.5371
vt 0.000000 0.000000
s 1
f 6/1/6 1/1/1 2/1/2
f 1/1/1 12/1/12 2/1/2
f 5/1/5 3/1/3 1/1/1
f 4/1/4 3/1/3 61/1/61
f 10/1/10 5/1/5 6/1/6
f 7/1/7 8/1/8 9/1/9
f 9/1/9 4/1/4 61/1/61
f 8/1/8 12/1/12 4/1/4
f 10/1/10 13/1/13 12/1/12
f 6/1/6 11/1/11 10/1/10
f 13/1/13 2/1/2 12/1/12
f 11/1/11 14/1/14 13/1/13
f 15/1/15 14/1/14 16/1/16
f 18/1/18 15/1/15 16/1/16
f 17/1/17 2/1/2 15/1/15
f 20/1/20 17/1/17 18/1/18
f 19/1/19 16/1/16 25/1/25
f 21/1/21 18/1/18 19/1/19
f 20/1/20 23/1/23 14/1/14
f 21/1/21 24/1/24 23/1/23
f 22/1/22 19/1/19 28/1/28
f 16/1/16 23/1/23 25/1/25
f 25/1/25 24/1/24 26/1/26
f 26/1/26 19/1/19 25/1/25
f 29/1/29 26/1/26 27/1/27
f 33/1/33 26/1/26 24/1/24
f 28/1/28 31/1/31 22/1/22
f 30/1/30 27/1/27 36/1/36
f 29/1/29 32/1/32 31/1/31
f 31/1/31 34/1/34 33/1/33
f 22/1/22 33/1/33 24/1/24
f 34/1/34 27/1/27 33/1/33
f 32/1/32 35/1/35 34/1/34
f 36/1/36 35/1/35 37/1/37
f 40/1/40 36/1/36 37/1/37
f 41/1/41 37/1/37 38/1/38
f 38/1/38 39/1/39 51/1/51
f 39/1/39 35/1/35 47/1/47
f 41/1/41 42/1/42 40/1/40
f 42/1/42 43/1/43 40/1/40
f 43/1/43 30/1/30 40/1/40
f 43/1/43 47/1/47 35/1/35
f 45/1/45 46/1/46 44/1/44
f 44/1/44 42/1/42 45/1/45
f 47/1/47 46/1/46 49/1/49
f 49/1/49 48/1/48 47/1/47
f 47/1/47 48/1/48 39/1/39
f 46/1/46 50/1/50 49/1/49
f 38/1/38 50/1/50 54/1/54
f 38/1/38 51/1/51 49/1/49
f 52/1/52 48/1/48 51/1/51
f 42/1/42 51/1/51 39/1/39
f 41/1/41 46/1/46 52/1/52
f 55/1/55 53/1/53 50/1/50
f 50/1/50 59/1/59 54/1/54
f 55/1/55 58/1/58 56/1/56
f 55/1/55 41/1/41 57/1/57
f 57/1/57 38/1/38 54/1/54
f 58/1/58 54/1/54 59/1/59
f 56/1/56 59/1/59 53/1/53
f 45/1/45 39/1/39 48/1/48
f 60/1/60 61/1/61 62/1/62
f 66/1/66 9/1/9 60/1/60
f 61/1/61 64/1/64 62/1/62
f 69/1/69 62/1/62 63/1/63
f 62/1/62 65/1/65 63/1/63
f 66/1/66 65/1/65 64/1/64
f 7/1/7 64/1/64 3/1/3
f 67/1/67 60/1/60 69/1/69
f 65/1/65 68/1/68 74/1/74
f 68/1/68 69/1/69 70/1/70
f 70/1/70 63/1/63 72/1/72
f 71/1/71 72/1/72 73/1/73
f 70/1/70 77/1/77 68/1/68
f 75/1/75 72/1/72 74/1/74
f 63/1/63 74/1/74 72/1/72
f 68/1/68 75/1/75 74/1/74
f 77/1/77 76/1/76 75/1/75
f 76/1/76 73/1/73 75/1/75
f 78/1/78 71/1/71 79/1/79
f 78/1/78 80/1/80 76/1/76
f 79/1/79 73/1/73 80/1/80
f 6/1/6 5/1/5 1/1/1
f 1/1/1 4/1/4 12/1/12
f 5/1/5 7/1/7 3/1/3
f 4/1/4 1/1/1 3/1/3
f 10/1/10 8/1/8 5/1/5
f 7/1/7 5/1/5 8/1/8
f 9/1/9 8/1/8 4/1/4
f 8/1/8 10/1/10 12/1/12
f 10/1/10 11/1/11 13/1/13
f 6/1/6 17/1/17 11/1/11
f 13/1/13 15/1/15 2/1/2
f 11/1/11 20/1/20 14/1/14
f 15/1/15 13/1/13 14/1/14
f 18/1/18 17/1/17 15/1/15
f 17/1/17 6/1/6 2/1/2
f 20/1/20 11/1/11 17/1/17
f 19/1/19 18/1/18 16/1/16
f 21/1/21 20/1/20 18/1/18
f 20/1/20 21/1/21 23/1/23
f 21/1/21 22/1/22 24/1/24
f 22/1/22 21/1/21 19/1/19
f 16/1/16 14/1/14 23/1/23
f 25/1/25 23/1/23 24/1/24
f 26/1/26 28/1/28 19/1/19
f 29/1/29 28/1/28 26/1/26
f 33/1/33 27/1/27 26/1/26
f 28/1/28 29/1/29 31/1/31
f 30/1/30 29/1/29 27/1/27
f 29/1/29 30/1/30 32/1/32
f 31/1/31 32/1/32 34/1/34
f 22/1/22 31/1/31 33/1/33
f 34/1/34 36/1/36 27/1/27
f 32/1/32 43/1/43 35/1/35
f 36/1/36 34/1/34 35/1/35
f 40/1/40 30/1/30 36/1/36
f 41/1/41 40/1/40 37/1/37
f 38/1/38 37/1/37 39/1/39
f 39/1/39 37/1/37 35/1/35
f 41/1/41 52/1/52 42/1/42
f 42/1/42 44/1/44 43/1/43
f 43/1/43 32/1/32 30/1/30
f 43/1/43 44/1/44 47/1/47
f 45/1/45 52/1/52 46/1/46
f 47/1/47 44/1/44 46/1/46
f 49/1/49 51/1/51 48/1/48
f 46/1/46 55/1/55 50/1/50
f 38/1/38 49/1/49 50/1/50
f 52/1/52 45/1/45 48/1/48
f 42/1/42 52/1/52 51/1/51
f 55/1/55 56/1/56 53/1/53
f 50/1/50 53/1/53 59/1/59
f 55/1/55 57/1/57 58/1/58
f 55/1/55 46/1/46 41/1/41
f 57/1/57 41/1/41 38/1/38
f 58/1/58 57/1/57 54/1/54
f 56/1/56 58/1/58 59/1/59
f 45/1/45 42/1/42 39/1/39
f 60/1/60 9/1/9 61/1/61
f 66/1/66 7/1/7 9/1/9
f 61/1/61 3/1/3 64/1/64
f 69/1/69 60/1/60 62/1/62
f 62/1/62 64/1/64 65/1/65
f 66/1/66 67/1/67 65/1/65
f 7/1/7 66/1/66 64/1/64
f 67/1/67 66/1/66 60/1/60
f 65/1/65 67/1/67 68/1/68
f 68/1/68 67/1/67 69/1/69
f 70/1/70 69/1/69 63/1/63
f 71/1/71 70/1/70 72/1/72
f 70/1/70 71/1/71 77/1/77
f 75/1/75 73/1/73 72/1/72
f 63/1/63 65/1/65 74/1/74
f 68/1/68 77/1/77 75/1/75
f 77/1/77 78/1/78 76/1/76
f 76/1/76 80/1/80 73/1/73
f 78/1/78 77/1/77 71/1/71
f 78/1/78 79/1/79 80/1/80
f 79/1/79 71/1/71 73/1/73
