# Blender 5.1.0
# www.blender.org
mtllib EmptyCube.mtl
o Cube
v -1.000000 -1.000000 1.000000
v -1.000000 1.000000 1.000000
v -1.000000 -1.000000 -1.000000
v -1.000000 1.000000 -1.000000
v 1.000000 -1.000000 1.000000
v 1.000000 1.000000 1.000000
v 1.000000 -1.000000 -1.000000
v 1.000000 1.000000 -1.000000
v -1.000000 -0.794413 0.794413
v -1.000000 0.794413 -0.794413
v -1.000000 0.794413 0.794413
v -1.000000 -0.794413 -0.794413
v 1.000000 -0.794413 -0.794413
v 1.000000 0.794413 0.794413
v 1.000000 0.794413 -0.794413
v 1.000000 -0.794413 0.794413
v -0.794413 -0.794413 -1.000000
v 0.794413 0.794413 -1.000000
v -0.794413 0.794413 -1.000000
v 0.794413 -0.794413 -1.000000
v 0.794413 -0.794413 1.000000
v -0.794413 0.794413 1.000000
v 0.794413 0.794413 1.000000
v -0.794413 -0.794413 1.000000
v -0.794413 -0.794413 -0.794413
v 0.794413 -0.794413 -0.794413
v 0.387653 -0.794413 -0.794413
v -0.387653 0.794413 -0.794413
v -0.794413 0.794413 -0.794413
v 0.794413 0.794413 -0.794413
v -0.794413 -0.794413 0.794413
v 0.794413 -0.794413 0.794413
v -0.387653 -0.794413 0.794413
v 0.387653 0.794413 0.794413
v -0.794413 0.794413 0.794413
v 0.794413 0.794413 0.794413
v 0.794413 -1.000000 0.794413
v -0.794413 -1.000000 -0.794413
v 0.794413 -1.000000 -0.794413
v -0.794413 -1.000000 0.794413
v -0.794413 1.000000 0.794413
v 0.794413 1.000000 -0.794413
v -0.794413 1.000000 -0.794413
v 0.794413 1.000000 0.794413
vn -1.0000 -0.0000 -0.0000
vn -0.0000 -0.0000 -1.0000
vn 1.0000 -0.0000 -0.0000
vn -0.0000 -0.0000 1.0000
vn -0.0000 -1.0000 -0.0000
vn -0.0000 1.0000 -0.0000
vt 0.034265 0.034265
vt 0.000000 0.000000
vt 0.299069 0.034265
vt 0.299069 0.299069
vt 0.333333 0.333333
vt 0.034265 0.299069
vt 0.034265 0.367598
vt 0.000000 0.333333
vt 0.299069 0.367598
vt 0.299069 0.632402
vt 0.333333 0.666667
vt 0.034265 0.632402
vt 0.367598 0.299069
vt 0.333333 0.333333
vt 0.333333 0.000000
vt 0.666667 0.000000
vt 0.632402 0.299069
vt 0.632402 0.034265
vt 0.333333 0.666667
vt 0.333333 0.333333
vt 0.367598 0.632402
vt 0.666667 0.333333
vt 0.632402 0.632402
vt 0.632402 0.367598
vt 0.333333 0.666667
vt 0.333333 1.000000
vt 0.299069 0.700931
vt 0.000000 0.666667
vt 0.034265 0.965735
vt 0.000000 1.000000
vt 0.333333 1.000000
vt 0.367598 0.700931
vt 0.367598 0.965735
vt 0.666667 0.666667
vt 0.632402 0.965735
vt 0.632402 0.700931
vt 0.803725 0.264804
vt 0.837989 0.000000
vt 0.837989 0.264804
vt 0.837989 0.529608
vt 0.803725 0.794413
vt 0.837989 0.794413
vt 0.872254 0.264804
vt 0.872254 0.000000
vt 0.872254 0.794413
vt 0.906519 0.000000
vt 0.906519 0.264804
vt 0.906519 0.529608
vt 0.872254 0.529608
vt 0.940783 0.000000
vt 0.940783 0.264804
vt 0.940783 0.264804
vt 0.906519 0.794413
vt 0.940783 0.529608
vt 0.940783 0.794413
vt 0.666667 0.000000
vt 0.700931 0.000000
vt 0.700931 0.197011
vt 0.700931 0.529608
vt 0.666667 0.529608
vt 0.666667 0.332597
vt 0.700931 0.794413
vt 0.666667 0.794413
vt 0.666667 0.597402
vt 0.735196 0.197011
vt 0.735196 0.264804
vt 0.700931 0.264804
vt 0.735196 0.264804
vt 0.700931 0.264804
vt 0.700931 0.794412
vt 0.735196 0.529608
vt 0.735196 0.794412
vt 0.735196 -0.000000
vt 0.769460 0.264804
vt 0.769460 0.529608
vt 0.735196 0.264804
vt 0.769460 0.264804
vt 0.735196 0.726619
vt 0.735196 0.529608
vt 0.803725 0.067793
vt 0.803725 0.264804
vt 0.803725 0.332597
vt 0.769460 0.794413
vt 0.769460 0.726619
vt 0.000000 0.333333
vt 0.333333 0.000000
vt 0.000000 0.666667
vt 0.333333 0.333333
vt 0.666667 0.333333
vt 0.367598 0.034265
vt 0.666667 0.666667
vt 0.367598 0.367598
vt 0.034265 0.700931
vt 0.299069 0.965735
vt 0.666667 1.000000
vt 0.333333 0.666667
vt 0.803725 0.000000
vt 0.803725 0.529608
vt 0.940783 0.529608
vt 0.666667 0.264804
vt 0.666667 0.264804
vt 0.700931 -0.000000
vt 0.735196 -0.000000
vt 0.700931 0.529608
vt 0.769460 -0.000000
vt 0.735196 0.794413
vt 0.769460 -0.000000
vt 0.803725 0.000000
vt 0.803725 0.529608
vt 0.769460 0.529608
s 0
usemtl Material.001
f 10/1/1 4/2/1 12/3/1
f 9/4/1 1/5/1 11/6/1
f 18/7/2 8/8/2 20/9/2
f 17/10/2 3/11/2 19/12/2
f 15/13/3 8/14/3 6/15/3
f 5/16/3 13/17/3 16/18/3
f 6/19/4 2/20/4 23/21/4
f 1/22/4 21/23/4 24/24/4
f 3/25/5 7/26/5 38/27/5
f 1/28/5 37/29/5 5/30/5
f 2/31/6 44/32/6 41/33/6
f 8/34/6 43/35/6 42/36/6
f 13/37/4 30/38/4 26/39/4
f 12/40/4 29/37/4 10/39/4
f 9/41/2 35/40/2 31/42/2
f 16/43/2 36/38/2 14/44/2
f 16/43/6 26/40/6 32/39/6
f 9/40/6 25/45/6 12/42/6
f 15/43/5 36/46/5 30/47/5
f 10/48/5 35/43/5 11/47/5
f 22/48/3 31/45/3 35/49/3
f 17/47/3 29/50/3 25/51/3
f 18/52/1 26/48/1 30/47/1
f 21/53/1 36/54/1 32/55/1
f 21/56/6 32/57/6 33/58/6
f 17/59/6 25/60/6 27/61/6
f 18/62/5 30/63/5 28/64/5
f 34/65/5 36/66/5 23/67/5
f 40/68/3 25/59/3 31/69/3
f 43/70/3 35/71/3 29/72/3
f 42/73/1 36/74/1 44/66/1
f 37/75/1 26/76/1 39/77/1
f 27/78/4 25/79/4 38/75/4
f 28/80/4 30/81/4 42/74/4
f 44/74/2 36/81/2 34/82/2
f 40/41/2 31/83/2 33/84/2
f 10/1/1 11/6/1 2/85/1
f 4/2/1 3/86/1 12/3/1
f 10/1/1 2/85/1 4/2/1
f 9/4/1 12/3/1 3/86/1
f 1/5/1 2/85/1 11/6/1
f 9/4/1 3/86/1 1/5/1
f 18/7/2 19/12/2 4/87/2
f 8/8/2 7/88/2 20/9/2
f 18/7/2 4/87/2 8/8/2
f 17/10/2 20/9/2 7/88/2
f 3/11/2 4/87/2 19/12/2
f 17/10/2 7/88/2 3/11/2
f 15/13/3 13/17/3 7/89/3
f 6/15/3 5/16/3 16/18/3
f 6/15/3 16/18/3 14/90/3
f 15/13/3 7/89/3 8/14/3
f 6/15/3 14/90/3 15/13/3
f 5/16/3 7/89/3 13/17/3
f 23/21/4 21/23/4 5/91/4
f 2/20/4 1/22/4 24/24/4
f 2/20/4 24/24/4 22/92/4
f 23/21/4 5/91/4 6/19/4
f 2/20/4 22/92/4 23/21/4
f 1/22/4 5/91/4 21/23/4
f 38/27/5 40/93/5 1/28/5
f 7/26/5 5/30/5 37/29/5
f 7/26/5 37/29/5 39/94/5
f 38/27/5 1/28/5 3/25/5
f 7/26/5 39/94/5 38/27/5
f 1/28/5 40/93/5 37/29/5
f 43/35/6 4/95/6 2/31/6
f 2/31/6 6/96/6 44/32/6
f 41/33/6 43/35/6 2/31/6
f 44/32/6 6/96/6 8/34/6
f 8/34/6 4/95/6 43/35/6
f 42/36/6 44/32/6 8/34/6
f 13/37/4 15/97/4 30/38/4
f 12/40/4 25/98/4 29/37/4
f 9/41/2 11/98/2 35/40/2
f 16/43/2 32/39/2 36/38/2
f 16/43/6 13/49/6 26/40/6
f 9/40/6 31/49/6 25/45/6
f 15/43/5 14/44/5 36/46/5
f 10/48/5 29/49/5 35/43/5
f 22/48/3 24/53/3 31/45/3
f 17/47/3 19/46/3 29/50/3
f 18/52/1 20/99/1 26/48/1
f 21/53/1 23/48/1 36/54/1
f 33/58/6 31/67/6 24/100/6
f 24/100/6 21/56/6 33/58/6
f 27/61/6 26/101/6 20/69/6
f 20/69/6 17/59/6 27/61/6
f 29/60/5 19/59/5 28/64/5
f 19/59/5 18/62/5 28/64/5
f 23/67/5 22/102/5 34/65/5
f 22/102/5 35/103/5 34/65/5
f 40/68/3 38/79/3 25/59/3
f 43/70/3 41/104/3 35/71/3
f 42/73/1 30/105/1 36/74/1
f 37/75/1 32/79/1 26/76/1
f 38/75/4 39/83/4 27/78/4
f 39/83/4 26/106/4 27/78/4
f 42/74/4 43/107/4 28/80/4
f 43/107/4 29/108/4 28/80/4
f 34/82/2 35/109/2 41/110/2
f 41/110/2 44/74/2 34/82/2
f 33/84/2 32/75/2 37/98/2
f 37/98/2 40/41/2 33/84/2
