# Blender 5.1.0
# www.blender.org
mtllib MaskCircleLPobj.mtl
o Circle.001
v -1.532641 0.128496 1.911379
v -1.358091 0.733338 1.911379
v -0.952631 1.214849 1.911379
v -0.441955 1.479816 1.911379
v 0.129932 1.543817 1.911379
v 0.709446 1.379364 1.911379
v 1.181919 1.005653 1.911379
v 1.475414 0.479582 1.911379
v 1.545249 -0.118752 1.911379
v 1.380796 -0.698268 1.911379
v 1.007090 -1.170739 1.911379
v 0.481017 -1.464237 1.911379
v -0.117325 -1.534072 1.911379
v -0.696840 -1.369617 1.911379
v -1.169310 -0.995909 1.911379
v -1.462805 -0.469841 1.911379
v -2.440996 0.004872 1.911379
v -2.254706 0.941414 1.911379
v -1.724199 1.735375 1.911379
v -0.930237 2.265883 1.911379
v 0.006304 2.452173 1.911379
v 0.942846 2.265883 1.911379
v 1.736807 1.735375 1.911379
v 2.267315 0.941414 1.911379
v 2.453605 0.004873 1.911379
v 2.267315 -0.931669 1.911379
v 1.736807 -1.725630 1.911379
v 0.942845 -2.256139 1.911379
v 0.245565 -2.437517 1.911379
v -0.930237 -2.256138 1.911379
v -1.724199 -1.725629 1.911379
v -2.254708 -0.931668 1.911379
v -2.393817 0.482286 1.911379
v -2.028421 1.364432 1.911379
v -1.353256 2.039598 1.911379
v -0.471109 2.404994 1.911379
v 0.483718 2.404994 1.911379
v 1.365863 2.039598 1.911379
v 2.041029 1.364432 1.911379
v 2.406426 0.482287 1.911379
v 2.406426 -0.472540 1.911379
v 2.041029 -1.354687 1.911379
v 1.365865 -2.029851 1.911379
v -0.471109 -2.395249 1.911379
v -1.353255 -2.029853 1.911379
v -2.028420 -1.354687 1.911379
v -2.393817 -0.472541 1.911379
v -1.353604 0.730848 0.241331
v -1.501356 0.304765 0.241331
v -1.532641 -0.118752 0.241331
v -0.994478 1.180486 0.241331
v -0.581994 1.425149 0.241331
v -0.117324 1.543817 0.241331
v 0.481018 1.473982 0.241331
v 1.007086 1.180487 0.241331
v 1.380793 0.708018 0.241331
v 1.545249 0.128498 0.241331
v 1.475413 -0.469841 0.241331
v 1.181917 -0.995912 0.241331
v 0.709446 -1.369619 0.241331
v 0.129933 -1.534072 0.241331
v -0.468408 -1.464237 0.241331
v -0.994478 -1.170742 0.241331
v -1.368185 -0.698272 0.241331
v -2.254706 0.941414 0.241331
v -2.393817 0.482285 0.241331
v -2.440996 0.004872 0.241331
v -1.724200 1.735374 0.241331
v -2.028421 1.364432 0.241331
v -0.930237 2.265883 0.241331
v -1.353256 2.039597 0.241331
v 0.006304 2.452173 0.241331
v -0.471109 2.404994 0.241331
v 0.942845 2.265883 0.241331
v 0.483717 2.404994 0.241331
v 1.736807 1.735375 0.241331
v 1.365864 2.039597 0.241331
v 2.267315 0.941414 0.241331
v 2.041029 1.364432 0.241331
v 2.453605 0.004874 0.241331
v 2.406426 0.482286 0.241331
v 2.267315 -0.931669 0.241331
v 2.406426 -0.472541 0.241331
v 1.736807 -1.725630 0.241331
v 2.041029 -1.354687 0.241331
v 0.942845 -2.256139 0.241331
v 1.365865 -2.029851 0.241331
v 0.006304 -2.442428 0.241331
v 0.483718 -2.395249 0.241331
v -0.930237 -2.256138 0.241331
v -0.471110 -2.395249 0.241331
v -1.724198 -1.725631 0.241331
v -1.353256 -2.029853 0.241331
v -2.254708 -0.931668 0.241331
v -2.028419 -1.354688 0.241331
v -2.393817 -0.472542 0.241331
vn 0.0531 0.6602 0.7492
vn -0.1341 -0.7184 0.6826
vn 0.0719 -0.7332 0.6762
vn -0.3017 -0.5896 0.7492
vn 0.4044 0.6052 0.6858
vn 0.2786 0.6725 0.6856
vn 0.3017 0.5896 0.7492
vn -0.4044 -0.6052 0.6858
vn -0.2786 -0.6725 0.6856
vn -0.5043 -0.4293 0.7492
vn 0.6052 0.4044 0.6858
vn 0.5147 0.5147 0.6856
vn 0.5043 0.4293 0.7492
vn -0.6052 -0.4044 0.6858
vn -0.5147 -0.5147 0.6856
vn -0.6302 -0.2036 0.7492
vn 0.7138 0.1420 0.6858
vn 0.6725 0.2786 0.6856
vn 0.6565 -0.0622 0.7517
vn -0.7138 0.1420 0.6858
vn -0.7280 -0.0000 0.6856
vn 0.6302 0.2036 0.7492
vn -0.7138 -0.1420 0.6858
vn -0.6725 -0.2786 0.6856
vn -0.6602 0.0531 0.7492
vn 0.7138 -0.1420 0.6858
vn 0.7280 -0.0000 0.6856
vn 0.5769 -0.3116 0.7551
vn -0.6052 0.4044 0.6858
vn -0.6725 0.2786 0.6856
vn -0.5896 0.3017 0.7492
vn 0.6052 -0.4044 0.6858
vn 0.6725 -0.2786 0.6856
vn 0.4191 -0.5078 0.7526
vn -0.4044 0.6052 0.6858
vn -0.5147 0.5147 0.6856
vn -0.4293 0.5043 0.7492
vn 0.4044 -0.6052 0.6858
vn 0.5147 -0.5147 0.6856
vn 0.2018 -0.6315 0.7486
vn -0.1420 0.7138 0.6858
vn -0.2786 0.6725 0.6856
vn -0.2036 0.6302 0.7492
vn 0.2716 -0.6786 0.6825
vn -0.0546 -0.6606 0.7488
vn 0.1420 0.7138 0.6858
vn -0.0000 0.7280 0.6856
vn 0.0458 -0.6635 -0.7468
vn -0.2036 -0.6302 -0.7492
vn -0.4293 -0.5043 -0.7492
vn -0.5896 -0.3017 -0.7492
vn -0.6602 -0.0531 -0.7492
vn -0.6302 0.2036 -0.7492
vn -0.5043 0.4293 -0.7492
vn -0.3017 0.5896 -0.7492
vn -0.0531 0.6602 -0.7492
vn 0.2036 0.6302 -0.7492
vn 0.4293 0.5043 -0.7492
vn 0.5896 0.3017 -0.7492
vn 0.6639 0.0663 -0.7449
vn -0.1337 -0.7163 -0.6849
vn 0.0029 -0.7278 -0.6858
vn 0.4044 0.6052 -0.6858
vn 0.2786 0.6725 -0.6856
vn -0.2786 -0.6725 -0.6856
vn -0.4044 -0.6052 -0.6858
vn 0.5147 0.5147 -0.6856
vn 0.6052 0.4044 -0.6858
vn -0.5147 -0.5147 -0.6856
vn -0.6052 -0.4044 -0.6858
vn 0.6725 0.2786 -0.6856
vn 0.7138 0.1420 -0.6858
vn -0.6725 -0.2786 -0.6856
vn -0.7138 0.1420 -0.6858
vn 0.6638 -0.1319 -0.7362
vn -0.7280 -0.0000 -0.6856
vn 0.7280 -0.0000 -0.6856
vn 0.5824 -0.3146 -0.7495
vn -0.6725 0.2786 -0.6856
vn -0.7138 -0.1420 -0.6858
vn 0.7138 -0.1420 -0.6858
vn 0.4241 -0.5059 -0.7511
vn -0.6052 0.4044 -0.6858
vn -0.5147 0.5147 -0.6856
vn 0.6725 -0.2786 -0.6856
vn 0.6052 -0.4044 -0.6858
vn 0.2528 -0.6247 -0.7388
vn -0.4044 0.6052 -0.6858
vn -0.2786 0.6725 -0.6856
vn 0.5147 -0.5147 -0.6856
vn 0.4044 -0.6052 -0.6858
vn -0.1420 0.7138 -0.6858
vn 0.2708 -0.6766 -0.6847
vn 0.1391 -0.7142 -0.6859
vn -0.0000 0.7280 -0.6856
vn 0.1420 0.7138 -0.6858
vt 0.000000 0.000000
s 1
f 13/1/1 44/1/2 29/1/3
f 6/1/4 38/1/5 22/1/6
f 14/1/7 45/1/8 30/1/9
f 7/1/10 39/1/11 23/1/12
f 15/1/13 46/1/14 31/1/15
f 8/1/16 40/1/17 24/1/18
f 1/1/19 33/1/20 17/1/21
f 16/1/22 47/1/23 32/1/24
f 9/1/25 41/1/26 25/1/27
f 2/1/28 34/1/29 18/1/30
f 10/1/31 42/1/32 26/1/33
f 3/1/34 35/1/35 19/1/36
f 11/1/37 43/1/38 27/1/39
f 4/1/40 36/1/41 20/1/42
f 12/1/43 29/1/3 28/1/44
f 13/1/1 29/1/3 12/1/43
f 5/1/45 37/1/46 21/1/47
f 53/1/48 5/1/45 4/1/40
f 54/1/49 6/1/4 5/1/45
f 55/1/50 7/1/10 6/1/4
f 56/1/51 8/1/16 7/1/10
f 57/1/52 9/1/25 8/1/16
f 58/1/53 10/1/31 9/1/25
f 59/1/54 11/1/37 10/1/31
f 60/1/55 12/1/43 11/1/37
f 61/1/56 13/1/1 12/1/43
f 62/1/57 14/1/7 13/1/1
f 63/1/58 15/1/13 14/1/7
f 44/1/2 13/1/1 14/1/7 30/1/9
f 64/1/59 16/1/22 15/1/13
f 50/1/60 1/1/19 16/1/22
f 38/1/5 6/1/4 7/1/10 23/1/12
f 45/1/8 14/1/7 15/1/13 31/1/15
f 39/1/11 7/1/10 8/1/16 24/1/18
f 46/1/14 15/1/13 16/1/22 32/1/24
f 40/1/17 8/1/16 9/1/25 25/1/27
f 33/1/20 1/1/19 2/1/28 18/1/30
f 47/1/23 16/1/22 1/1/19 17/1/21
f 41/1/26 9/1/25 10/1/31 26/1/33
f 34/1/29 2/1/28 3/1/34 19/1/36
f 42/1/32 10/1/31 11/1/37 27/1/39
f 35/1/35 3/1/34 4/1/40 20/1/42
f 43/1/38 11/1/37 12/1/43 28/1/44
f 36/1/41 4/1/40 5/1/45 21/1/47
f 37/1/46 5/1/45 6/1/4 22/1/6
f 91/1/61 62/1/57 61/1/56 88/1/62
f 77/1/63 55/1/50 54/1/49 74/1/64
f 91/1/61 90/1/65 62/1/57
f 93/1/66 63/1/58 62/1/57 90/1/65
f 77/1/63 76/1/67 55/1/50
f 79/1/68 56/1/51 55/1/50 76/1/67
f 93/1/66 92/1/69 63/1/58
f 95/1/70 64/1/59 63/1/58 92/1/69
f 79/1/68 78/1/71 56/1/51
f 81/1/72 57/1/52 56/1/51 78/1/71
f 95/1/70 94/1/73 64/1/59
f 66/1/74 49/1/75 50/1/60 67/1/76
f 81/1/72 80/1/77 57/1/52
f 48/1/78 49/1/75 66/1/74 65/1/79
f 96/1/80 50/1/60 64/1/59 94/1/73
f 83/1/81 58/1/53 57/1/52 80/1/77
f 96/1/80 67/1/76 50/1/60
f 51/1/82 48/1/78 69/1/83 68/1/84
f 83/1/81 82/1/85 58/1/53
f 48/1/78 65/1/79 69/1/83
f 85/1/86 59/1/54 58/1/53 82/1/85
f 52/1/87 51/1/82 71/1/88 70/1/89
f 85/1/86 84/1/90 59/1/54
f 51/1/82 68/1/84 71/1/88
f 87/1/91 60/1/55 59/1/54 84/1/90
f 73/1/92 53/1/48 52/1/87 70/1/89
f 87/1/91 86/1/93 60/1/55
f 89/1/94 61/1/56 60/1/55 86/1/93
f 73/1/92 72/1/95 53/1/48
f 75/1/96 54/1/49 53/1/48 72/1/95
f 89/1/94 88/1/62 61/1/56
f 33/1/20 18/1/30 65/1/79 66/1/74
f 75/1/96 74/1/64 54/1/49
f 90/1/65 30/1/9 45/1/8 93/1/66
f 17/1/21 33/1/20 66/1/74 67/1/76
f 46/1/14 32/1/24 94/1/73 95/1/70
f 52/1/87 53/1/48 4/1/40
f 34/1/29 19/1/36 68/1/84 69/1/83
f 31/1/15 46/1/14 95/1/70 92/1/69
f 18/1/30 34/1/29 69/1/83 65/1/79
f 47/1/23 17/1/21 67/1/76 96/1/80
f 53/1/48 54/1/49 5/1/45
f 35/1/35 20/1/42 70/1/89 71/1/88
f 32/1/24 47/1/23 96/1/80 94/1/73
f 19/1/36 35/1/35 71/1/88 68/1/84
f 36/1/41 21/1/47 72/1/95 73/1/92
f 54/1/49 55/1/50 6/1/4
f 20/1/42 36/1/41 73/1/92 70/1/89
f 37/1/46 22/1/6 74/1/64 75/1/96
f 55/1/50 56/1/51 7/1/10
f 21/1/47 37/1/46 75/1/96 72/1/95
f 38/1/5 23/1/12 76/1/67 77/1/63
f 56/1/51 57/1/52 8/1/16
f 22/1/6 38/1/5 77/1/63 74/1/64
f 39/1/11 24/1/18 78/1/71 79/1/68
f 57/1/52 58/1/53 9/1/25
f 23/1/12 39/1/11 79/1/68 76/1/67
f 40/1/17 25/1/27 80/1/77 81/1/72
f 58/1/53 59/1/54 10/1/31
f 24/1/18 40/1/17 81/1/72 78/1/71
f 41/1/26 26/1/33 82/1/85 83/1/81
f 59/1/54 60/1/55 11/1/37
f 25/1/27 41/1/26 83/1/81 80/1/77
f 42/1/32 27/1/39 84/1/90 85/1/86
f 60/1/55 61/1/56 12/1/43
f 26/1/33 42/1/32 85/1/86 82/1/85
f 43/1/38 28/1/44 86/1/93 87/1/91
f 61/1/56 62/1/57 13/1/1
f 2/1/28 1/1/19 49/1/75 48/1/78
f 27/1/39 43/1/38 87/1/91 84/1/90
f 51/1/82 3/1/34 2/1/28 48/1/78
f 62/1/57 63/1/58 14/1/7
f 50/1/60 49/1/75 1/1/19
f 88/1/62 89/1/94 29/1/3
f 28/1/44 29/1/3 89/1/94 86/1/93
f 44/1/2 30/1/9 90/1/65 91/1/61
f 63/1/58 64/1/59 15/1/13
f 52/1/87 4/1/40 3/1/34 51/1/82
f 88/1/62 29/1/3 44/1/2 91/1/61
f 45/1/8 31/1/15 92/1/69 93/1/66
f 64/1/59 50/1/60 16/1/22
