# Blender 5.1.0
# www.blender.org
mtllib MusicNote.mtl
o Cube.002
v -0.753953 -3.947534 0.000000
v 3.725351 -2.507838 0.000000
v 0.156036 -3.394753 0.525725
v -1.101531 -3.394754 0.850649
v -0.135599 2.580007 0.407722
v 4.635339 -1.955058 0.525725
v -1.878759 -3.394749 0.000000
v -1.101531 -3.394754 -0.850649
v 0.156036 -3.394753 -0.525725
v 3.377773 -1.955058 0.850649
v -0.406375 -2.500314 0.850649
v -0.135599 2.580007 -0.407722
v -1.663941 -2.500314 0.525725
v 2.600545 -1.955054 0.000000
v -1.663941 -2.500314 -0.525725
v -0.406375 -2.500314 -0.850649
v 3.377773 -1.955058 -0.850649
v 0.370853 -2.500318 0.000000
v 0.135599 2.580007 0.407722
v -0.753953 -1.947534 0.000000
v 4.635339 -1.955058 -0.525725
v -0.958252 -3.798188 0.499995
v 4.072928 -1.060618 0.850649
v -0.219078 -3.798188 0.309011
v 0.135599 2.580007 -0.407722
v -0.423376 -3.473272 0.809012
v 2.815362 -1.060618 0.525725
v 0.315799 -3.473270 0.000000
v 2.815362 -1.060618 -0.525725
v -0.219078 -3.798188 -0.309011
v -0.135599 1.349779 0.407722
v -1.415096 -3.798186 0.000000
v -0.135599 1.349779 -0.407722
v -1.619401 -3.473270 0.499997
v -0.958252 -3.798188 -0.499995
v 4.072928 -1.060618 -0.850649
v -1.619401 -3.473270 -0.499997
v 0.135599 1.349779 -0.407722
v -0.423376 -3.473272 -0.809012
v 4.850157 -1.060622 0.000000
v 0.442072 -2.947534 0.309013
v 3.725351 -0.507838 0.000000
v 0.442072 -2.947534 -0.309013
v 0.135599 1.349779 0.407722
v -0.753953 -2.947534 1.000000
v 3.521051 -2.358492 0.499995
v -0.014769 -2.947534 0.809017
v 4.260225 -2.358492 0.309011
v -1.949977 -2.947534 0.309013
v 4.390881 3.930998 0.407722
v -1.493136 -2.947534 0.809017
v 4.055927 -2.033576 0.809012
v -1.493136 -2.947534 -0.809017
v 4.390881 3.930998 -0.407722
v -1.949977 -2.947534 -0.309013
v 4.795103 -2.033574 0.000000
v 4.260225 -2.358492 -0.309011
v -0.014769 -2.947534 -0.809017
v -0.753953 -2.947534 -1.000000
v 4.662078 3.930998 0.407722
v 0.111496 -2.421798 0.499997
v 3.064207 -2.358490 0.000000
v 2.859902 -2.033574 0.499997
v -1.084529 -2.421796 0.809012
v 4.662078 3.930998 -0.407722
v -1.823704 -2.421798 0.000000
v -1.084529 -2.421796 -0.809012
v 3.521051 -2.358492 -0.499995
v 0.111496 -2.421798 -0.499997
v 2.859902 -2.033574 -0.499997
v 4.390881 2.700770 0.407722
v -0.549653 -2.096879 0.499995
v 4.390881 2.700770 -0.407722
v -1.288827 -2.096880 0.309011
v 4.055927 -2.033576 -0.809012
v -1.288827 -2.096880 -0.309011
v 4.921375 -1.507838 0.309013
v 4.662078 2.700770 -0.407722
v -0.549653 -2.096879 -0.499995
v 4.662078 2.700770 0.407722
v 4.921375 -1.507838 -0.309013
v 3.725351 -1.507838 1.000000
v 4.464534 -1.507838 0.809017
v 2.529326 -1.507838 0.309013
v 2.986168 -1.507838 0.809017
v 2.986168 -1.507838 -0.809017
v 2.529326 -1.507838 -0.309013
v 4.464534 -1.507838 -0.809017
v 3.725351 -1.507838 -1.000000
v 4.590799 -0.982102 0.499997
v 3.394774 -0.982100 0.809012
v 2.655599 -0.982102 0.000000
v 3.394774 -0.982100 -0.809012
v 4.590799 -0.982102 -0.499997
v 3.929651 -0.657183 0.499995
v 4.386494 -0.657186 0.000000
v 3.190476 -0.657184 0.309011
v 3.190476 -0.657184 -0.309011
v 3.929651 -0.657183 -0.499995
v 4.662078 -1.046731 0.407722
v 4.638663 -0.996593 0.407722
v 4.553094 -0.922138 0.407722
v 4.390881 -0.842419 0.407722
v 4.662078 -1.003681 -0.362583
v 4.662078 -1.046731 -0.407722
v 4.662078 -0.896974 0.000000
v 4.662078 -1.003681 0.362583
v 4.390881 -0.842419 -0.407722
v 4.553094 -0.922138 -0.407722
v 4.638663 -0.996593 -0.407722
v 4.390881 -0.664162 0.010735
v 4.390881 -0.664162 -0.010735
v 4.390881 -0.661003 0.000000
v 0.135599 -2.415614 0.407722
v 0.073791 -2.361834 0.407722
v -0.135599 -2.258931 0.407722
v 0.135599 -2.415614 -0.407722
v 0.135599 -2.295622 0.000000
v -0.135599 -2.258931 -0.407722
v 0.073791 -2.361834 -0.407722
v -0.135599 -2.096882 0.046831
v -0.135599 -2.096882 -0.046831
v -0.135599 -2.087216 0.000000
vn -1.0000 -0.0000 -0.0000
vn -0.0000 -0.0000 -1.0000
vn -0.3026 0.9531 -0.0000
vn -0.0000 -0.0000 1.0000
vn -0.0000 1.0000 -0.0000
vn 1.0000 -0.0000 -0.0000
vn 0.3026 -0.9531 -0.0000
vn 0.0300 -0.9996 -0.0000
vn 0.3981 -0.8445 0.3582
vn -0.1299 -0.8252 0.5498
vn 0.7320 -0.2743 0.6236
vn 0.9122 -0.4097 -0.0000
vn -0.4780 -0.8784 -0.0000
vn -0.1299 -0.8252 -0.5498
vn 0.3981 -0.8445 -0.3582
vn 0.9775 -0.0006 0.2110
vn -0.2605 -0.2631 0.9289
vn 0.2403 -0.3484 0.9060
vn -0.9522 -0.3054 -0.0000
vn -0.7083 -0.3722 0.5998
vn -0.9775 0.0006 0.2110
vn -0.2605 -0.2631 -0.9289
vn -0.7083 -0.3722 -0.5998
vn -0.5296 -0.0008 -0.8482
vn 0.7320 -0.2743 -0.6236
vn 0.2403 -0.3484 -0.9060
vn 0.5296 0.0008 -0.8482
vn 0.5296 0.0008 0.8482
vn -0.5296 -0.0008 0.8482
vn -0.9775 0.0006 -0.2110
vn 0.9775 -0.0006 -0.2110
vn 0.2605 0.2631 0.9289
vn 0.7083 0.3721 0.5998
vn 0.1299 0.8252 0.5498
vn -0.7320 0.2743 0.6236
vn -0.2403 0.3484 0.9060
vn -0.3981 0.8445 0.3582
vn -0.7320 0.2743 -0.6236
vn -0.9122 0.4097 -0.0000
vn -0.3981 0.8445 -0.3582
vn 0.2605 0.2631 -0.9289
vn -0.2403 0.3484 -0.9060
vn 0.1299 0.8252 -0.5498
vn 0.4780 0.8784 -0.0000
vn 0.6564 0.7544 -0.0000
vn 0.4849 0.8105 -0.3285
vn 0.9522 0.3054 -0.0000
vn 0.8119 0.4692 -0.3475
vn 0.7083 0.3721 -0.5998
vn 0.4682 0.8160 -0.3390
vn 0.8261 0.4332 -0.3605
vn -0.0300 0.9996 -0.0000
vn 0.4091 0.8324 -0.3738
vn 0.4091 0.8324 0.3738
vn 0.4849 0.8105 0.3285
vn 0.8119 0.4692 0.3475
vn 0.8261 0.4332 0.3605
vn 0.4682 0.8160 0.3390
vn 0.8402 0.3924 -0.3742
vn 0.8402 0.3924 0.3742
vn 0.7321 -0.2743 0.6236
vn 0.7321 -0.2743 -0.6236
vn -0.7321 0.2743 0.6236
vn -0.7321 0.2743 -0.6236
vn 0.6408 0.7365 -0.2167
vn 0.2203 0.9754 -0.0000
vn 0.3006 0.9134 0.2746
vn 0.6408 0.7365 0.2167
vn 0.3006 0.9134 -0.2746
vt 0.625000 0.000000
vt 0.565396 0.250000
vt 0.565396 0.000000
vt 0.625000 0.250000
vt 0.565396 0.500000
vt 0.625000 0.750000
vt 0.000000 0.000000
vt 0.565396 1.000000
vt 0.565396 0.750000
vt 0.875000 0.500000
vt 0.625000 0.500000
vt 0.390556 1.000000
vt 0.385570 0.806977
vt 0.382965 0.750000
vt 0.388778 0.625000
vt 0.382965 0.500000
vt 0.385570 0.443023
vt 0.398875 0.125000
vt 0.398407 0.110642
vt 0.389868 0.850465
vt 0.386261 0.771585
vt 0.391087 0.625000
vt 0.385917 0.513839
vt 0.386261 0.478415
vt 0.389868 0.399535
vt 0.402520 0.125000
vt 0.402367 0.121709
vt 0.181819 0.000000
vt 0.227273 0.078731
vt 0.136365 0.078731
vt 0.272728 0.157461
vt 0.318182 0.078731
vt 0.363637 0.157461
vt 0.909091 0.000000
vt 0.954545 0.078731
vt 0.863636 0.078731
vt 0.727273 0.000000
vt 0.772727 0.078731
vt 0.681818 0.078731
vt 0.545455 0.000000
vt 0.590909 0.078731
vt 0.500000 0.078731
vt 0.318182 0.236191
vt 0.090910 0.157461
vt 0.181819 0.157461
vt 0.136365 0.236191
vt 0.818182 0.157461
vt 0.909091 0.157461
vt 0.863636 0.236191
vt 0.636364 0.157461
vt 0.727273 0.157461
vt 0.681818 0.236191
vt 0.454546 0.157461
vt 0.545455 0.157461
vt 0.500000 0.236191
vt 0.227273 0.236191
vt 0.045455 0.236191
vt 0.772727 0.236191
vt 0.590909 0.236191
vt 0.409092 0.236191
vt 0.181819 0.314921
vt 0.272728 0.314921
vt 0.227273 0.393651
vt 0.000000 0.314921
vt 0.090910 0.314921
vt 0.045455 0.393651
vt 0.727273 0.314921
vt 0.818182 0.314921
vt 0.772727 0.393651
vt 0.545455 0.314921
vt 0.636364 0.314921
vt 0.590909 0.393651
vt 0.409092 0.393651
vt 0.408661 0.392907
vt 0.410067 0.391961
vt 0.363637 0.314921
vt 0.429561 0.314921
vt 0.382075 0.346857
vt 0.454546 0.314921
vt 0.446157 0.329451
vt 0.437769 0.314921
vt 0.500000 0.393651
vt 0.454546 0.472382
vt 0.457310 0.348767
vt 0.681818 0.393651
vt 0.636364 0.472382
vt 0.863636 0.393651
vt 0.818182 0.472382
vt 0.909091 0.314921
vt 0.136365 0.393651
vt 0.090910 0.472382
vt 0.318182 0.393651
vt 0.272728 0.472382
vt 0.269964 0.348767
vt 0.317207 0.391961
vt 0.318613 0.392907
vt 0.345199 0.346857
vt 0.297713 0.314921
vt 0.289505 0.314921
vt 0.281117 0.329451
vt 0.436683 0.306958
vt 0.290591 0.306958
vt 0.954545 0.236191
vt 1.000000 0.157461
vt 0.409092 0.078731
vt 0.363637 0.000000
vt 0.440098 0.318956
vt 0.412033 0.398747
vt 0.460553 0.354385
vt 0.315241 0.398747
vt 0.266721 0.354385
vt 0.309668 0.393651
vt 0.287176 0.318956
vt 0.875000 0.750000
vt 0.625000 1.000000
vt 0.390556 0.250000
vt 0.390556 0.000000
vt 0.398407 0.139358
vt 0.383832 0.750000
vt 0.393730 1.000000
vt 0.383832 0.500000
vt 0.385917 0.736161
vt 0.393730 0.250000
vt 0.393730 0.000000
vt 0.402367 0.128291
vt 0.386700 0.354868
vt 0.446157 0.329451
vt 0.417606 0.393651
vt 0.281117 0.329451
vt 0.340574 0.354868
s 0
usemtl 
f 5/1/1 33/2/1 31/3/1
f 12/4/2 38/5/2 33/2/2
f 19/6/3 54/7/3 25/7/3
f 19/6/4 31/8/4 44/9/4
f 12/10/5 19/6/5 25/11/5
f 31/8/4 116/12/4 115/13/4
f 44/9/6 114/14/6 118/15/6
f 38/5/2 117/16/2 120/17/2
f 123/18/1 121/19/1 31/3/1
f 54/4/2 78/5/2 73/2/2
f 65/11/6 80/9/6 78/5/6
f 60/6/4 71/8/4 80/9/4
f 54/10/5 60/6/5 65/11/5
f 102/20/4 101/21/4 80/9/4
f 106/22/6 104/23/6 78/5/6
f 110/24/2 109/25/2 78/5/2
f 113/26/1 111/27/1 71/3/1
f 71/3/4 19/6/4 44/9/4
f 73/7/7 44/7/7 38/7/7
f 25/7/2 73/7/2 38/7/2
s 1
f 2/28/8 48/29/9 46/30/10
f 6/31/11 48/32/9 56/33/12
f 2/34/8 46/35/10 62/36/13
f 2/37/8 62/38/13 68/39/14
f 2/40/8 68/41/14 57/42/15
f 6/31/11 56/33/12 77/43/16
f 10/44/17 52/45/18 82/46/4
f 14/47/19 63/48/20 84/49/21
f 17/50/22 70/51/23 86/52/24
f 21/53/25 75/54/26 88/55/27
f 6/31/11 77/43/16 83/56/28
f 10/44/17 82/46/4 85/57/29
f 14/47/19 84/49/21 87/58/30
f 17/50/22 86/52/24 89/59/2
f 21/53/25 88/55/27 81/60/31
f 23/61/32 90/62/33 95/63/34
f 27/64/35 91/65/36 97/66/37
f 29/67/38 92/68/39 98/69/40
f 36/70/41 93/71/42 99/72/43
f 96/73/44 113/74/45 112/75/46
f 40/76/47 104/77/48 106/78/45
f 94/79/49 109/80/50 110/81/51
f 96/73/44 99/82/43 42/83/52
f 108/84/53 94/79/49 99/82/43
f 94/79/49 36/70/41 99/82/43
f 99/72/43 98/85/40 42/86/52
f 99/72/43 93/71/42 98/85/40
f 93/71/42 29/67/38 98/85/40
f 98/69/40 97/87/37 42/88/52
f 98/69/40 92/68/39 97/87/37
f 92/68/39 27/89/35 97/87/37
f 97/66/37 95/90/34 42/91/52
f 97/66/37 91/65/36 95/90/34
f 91/65/36 23/61/32 95/90/34
f 95/63/34 96/92/44 42/93/52
f 103/94/54 96/92/44 95/63/34
f 96/92/44 111/95/55 113/96/45
f 106/97/45 107/98/56 40/76/47
f 90/62/33 101/99/57 102/100/58
f 81/60/31 94/79/49 105/101/59
f 88/55/27 94/79/49 81/60/31
f 88/55/27 36/70/41 94/79/49
f 89/59/2 93/71/42 36/70/41
f 89/59/2 86/52/24 93/71/42
f 86/52/24 29/67/38 93/71/42
f 87/58/30 92/68/39 29/67/38
f 87/58/30 84/49/21 92/68/39
f 84/49/21 27/89/35 92/68/39
f 85/57/29 91/65/36 27/64/35
f 85/57/29 82/46/4 91/65/36
f 82/46/4 23/61/32 91/65/36
f 83/56/28 90/62/33 23/61/32
f 90/62/33 83/56/28 77/43/16
f 100/102/60 77/43/16 107/98/56
f 88/55/27 89/59/2 36/70/41
f 88/55/27 75/54/26 89/59/2
f 75/54/26 17/50/22 89/59/2
f 86/52/24 87/58/30 29/67/38
f 86/52/24 70/51/23 87/58/30
f 70/51/23 14/47/19 87/58/30
f 84/49/21 85/103/29 27/89/35
f 84/49/21 63/48/20 85/103/29
f 63/48/20 10/104/17 85/103/29
f 82/46/4 83/56/28 23/61/32
f 82/46/4 52/45/18 83/56/28
f 52/45/18 6/31/11 83/56/28
f 77/43/16 81/60/31 40/76/47
f 77/43/16 56/33/12 81/60/31
f 56/33/12 21/53/25 81/60/31
f 57/42/15 75/54/26 21/53/25
f 57/42/15 68/41/14 75/54/26
f 68/41/14 17/50/22 75/54/26
f 68/39/14 70/51/23 17/50/22
f 68/39/14 62/38/13 70/51/23
f 62/38/13 14/47/19 70/51/23
f 62/36/13 63/48/20 14/47/19
f 62/36/13 46/35/10 63/48/20
f 46/35/10 10/104/17 63/48/20
f 56/33/12 57/105/15 21/53/25
f 56/33/12 48/32/9 57/105/15
f 48/32/9 2/106/8 57/105/15
f 46/30/10 52/45/18 10/44/17
f 46/30/10 48/29/9 52/45/18
f 48/29/9 6/31/11 52/45/18
f 1/28/8 24/29/9 22/30/10
f 3/31/61 24/32/9 28/33/12
f 1/34/8 22/35/10 32/36/13
f 1/37/8 32/38/13 35/39/14
f 1/40/8 35/41/14 30/42/15
f 3/31/61 28/33/12 41/43/16
f 4/44/17 26/45/18 45/46/4
f 7/47/19 34/48/20 49/49/21
f 8/50/22 37/51/23 53/52/24
f 9/53/62 39/54/26 58/55/27
f 3/31/61 41/43/16 47/56/28
f 4/44/17 45/46/4 51/57/29
f 7/47/19 49/49/21 55/58/30
f 8/50/22 53/52/24 59/59/2
f 9/53/62 58/55/27 43/60/31
f 11/61/32 61/62/33 72/63/34
f 13/64/63 64/65/36 74/66/37
f 15/67/64 66/68/39 76/69/40
f 16/70/41 67/71/42 79/72/43
f 18/76/47 69/79/49 117/107/65
f 123/108/66 79/82/43 20/83/52
f 69/79/49 79/82/43 119/109/53
f 69/79/49 16/70/41 79/82/43
f 79/72/43 76/85/40 20/86/52
f 79/72/43 67/71/42 76/85/40
f 67/71/42 15/67/64 76/85/40
f 76/69/40 74/87/37 20/88/52
f 76/69/40 66/68/39 74/87/37
f 66/68/39 13/89/63 74/87/37
f 74/66/37 72/90/34 20/91/52
f 74/66/37 64/65/36 72/90/34
f 64/65/36 11/61/32 72/90/34
f 72/63/34 123/110/66 20/93/52
f 116/111/54 121/112/67 72/63/34
f 61/62/33 18/76/47 114/113/68
f 69/79/49 18/76/47 43/60/31
f 58/55/27 69/79/49 43/60/31
f 58/55/27 16/70/41 69/79/49
f 59/59/2 67/71/42 16/70/41
f 59/59/2 53/52/24 67/71/42
f 53/52/24 15/67/64 67/71/42
f 55/58/30 66/68/39 15/67/64
f 55/58/30 49/49/21 66/68/39
f 49/49/21 13/89/63 66/68/39
f 51/57/29 64/65/36 13/64/63
f 51/57/29 45/46/4 64/65/36
f 45/46/4 11/61/32 64/65/36
f 47/56/28 61/62/33 11/61/32
f 61/62/33 47/56/28 41/43/16
f 18/76/47 61/62/33 41/43/16
f 58/55/27 59/59/2 16/70/41
f 58/55/27 39/54/26 59/59/2
f 39/54/26 8/50/22 59/59/2
f 53/52/24 55/58/30 15/67/64
f 53/52/24 37/51/23 55/58/30
f 37/51/23 7/47/19 55/58/30
f 49/49/21 51/103/29 13/89/63
f 49/49/21 34/48/20 51/103/29
f 34/48/20 4/104/17 51/103/29
f 45/46/4 47/56/28 11/61/32
f 45/46/4 26/45/18 47/56/28
f 26/45/18 3/31/61 47/56/28
f 41/43/16 43/60/31 18/76/47
f 41/43/16 28/33/12 43/60/31
f 28/33/12 9/53/62 43/60/31
f 30/42/15 39/54/26 9/53/62
f 30/42/15 35/41/14 39/54/26
f 35/41/14 8/50/22 39/54/26
f 35/39/14 37/51/23 8/50/22
f 35/39/14 32/38/13 37/51/23
f 32/38/13 7/47/19 37/51/23
f 32/36/13 34/48/20 7/47/19
f 32/36/13 22/35/10 34/48/20
f 22/35/10 4/104/17 34/48/20
f 28/33/12 30/105/15 9/53/62
f 28/33/12 24/32/9 30/105/15
f 24/32/9 1/106/8 30/105/15
f 22/30/10 26/45/18 4/44/17
f 22/30/10 24/29/9 26/45/18
f 24/29/9 3/31/61 26/45/18
s 0
f 5/1/1 12/4/1 33/2/1
f 12/4/2 25/11/2 38/5/2
f 19/6/3 50/114/3 54/7/3
f 19/6/4 5/115/4 31/8/4
f 12/10/5 5/114/5 19/6/5
f 115/13/4 114/14/4 44/9/4
f 44/9/4 31/8/4 115/13/4
f 118/15/6 117/16/6 38/5/6
f 38/5/6 44/9/6 118/15/6
f 120/17/2 119/116/2 33/2/2
f 33/2/2 38/5/2 120/17/2
f 121/19/1 116/117/1 31/3/1
f 31/3/1 33/2/1 123/18/1
f 33/2/1 119/116/1 122/118/1
f 33/2/1 122/118/1 123/18/1
f 54/4/2 65/11/2 78/5/2
f 65/11/6 60/6/6 80/9/6
f 60/6/4 50/115/4 71/8/4
f 54/10/5 50/114/5 60/6/5
f 101/21/4 100/119/4 80/9/4
f 80/9/4 71/8/4 102/20/4
f 71/8/4 103/120/4 102/20/4
f 104/23/6 105/121/6 78/5/6
f 78/5/6 80/9/6 106/22/6
f 80/9/6 100/119/6 107/122/6
f 80/9/6 107/122/6 106/22/6
f 109/25/2 108/123/2 73/2/2
f 73/2/2 78/5/2 109/25/2
f 78/5/2 105/121/2 110/24/2
f 111/27/1 103/124/1 71/3/1
f 71/3/1 73/2/1 113/26/1
f 73/2/1 108/123/1 112/125/1
f 73/2/1 112/125/1 113/26/1
f 71/3/4 50/1/4 19/6/4
f 73/7/7 71/7/7 44/7/7
f 25/7/2 54/7/2 73/7/2
s 1
f 108/84/53 109/80/50 94/79/49
f 99/82/43 96/73/44 108/84/53
f 96/73/44 112/75/46 108/84/53
f 103/94/54 111/95/55 96/92/44
f 95/63/34 90/62/33 103/94/54
f 90/62/33 102/100/58 103/94/54
f 105/101/59 104/77/48 81/60/31
f 104/77/48 40/76/47 81/60/31
f 94/79/49 110/81/51 105/101/59
f 100/102/60 101/99/57 90/62/33
f 77/43/16 40/76/47 107/98/56
f 100/102/60 90/62/33 77/43/16
f 117/107/65 118/126/45 18/76/47
f 69/79/49 120/127/50 117/107/65
f 123/108/66 122/128/69 79/82/43
f 119/109/53 120/127/50 69/79/49
f 79/82/43 122/128/69 119/109/53
f 72/63/34 121/112/67 123/110/66
f 72/63/34 61/62/33 116/111/54
f 61/62/33 115/129/58 116/111/54
f 114/113/68 115/129/58 61/62/33
f 18/76/47 118/130/45 114/113/68
