# Blender 5.1.0
# www.blender.org
mtllib SailBoatLP.mtl
o Plane.001
v -0.705346 1.706984 0.476792
v -0.704939 2.192481 -4.448030
v -0.691914 6.137914 0.391029
v -0.711336 7.257061 -2.452050
v -0.755328 4.071577 -2.966818
v -0.624345 3.305398 -3.424687
v -0.620957 4.105758 -1.271765
v -0.606860 2.113658 -3.132113
v -0.691144 6.389793 -2.372310
v -0.619154 6.525487 -0.605766
v -0.674320 3.849589 0.313201
v -0.706272 1.960652 -0.813592
v -0.726605 5.164902 -2.482424
v -0.683802 2.038445 -2.021056
v -0.678097 2.694885 -1.069902
v -0.564406 3.090701 -2.728998
v -0.737430 4.977102 -1.792745
v -0.688639 5.359720 0.359646
v -0.689756 4.582168 -0.593157
v -0.647006 6.302840 -1.321839
v -0.619323 3.355193 -1.843275
v -0.718725 2.039368 -2.016478
v -0.653108 3.310772 -3.416193
v -0.714022 4.496204 -0.840936
v -0.651125 6.609281 -0.830111
v -0.710009 3.798634 0.319007
v -0.769525 5.120754 -2.490730
v -0.724859 5.322332 0.359756
v -0.709015 3.399980 -0.220776
v -0.770087 4.935024 -1.140897
v -0.772169 5.019356 -1.841827
v -0.605807 2.820749 -2.903796
v -0.789115 3.998932 -3.013672
v -0.685015 6.303689 -1.321337
v -0.654880 3.521712 -1.602804
v -1.521171 1.295218 -4.132316
v 0.129531 1.295218 -4.132316
v 0.129531 1.832905 -4.096004
v -1.521171 1.832905 -4.096004
v 0.129532 1.623858 -1.000560
v -1.521171 1.623858 -1.000560
v 0.205780 1.897235 -4.235294
v -1.597419 1.897235 -4.235294
v 0.205780 1.668876 -0.853885
v -1.597419 1.668875 -0.853885
v 0.205780 2.048512 -4.225078
v -1.597419 2.048512 -4.225078
v 0.205780 1.820152 -0.843669
v -1.597419 1.820152 -0.843669
v -0.448579 1.184414 1.604948
v -0.943061 1.184414 1.604948
v -0.432281 1.712871 1.057711
v -0.962192 1.732893 1.043227
v -0.403222 1.633021 2.000029
v -0.985743 1.614784 1.983829
v -0.407849 1.885719 1.046932
v -0.983790 1.885719 1.046932
v -0.428802 1.103547 -0.710335
v -0.962838 1.103547 -0.710334
v -0.428802 1.511703 -0.723803
v -0.439446 1.534541 0.168304
v -0.962838 1.511703 -0.723803
v -0.952193 1.534541 0.168304
v -0.448579 1.145977 0.775510
v -0.943061 1.145977 0.775510
v -0.439446 1.126385 0.181772
v -0.952193 1.126385 0.181772
v 0.129532 1.086171 -1.036872
v -1.521171 1.086171 -1.036872
v 0.125653 1.752716 -3.314320
v 0.126191 1.704125 -2.695370
v 0.125654 1.669097 -2.076142
v 0.125654 1.627287 -1.457052
v -1.516690 1.771347 -3.653292
v -1.517312 1.721702 -3.034364
v -1.516690 1.687728 -2.415114
v -1.515471 1.614585 -1.459566
v 0.129532 1.401130 -1.804999
v 0.129531 1.442940 -2.424087
v 0.129531 1.484749 -3.043176
v 0.129531 1.526559 -3.662265
v -1.521171 1.526559 -3.662265
v -1.521171 1.484749 -3.043176
v -1.521171 1.442940 -2.424087
v -1.521171 1.401130 -1.804998
v -1.521171 1.390094 -1.465870
v -1.521171 1.359321 -1.185910
v -1.521171 1.547669 -1.178095
v 0.129531 1.557332 -3.942225
v 0.129531 1.745681 -3.934410
v 0.129531 1.714907 -3.654450
v 0.129532 1.359321 -1.185910
v 0.129532 1.390094 -1.465870
v 0.129532 1.547669 -1.178095
v 0.129532 1.431904 -2.084959
v 0.129532 1.589479 -1.797184
v 0.129531 1.473713 -2.704048
v 0.129531 1.631288 -2.416272
v 0.129531 1.515523 -3.323137
v 0.129531 1.673098 -3.035361
v -1.521171 1.557332 -3.942225
v -1.521171 1.745681 -3.934410
v -1.521171 1.515523 -3.323137
v -1.521171 1.703871 -3.315322
v -1.521171 1.473713 -2.704048
v -1.521171 1.662062 -2.696233
v -1.521171 1.431904 -2.084959
v -1.521171 1.589479 -1.797183
v -1.521171 1.620252 -2.077144
v -1.273232 1.359321 -1.185910
v -1.273232 1.390094 -1.465870
v -1.273232 1.578443 -1.458055
v -1.273232 1.547669 -1.178095
v -0.118407 1.557332 -3.942225
v -0.118407 1.526559 -3.662265
v -0.118407 1.714907 -3.654450
v -0.118407 1.745681 -3.934410
v -0.118407 1.390094 -1.465870
v -0.118407 1.359321 -1.185910
v -0.118407 1.547669 -1.178095
v -0.118407 1.578443 -1.458055
v -0.118407 1.431904 -2.084959
v -0.118407 1.401130 -1.804999
v -0.118407 1.589479 -1.797184
v -0.118407 1.620252 -2.077144
v -0.118407 1.473713 -2.704048
v -0.118407 1.442940 -2.424087
v -0.118407 1.631288 -2.416272
v -0.118407 1.662062 -2.696233
v -0.118407 1.515523 -3.323137
v -0.118407 1.484749 -3.043176
v -0.118407 1.673098 -3.035361
v -0.118407 1.703871 -3.315322
v -1.273232 1.526559 -3.662265
v -1.273232 1.557332 -3.942225
v -1.273232 1.745681 -3.934410
v -1.273232 1.714907 -3.654450
v -1.273232 1.484749 -3.043176
v -1.273232 1.515523 -3.323137
v -1.273232 1.703871 -3.315322
v -1.273232 1.673098 -3.035361
v -1.273232 1.442940 -2.424087
v -1.273232 1.473713 -2.704048
v -1.273232 1.662062 -2.696233
v -1.273232 1.631288 -2.416272
v -1.273232 1.401130 -1.804998
v -1.273232 1.431904 -2.084959
v -1.273232 1.620252 -2.077144
v -1.273232 1.589479 -1.797184
v 0.202180 0.393582 -0.807781
v 0.760771 1.582628 2.390373
v 0.759750 1.434045 -0.999347
v -0.190960 1.891743 3.548330
v 0.760293 1.477011 0.717958
v 0.660416 1.679628 -4.746225
v -0.047529 0.622239 -4.717472
v -0.160134 1.169786 -5.576350
v 0.558271 1.822923 -5.911723
v -0.090099 1.789950 -5.950583
v 0.758317 1.071167 2.408109
v 0.704631 0.992910 -4.273710
v 0.334475 1.725334 3.204916
v 0.650830 1.342938 -4.979916
v 0.523490 1.479766 -5.594095
v -0.423349 0.436051 2.897021
v -0.600675 0.043441 -0.828891
v -0.253496 0.297273 -4.192246
v -0.521281 1.812574 3.690599
v -0.497315 0.101508 0.863307
v -1.126489 0.477661 2.830122
v -0.948599 0.051295 -0.810817
v -2.151392 1.408400 -0.673070
v -1.347538 0.423261 -4.063263
v -1.256883 1.774731 3.557229
v -1.484230 0.431133 0.973288
v -1.200632 1.091440 -5.124441
v -1.987555 1.713229 -5.078178
v -1.250843 0.560754 -4.689445
v -1.171915 1.152522 -5.546699
v -1.901289 1.806409 -5.853943
v -2.156101 1.062191 2.424348
v -1.766803 1.728726 3.209138
v -2.153453 0.848171 -0.005148
v -1.983536 1.405109 -5.063817
v -2.012524 1.163002 -4.742383
v -1.875749 1.487496 -5.571227
v -0.916469 0.463511 2.942952
v -0.647326 0.244327 -4.100527
v -0.932255 0.089624 0.479459
v -0.478603 1.947870 3.663673
v -1.200845 1.914397 3.585094
v -0.929848 1.954680 3.693142
v -0.631234 1.949307 3.856263
v -0.782851 1.948379 3.870636
v -0.881608 1.825438 3.717578
v -0.784373 1.860289 3.862613
v -0.633675 1.879484 3.865013
v -0.702000 2.381770 4.771727
v 0.681548 1.600904 2.182253
v 0.649811 1.614821 -3.782614
v 0.285098 1.749671 2.940505
v 0.507715 1.827591 -5.590949
v -2.081605 1.609954 2.158156
v -1.714145 1.742171 2.944176
v -2.071901 1.431476 -0.748286
v -1.932232 1.716575 -4.740085
v -1.885017 1.831633 -5.490943
v -0.226191 1.908790 3.289923
v -1.075582 1.939250 3.358707
v -0.701412 1.948142 3.511239
v 0.678273 1.205735 0.480026
v 0.677907 1.307675 2.194538
v 0.677896 1.162474 -1.081502
v 0.273987 1.477106 2.947794
v 0.598171 1.412290 -4.554152
v 0.517165 1.552109 -5.601498
v -2.081090 1.314018 2.179363
v -2.074063 1.153039 -0.996365
v -1.716962 1.456210 2.931830
v -1.934975 1.419083 -4.714274
v -1.889406 1.540574 -5.505095
v -0.260888 1.640641 3.303463
v -0.633240 1.674084 3.480482
v -0.797428 1.682983 3.478393
v -1.196046 1.620547 3.297183
v -1.525481 1.154146 -1.046672
v 0.096516 1.378576 -4.158450
v -1.437081 1.373011 -4.156299
v 0.126110 1.141732 -1.041353
v -0.750611 1.168237 0.552941
v -0.345688 1.264496 2.138365
v -1.045315 1.267239 2.125430
v -0.434120 0.235688 2.108676
v -2.159720 1.583762 2.374531
v -0.777196 0.250666 2.129234
v -0.454533 1.212382 1.627205
v -0.950683 1.220458 1.623521
v 0.270455 0.491434 0.582772
v 0.758921 0.892058 0.780582
v -0.292372 0.104609 -0.301220
v -1.739277 0.528662 -0.339172
v 0.761553 0.830314 -1.581313
v -0.433520 1.142889 -0.713954
v -0.968148 1.151520 -0.715771
v -0.453365 1.169749 0.787375
v -0.948970 1.176505 0.785511
v -0.444167 1.152323 0.186659
v -0.957528 1.160174 0.185429
v -0.639474 6.072960 0.374214
v -0.751172 6.140903 0.372417
v -0.639454 6.208631 0.371635
v -0.644528 6.827797 0.496430
v -0.639448 6.824746 0.360017
v -0.606928 6.866168 0.544681
v -0.750341 6.834926 0.508738
v -0.597766 6.861868 0.309198
v -0.768757 6.839182 0.341524
v -0.770480 7.021837 0.317785
v -0.640034 7.026942 0.510987
v -0.782238 7.025422 0.507261
v -0.617913 7.023518 0.350686
v -0.747151 7.833498 0.475555
v -0.642904 7.840248 0.479479
v -0.637188 7.834641 0.339800
v -0.749909 8.068206 0.472297
v -0.638140 8.064213 0.341047
v -0.648583 8.066363 0.470048
v -0.748062 8.064283 0.333885
v -0.653440 9.588428 0.440070
v -0.747546 7.315664 -2.310528
v -0.734129 9.588452 0.440711
v -0.657637 9.586519 0.335806
v -0.739482 9.586432 0.331510
v -0.744460 7.210938 -2.377392
v -0.643218 7.210629 -2.377498
v -0.645530 7.311601 -2.313005
v -0.695754 9.864059 0.425068
v -0.662695 9.862438 0.337813
v -0.728809 9.862442 0.337814
v -0.663926 7.324691 -2.602897
v -0.737326 7.418413 -2.550782
v -0.653466 7.418406 -2.550792
v -0.054074 0.275557 -2.892529
v -0.166436 0.413245 -4.439833
v -0.113744 1.117667 -5.148025
v -0.509631 0.088734 -2.761336
v -0.432691 1.024588 3.251666
v -2.136387 1.604422 -2.667160
v -1.459000 0.343700 -2.865384
v -1.957259 1.827708 -5.714399
v -2.131576 0.913852 -2.572291
v -2.043227 1.008688 -4.320785
v -0.987587 0.114862 -2.641800
v -2.058819 1.619424 -2.598976
v -0.792002 1.790002 -5.630166
v 0.667791 1.243355 -2.685287
v -2.059595 1.329696 -2.658229
v -0.437893 1.458217 -4.979842
v 0.122681 1.238090 -2.599254
v -1.515040 1.300547 -2.610701
v 0.680416 1.461348 -0.699254
v -0.752809 7.835758 0.337198
v -0.757400 1.158105 0.417878
v -0.644233 1.159650 0.432532
v -0.532261 2.432665 4.780822
v 0.239359 2.510751 1.397350
v -0.183221 4.801360 3.361587
v -0.152570 8.050886 0.782510
v 0.083259 2.999255 3.051926
v 0.108164 6.509876 2.017584
v -0.351264 3.529247 4.111100
v 0.173527 2.858013 2.569248
v -0.178573 8.055522 0.775535
v 0.081617 5.930932 2.483135
v -0.011525 2.891498 3.458326
v 0.130068 4.802152 2.314270
v -0.036145 4.259089 3.098411
v 0.200274 4.024041 2.191186
v 0.273358 4.814950 1.420727
v 0.127505 5.866283 1.860857
v 0.253224 5.428791 1.421622
v 0.052624 5.924215 2.476785
v 0.100467 4.800161 2.309333
v -0.064871 4.257197 3.089833
v 0.156531 3.990643 2.268542
v 0.097454 5.864966 1.858860
v -0.753702 2.540800 4.666198
v -1.633367 2.510926 1.412833
v -1.268076 8.050619 0.778694
v -1.396411 2.992636 3.077546
v -1.466854 6.511255 2.024516
v -1.663493 5.368814 1.448039
v -1.499335 2.868045 2.612795
v -1.417098 5.933439 2.488072
v -1.473943 4.802068 2.322427
v -1.539007 3.932519 2.265313
v -1.258450 4.214969 3.133409
v -1.103881 4.781016 3.364253
v -1.493986 5.866314 1.869463
v -1.639110 5.270358 1.441370
v -1.388173 5.923654 2.481572
v -1.242681 8.052581 0.772550
v -1.444625 4.800088 2.316018
v -1.230276 4.212996 3.123180
v -1.520627 4.022029 2.197889
v -1.464073 5.864993 1.865967
v -0.864736 0.406801 0.965628
v -0.836168 0.418931 0.957205
v -0.831379 0.400084 0.982817
v -0.854375 0.395226 0.983272
v -1.406852 3.028969 3.062648
v -1.386847 3.015387 3.083849
v -1.409845 3.002040 3.092318
v -1.424304 3.012085 3.076744
v -0.454512 0.415419 0.963713
v -0.418954 0.410154 0.961485
v -0.437973 0.393916 0.987402
v 0.113653 3.028968 3.065643
v 0.139442 3.018689 3.069830
v 0.135923 3.003836 3.087708
v 0.108552 3.008723 3.090102
v -0.713998 6.574296 -0.454878
v -0.695038 6.575298 -0.456668
v -0.704652 6.568131 -0.444008
v -0.716387 7.992247 0.389780
v -0.707722 7.983991 0.402461
v -0.726510 7.985472 0.399534
v -0.707469 6.951966 -1.484120
v -0.686412 6.949739 -1.480783
v -0.683589 6.937949 -1.463105
v -0.712692 6.935964 -1.460108
v -0.726522 9.494757 0.291966
v -0.704132 9.483568 0.307244
v -0.722605 9.472549 0.320843
v -0.738844 9.480849 0.309577
v -0.700153 6.959964 -1.379657
v -0.695112 6.943066 -1.369491
v -0.714711 6.947781 -1.372311
v -0.717572 7.912446 0.290231
v -0.709486 7.894101 0.299794
v -0.727419 7.896535 0.298128
v -0.710032 6.429766 -0.162486
v -0.705627 6.424385 -0.156547
v -0.715505 6.960459 0.340516
v -0.711094 6.954752 0.346139
v -0.706680 6.741742 -0.816861
v -0.694370 6.733130 -0.807338
v -0.711645 6.730297 -0.804180
v -0.716581 7.961605 0.338302
v -0.708460 7.950352 0.349366
v -0.724203 7.948631 0.350563
v -0.692479 2.363734 4.787644
v -0.694993 2.363606 4.789246
v -0.774001 2.552976 4.667383
v -0.772349 2.551992 4.665102
v -0.692893 2.376644 4.783105
v -0.690603 2.374987 4.785719
v -0.457553 2.548819 4.684792
v -0.458050 2.547169 4.681349
v -0.761252 1.231937 0.439348
v -0.773684 1.220472 0.444067
v -0.775737 1.232046 0.426117
v -1.650215 2.536261 1.417415
v -1.637302 2.539191 1.424951
v -1.640677 2.528243 1.434995
v -1.653589 2.525310 1.427456
v -0.597352 1.235632 0.428200
v -0.585176 1.220827 0.437844
v -0.602534 1.228209 0.443244
v 0.270654 2.538238 1.427340
v 0.289282 2.532271 1.418520
v 0.280180 2.525314 1.434446
v -0.749541 9.598011 0.400917
v -0.739102 9.593979 0.387308
v -0.757922 9.593847 0.381524
v -1.272946 8.056095 0.781482
v -1.252695 8.049771 0.785167
v -1.260357 8.046715 0.769599
v -0.628425 9.598012 0.400917
v -0.620045 9.593850 0.381524
v -0.638863 9.593980 0.387309
v -0.106006 8.052580 0.773329
v -0.122337 8.046019 0.772508
v -0.119261 8.054008 0.790238
v -0.709344 1.459923 -5.361166
v -0.698307 1.456553 -5.358128
v -0.709949 1.450045 -5.352229
v -0.711470 2.284816 -4.405766
v -0.709871 2.275530 -4.398444
v -0.723302 2.279815 -4.402182
v -0.696941 7.201133 -2.341696
v -0.688245 7.188696 -2.330442
v -0.705000 7.187033 -2.328923
v -0.716036 9.535413 0.367192
v -0.718854 9.522271 0.377448
v -0.735319 9.529341 0.371464
v -0.731646 9.536638 0.365818
v -0.712507 9.528559 0.372679
v -0.725752 9.527749 0.372935
v -0.691139 8.800197 -0.550324
v -0.702538 8.275423 -1.152956
v -0.700296 8.397922 -0.985272
v -0.694065 7.200609 -2.341225
v -0.688216 7.189624 -2.331286
v -0.706565 7.187858 -2.329672
v -0.712949 2.302029 -4.419385
v -0.715367 2.273586 -4.397051
v -0.703495 2.288514 -4.408527
v -0.709987 1.984558 -4.758981
v -0.710510 1.460647 -5.361831
v -0.698732 1.454039 -5.355858
v -0.708343 1.449946 -5.352145
v -0.113616 8.047643 0.767963
v -0.123962 8.051160 0.787464
v -0.105675 8.056999 0.784527
v -0.225080 8.325215 0.671011
v -0.241408 8.315269 0.679180
v -0.438222 8.716013 0.579794
v -0.457825 8.712811 0.567514
v -0.493361 8.819394 0.569287
v -0.581900 9.174626 0.476748
v -0.585036 9.112645 0.507813
v -0.632038 9.597040 0.397739
v -0.617336 9.596073 0.389627
v -0.633335 9.592591 0.379927
v -1.272291 8.056999 0.784527
v -1.254004 8.051160 0.787464
v -1.264349 8.047643 0.767963
v -1.152882 8.325224 0.671008
v -1.136554 8.315278 0.679178
v -0.939743 8.716016 0.579793
v -0.920143 8.712807 0.567515
v -0.884603 8.819400 0.569286
v -0.792930 9.112644 0.507813
v -0.745927 9.597040 0.397739
v -0.796067 9.174623 0.476749
v -0.760630 9.596073 0.389626
v -0.744630 9.592591 0.379927
v 0.280405 2.541972 1.414566
v 0.285869 2.526251 1.428484
v 0.273489 2.532664 1.431458
v -0.082978 2.036668 1.014916
v -0.118870 1.948831 0.968275
v -0.137953 1.924357 0.926159
v -0.604619 1.234296 0.436634
v -0.585643 1.226479 0.430383
v -0.592947 1.221122 0.444456
v -1.651233 2.535520 1.417416
v -1.632163 2.542204 1.425733
v -1.648114 2.523621 1.434129
v -1.324780 2.067110 1.055537
v -1.390728 2.172274 1.112745
v -0.767873 1.237362 0.425782
v -0.777276 1.219526 0.442153
v -0.760860 1.232725 0.438585
v -0.505402 2.466005 4.672429
v -0.505061 2.460721 4.669223
v -0.504078 2.463387 4.674272
v -0.701924 2.369593 4.790429
v -0.701915 2.368384 4.788683
v -0.701215 2.366733 4.790593
v -0.772735 2.554919 4.669430
v -0.775039 2.553799 4.669240
v -0.773076 2.553408 4.667559
v -0.693122 2.364514 4.789325
v -0.695066 2.363101 4.788345
v -0.692769 2.363530 4.787471
v -0.725173 7.958014 0.341525
v -0.717011 7.946254 0.353065
v -0.709381 7.962318 0.337833
v -0.712060 7.480184 -0.143463
v -0.694598 7.385196 -0.224284
v -0.708486 7.509482 -0.093150
v -0.713781 6.735045 -0.809439
v -0.701307 6.741806 -0.816927
v -0.698829 6.729455 -0.803274
v -0.714073 6.965429 0.335724
v -0.704728 6.965318 0.336106
v -0.713582 6.960612 0.340343
v -0.710730 6.429421 -0.162105
v -0.703692 6.426414 -0.158786
v -0.709544 6.424384 -0.156537
v -0.706272 7.901606 0.296043
v -0.715248 7.895179 0.299091
v -0.711769 7.553393 -0.383479
v -0.694511 7.599804 -0.295905
v -0.726916 7.905765 0.293441
v -0.703434 6.947312 -1.372028
v -0.710810 6.959560 -1.379404
v -0.692556 6.948333 -1.372669
v -0.736660 9.486052 0.302902
v -0.708650 9.493836 0.293783
v -0.718525 9.475059 0.317771
v -0.701079 8.497105 -0.458669
v -0.684171 8.648308 -0.331203
v -0.708203 8.322382 -0.530087
v -0.715171 6.946709 -1.476210
v -0.678679 6.946439 -1.475847
v -0.706636 6.933854 -1.456902
v -0.719037 7.992443 0.389362
v -0.707309 7.985042 0.400915
v -0.723881 7.983052 0.403270
v -0.710284 7.534059 0.089446
v -0.706824 7.469870 0.073184
v -0.695182 7.345506 -0.015086
v -0.699305 6.568698 -0.445043
v -0.695750 6.575125 -0.456328
v -0.714066 6.573575 -0.453581
v 0.131059 3.026364 3.063553
v 0.137011 3.002866 3.088490
v -0.097808 2.127581 2.283113
v -0.091323 2.063630 2.269121
v 0.100273 3.018059 3.081889
v -0.224662 1.586031 1.895423
v -0.420416 0.395042 0.981450
v -0.457317 0.407424 0.974796
v -0.427093 0.416672 0.955113
v -1.423557 3.019138 3.068958
v -1.390091 3.024500 3.072572
v -1.396139 3.004681 3.093310
v -1.166280 2.125074 2.293770
v -1.199356 2.145850 2.353378
v -1.165228 1.985135 2.171065
v -0.862100 0.410699 0.961242
v -0.823044 0.412719 0.968568
v -0.855555 0.397207 0.980399
vn 0.9984 0.0568 0.0026
vn 0.7203 -0.0366 0.6927
vn 0.7722 -0.0028 0.6353
vn 0.9998 0.0143 0.0109
vn 0.7291 0.3429 -0.5923
vn 0.9985 0.0536 -0.0073
vn 0.9990 -0.0365 0.0261
vn -0.0136 -0.9239 0.3825
vn 0.3925 -0.9184 -0.0502
vn 0.9953 -0.0652 0.0710
vn 0.9986 0.0534 0.0025
vn 0.9982 0.0457 -0.0376
vn 0.9998 -0.0061 -0.0201
vn 0.7122 0.6581 0.2442
vn 0.0149 0.9288 0.3704
vn -0.0414 0.9940 -0.1010
vn -1.0000 -0.0005 -0.0094
vn -0.9990 -0.0437 0.0063
vn -0.9990 0.0234 -0.0371
vn -0.6985 -0.0085 0.7156
vn -0.6885 0.0378 0.7242
vn -0.6582 -0.7479 -0.0866
vn -0.9999 -0.0146 -0.0058
vn 0.0419 -0.9136 -0.4044
vn -0.9948 -0.0926 0.0433
vn -0.9998 -0.0009 0.0218
vn -0.7315 0.2743 -0.6242
vn -0.3947 0.4871 -0.7791
vn -0.9949 -0.0739 0.0688
vn -0.9982 0.0516 0.0297
vn -0.9991 -0.0405 0.0119
vn -0.9998 0.0200 0.0054
vn -0.9907 -0.1357 -0.0134
vn -0.9978 -0.0445 0.0495
vn -0.9980 0.0526 -0.0345
vn -0.7959 0.2296 -0.5602
vn 0.7491 0.0773 -0.6579
vn -0.0261 0.5679 0.8227
vn -0.0000 -0.9940 -0.1093
vn 0.3255 -0.9136 -0.2437
vn -0.2146 -0.9211 -0.3247
vn 0.2134 -0.9235 -0.3188
vn -0.3012 -0.9177 -0.2589
vn 0.7071 -0.0476 0.7055
vn 0.5168 -0.7655 0.3834
vn -0.7071 -0.0476 0.7055
vn -0.0000 0.0674 -0.9977
vn 0.6996 0.0502 -0.7127
vn 0.7071 0.0476 -0.7055
vn -0.0000 0.9940 0.1093
vn -0.5774 0.5371 0.6149
vn -0.4969 -0.7740 0.3924
vn -0.2152 -0.9557 0.2007
vn -0.7806 -0.6237 -0.0403
vn 0.6970 -0.7147 -0.0572
vn -0.7071 0.0476 -0.7055
vn 0.5773 0.6149 -0.5371
vn 0.0180 0.4326 -0.9014
vn 0.0250 0.1791 -0.9835
vn -0.0000 0.4456 -0.8952
vn -0.9982 -0.0566 -0.0213
vn -0.9956 -0.0897 -0.0255
vn -0.9994 -0.0333 0.0015
vn -0.0001 -0.6608 0.7505
vn -0.0359 0.3025 0.9525
vn -0.0000 -0.6608 0.7506
vn 0.9982 -0.0550 -0.0234
vn 0.9956 -0.0897 -0.0263
vn 0.9961 -0.0804 -0.0375
vn -0.0128 0.9646 0.2636
vn -0.0243 0.3306 0.9435
vn -0.0000 0.9666 0.2563
vn -0.9963 -0.0790 -0.0349
vn -0.9894 -0.1388 -0.0422
vn 0.0217 0.2022 -0.9791
vn 0.0201 -0.0488 -0.9986
vn -0.0000 -0.0330 -0.9995
vn -0.0000 0.9997 -0.0256
vn -0.0000 0.0330 0.9995
vn 0.9999 0.0004 0.0119
vn -0.9999 0.0004 0.0119
vn 0.8485 -0.4600 0.2616
vn 0.2142 -0.9570 0.1955
vn 0.8826 -0.3854 0.2691
vn -0.6696 -0.7406 -0.0555
vn -0.8082 -0.5880 -0.0320
vn 0.5774 0.5371 0.6149
vn 0.0019 -0.0396 0.9992
vn 0.9481 -0.0073 0.3179
vn -0.9510 0.0158 -0.3088
vn -0.0000 0.0415 -0.9991
vn 0.9507 0.0148 -0.3099
vn 0.9449 0.0501 -0.3234
vn -0.0000 -0.0415 0.9991
vn 0.0882 -0.9786 -0.1857
vn 0.1053 -0.9740 -0.2004
vn 0.1899 -0.9434 -0.2719
vn -0.9663 -0.2571 -0.0098
vn -0.1061 -0.9942 -0.0153
vn -0.2825 -0.9571 0.0646
vn -0.9512 0.0170 -0.3082
vn -0.9510 0.0165 -0.3086
vn -1.0000 -0.0000 -0.0000
vn 0.9506 0.0146 -0.3101
vn -0.9487 -0.0025 0.3161
vn -0.9998 0.0168 -0.0072
vn 1.0000 -0.0000 -0.0000
vn 0.7611 -0.0150 0.6485
vn 1.0000 0.0076 0.0035
vn 0.9486 0.0439 -0.3134
vn 0.9482 -0.0065 0.3176
vn 0.9999 0.0107 -0.0046
vn 0.8487 -0.4601 0.2609
vn 0.9482 -0.0066 0.3176
vn 0.9444 0.0506 -0.3250
vn 0.9442 0.0504 -0.3256
vn -1.0000 0.0060 0.0032
vn -0.9542 -0.2991 0.0019
vn -1.0000 0.0026 -0.0026
vn -0.7444 0.0401 -0.6666
vn -1.0000 0.0022 -0.0023
vn -0.7432 0.0394 -0.6679
vn -0.9664 -0.2572 -0.0053
vn -0.7460 -0.0000 0.6659
vn -0.9972 0.0747 0.0018
vn -0.9484 0.0683 -0.3095
vn -0.7452 0.0412 -0.6655
vn 0.0763 -0.9815 -0.1754
vn 0.0910 -0.9779 -0.1881
vn 0.1649 -0.9539 -0.2509
vn 0.0024 0.0390 -0.9992
vn -0.1229 -0.9924 -0.0003
vn -0.3571 -0.9297 0.0906
vn 0.0021 -0.0393 0.9992
vn -0.3128 -0.9454 0.0913
vn -0.0048 -0.0351 0.9994
vn 0.1054 -0.9740 -0.2004
vn -0.0793 -0.9830 -0.1655
vn -0.0656 -0.9820 -0.1770
vn -0.0000 -0.9729 -0.2313
vn 0.0021 0.0393 -0.9992
vn 0.5185 -0.8520 -0.0726
vn 0.5406 -0.8357 -0.0969
vn 0.9589 -0.2786 -0.0543
vn 0.1486 -0.8442 -0.5150
vn 0.0022 0.4502 -0.8929
vn 0.0775 -0.5215 -0.8497
vn 0.5612 -0.8254 0.0619
vn 0.6181 -0.7837 0.0611
vn 0.5544 -0.8209 0.1371
vn 0.9913 -0.1285 -0.0278
vn 0.9963 0.0196 -0.0834
vn 0.1878 -0.9820 0.0182
vn 0.1962 -0.9801 -0.0291
vn 0.3726 -0.9276 -0.0269
vn -0.9134 -0.3995 -0.0788
vn -0.6019 -0.7938 -0.0872
vn -0.5409 -0.8344 -0.1057
vn -0.8352 0.5331 0.1351
vn -0.8219 0.5695 -0.0138
vn -1.0000 -0.0017 -0.0039
vn -0.3668 -0.8372 -0.4056
vn -0.1879 -0.8361 -0.5154
vn -0.2679 -0.8011 -0.5352
vn -0.9028 0.4292 -0.0280
vn -0.9710 -0.2021 -0.1277
vn -0.9603 -0.1554 -0.2316
vn -0.7200 0.6940 -0.0083
vn -0.8743 -0.4588 -0.1584
vn -0.5636 -0.8261 0.0013
vn -0.5999 -0.7995 0.0321
vn -0.6107 -0.7917 0.0150
vn -0.0559 -0.9641 -0.2595
vn -0.3563 -0.9083 -0.2192
vn 0.1059 -0.7042 -0.7021
vn -0.3720 -0.4477 0.8132
vn -0.1750 -0.7627 0.6226
vn 0.2739 -0.4838 0.8312
vn 0.8061 0.5870 0.0745
vn 0.6147 0.7849 0.0774
vn 0.4826 0.8736 0.0621
vn -0.0231 0.9162 0.4000
vn -0.6914 0.7184 0.0763
vn -0.2545 0.8264 -0.5023
vn -0.7837 0.0153 -0.6210
vn -0.1493 0.7723 -0.6174
vn 0.9777 -0.0097 -0.2099
vn 0.4327 0.8722 -0.2280
vn 0.2651 0.8202 -0.5069
vn 0.9015 0.4297 0.0514
vn 0.7185 0.6917 0.0729
vn 0.4445 0.8912 0.0904
vn -0.5590 0.5111 0.6529
vn -0.7089 0.6942 0.1247
vn 0.6530 0.7480 0.1192
vn -0.2019 0.9781 0.0509
vn -0.4499 0.8582 -0.2470
vn -0.7430 0.6144 -0.2655
vn 0.0079 0.9748 -0.2231
vn -0.0155 0.9802 -0.1976
vn -0.0332 0.9965 -0.0761
vn 0.9215 -0.0176 -0.3881
vn 0.8092 -0.2502 -0.5316
vn 0.6074 -0.5812 0.5415
vn -0.9038 0.4266 0.0342
vn -0.0329 0.9991 -0.0256
vn -0.7097 0.7045 0.0100
vn 0.0386 0.9986 -0.0352
vn 0.0377 0.9867 -0.1579
vn 0.1680 0.9840 -0.0593
vn -0.3704 -0.9218 0.1140
vn -0.4389 -0.7735 0.4572
vn -0.5185 -0.8508 0.0856
vn 0.6448 0.7627 0.0499
vn -0.0462 -0.9952 0.0863
vn -0.2638 -0.9628 0.0582
vn 0.0892 -0.9960 -0.0011
vn -0.0240 0.9990 -0.0383
vn -0.0349 0.9992 -0.0183
vn 0.0121 0.9993 -0.0350
vn 0.7697 0.6378 -0.0283
vn 0.0099 1.0000 0.0004
vn -0.2044 0.9032 0.3774
vn -0.6567 -0.1034 0.7470
vn -0.9089 -0.0804 -0.4092
vn -0.7085 0.0039 -0.7057
vn 0.7247 0.0074 -0.6891
vn 0.8163 0.1567 -0.5560
vn 0.6788 0.0325 0.7336
vn 0.6101 0.1203 0.7832
vn -0.7064 0.0225 -0.7075
vn 0.7211 0.0520 -0.6909
vn 0.7531 0.0049 -0.6578
vn 0.7085 -0.6340 -0.3098
vn 0.7220 0.6398 0.2633
vn 0.9144 0.2832 -0.2891
vn 0.5893 0.7570 -0.2823
vn -0.6614 0.6520 -0.3707
vn -0.7061 0.6563 0.2657
vn -0.6862 0.0482 0.7259
vn 0.0353 0.6454 0.7630
vn -0.6385 0.5940 -0.4895
vn -0.6961 -0.6353 -0.3346
vn 0.2363 -0.3309 -0.9136
vn 0.6779 0.5628 -0.4729
vn 0.6860 0.0322 0.7269
vn 0.7317 0.0845 0.6764
vn -0.7053 0.0262 0.7084
vn -0.6758 0.0046 -0.7371
vn -0.7056 0.0229 0.7082
vn -0.6331 0.0401 -0.7730
vn 0.5841 -0.2686 0.7660
vn -0.7422 -0.0014 0.6702
vn 0.6517 -0.3434 -0.6763
vn -0.7436 -0.1661 -0.6477
vn -0.6397 0.2493 -0.7271
vn -0.0435 0.9964 -0.0726
vn 1.0000 -0.0019 0.0003
vn 0.9999 0.0082 -0.0060
vn 0.8822 0.4703 -0.0238
vn 0.6043 -0.7966 -0.0122
vn 0.4369 0.8989 0.0333
vn -0.6123 0.7905 -0.0137
vn 0.0094 0.9999 -0.0052
vn -0.0053 1.0000 0.0027
vn 0.0202 0.9995 -0.0251
vn -0.0024 1.0000 -0.0038
vn 0.2551 -0.9520 0.1692
vn 0.2813 -0.7783 0.5613
vn -0.5783 -0.7370 0.3499
vn -0.0876 -0.9802 0.1774
vn 0.8281 0.5406 0.1485
vn 0.0381 0.9887 -0.1448
vn 0.1881 0.5515 -0.8127
vn -0.1642 0.5714 -0.8041
vn -0.1165 0.8922 -0.4363
vn -0.4735 0.1144 -0.8733
vn 0.1578 0.9656 -0.2067
vn 0.2349 0.9677 -0.0917
vn 0.4470 0.7117 -0.5420
vn 0.5282 0.0908 -0.8443
vn -0.2665 0.9624 -0.0529
vn 0.1318 0.8261 -0.5479
vn 0.0044 0.9959 0.0898
vn -0.1323 0.9867 0.0941
vn -0.0032 0.9919 0.1267
vn 0.0153 0.9974 0.0707
vn 0.0030 0.9956 0.0941
vn 0.5797 0.5147 0.6317
vn 0.0150 0.9945 0.1034
vn 0.0451 0.9946 0.0934
vn 0.0475 0.9978 0.0467
vn 0.0535 0.5941 -0.8026
vn 0.1635 0.7572 -0.6324
vn 0.5337 0.4896 0.6895
vn 0.3988 0.7755 0.4895
vn 0.0340 0.9994 -0.0093
vn 0.6669 0.7378 0.1046
vn -0.0674 0.9720 -0.2249
vn -0.0063 1.0000 -0.0021
vn -0.7420 0.6233 -0.2468
vn 0.6972 0.3608 0.6195
vn -0.7136 0.3464 0.6089
vn -0.4436 0.6544 0.6124
vn -0.8811 0.4713 0.0397
vn -0.0035 0.9821 -0.1884
vn -0.0540 -0.1736 -0.9833
vn -0.8174 0.5640 0.1173
vn 0.0091 0.4621 0.8868
vn 0.4049 -0.4032 0.8207
vn 0.7839 -0.3681 0.5000
vn -0.6598 -0.4738 0.5832
vn -0.3769 0.7665 0.5200
vn -0.0551 -0.9924 -0.1096
vn 0.1791 -0.9391 -0.2932
vn -0.2864 -0.9581 -0.0018
vn 0.2207 -0.8592 -0.4616
vn -0.1338 -0.9839 -0.1185
vn -0.2605 -0.9651 -0.0280
vn -0.4280 -0.9035 -0.0223
vn -0.9999 -0.0079 -0.0084
vn -0.4652 -0.2324 0.8542
vn -0.8566 -0.4120 -0.3107
vn -0.6204 0.5192 -0.5879
vn -0.3935 -0.6273 -0.6721
vn -0.2841 -0.6487 -0.7061
vn -0.3902 -0.8974 -0.2058
vn -0.9725 -0.0479 0.2281
vn 0.2033 -0.8501 -0.4857
vn -0.1492 -0.8481 -0.5084
vn 0.5125 -0.8581 0.0309
vn 0.5190 -0.4816 0.7062
vn 0.6888 -0.6092 -0.3930
vn 0.7238 -0.5068 -0.4682
vn 0.9068 -0.3018 -0.2944
vn 0.5799 -0.7324 -0.3568
vn 0.4923 -0.7716 -0.4028
vn 0.5832 -0.7093 -0.3960
vn 0.9842 0.0017 0.1769
vn 0.1521 0.0185 -0.9882
vn -0.7652 -0.0242 -0.6433
vn 0.9959 -0.0034 0.0902
vn 0.9791 0.0575 0.1952
vn 0.9813 0.0596 0.1828
vn 0.9781 0.0566 0.2003
vn 0.8708 -0.4719 0.1379
vn 0.9474 0.0801 0.3100
vn -0.3401 0.5313 0.7759
vn 0.9778 0.0242 0.2080
vn -0.3361 0.4290 0.8384
vn 0.5589 0.4930 0.6668
vn 0.5739 0.7774 -0.2575
vn 0.1522 0.4778 0.8652
vn 0.9939 0.0851 0.0706
vn 0.9863 0.0666 0.1507
vn 0.2706 -0.3586 -0.8934
vn -0.9935 -0.0081 -0.1132
vn -0.9778 -0.0576 -0.2013
vn -0.9827 -0.0592 -0.1757
vn -0.9840 -0.0597 -0.1676
vn -0.9403 -0.0883 -0.3288
vn -0.2833 -0.5167 0.8079
vn -0.9531 -0.0735 -0.2935
vn -0.9753 -0.0301 -0.2190
vn -0.8118 0.4181 0.4076
vn -0.5113 0.7405 -0.4361
vn -0.9951 -0.0798 -0.0588
vn -0.9839 -0.0721 -0.1638
vn -0.0719 0.9878 0.1383
vn -0.9680 0.0564 0.2443
vn -0.9826 0.0237 0.1843
vn -0.9700 0.0571 0.2363
vn -0.0220 -0.9713 0.2370
vn -0.0584 -0.8683 -0.4926
vn 0.3824 0.4340 0.8157
vn -0.9300 0.0798 0.3588
vn 0.2501 -0.6371 0.7291
vn -0.5128 0.4983 0.6991
vn -0.9644 0.0265 0.2630
vn -0.1092 0.4772 0.8720
vn -0.5432 0.7964 -0.2657
vn -0.9873 0.0910 0.1298
vn -0.9720 0.0763 0.2223
vn -0.9682 0.0838 0.2357
vn 0.9832 -0.0348 -0.1794
vn 0.9695 -0.0586 -0.2381
vn 0.9753 -0.0631 -0.2116
vn 0.9350 -0.0780 -0.3460
vn 0.9624 -0.0315 -0.2697
vn 0.8407 0.4101 0.3535
vn 0.5301 0.7206 -0.4469
vn 0.9976 -0.0171 -0.0677
vn 0.9764 -0.0687 -0.2048
vn 0.5140 0.0062 -0.8578
vn 0.9554 -0.2037 -0.2140
vn 0.6887 0.2174 -0.6916
vn -0.1537 0.7821 0.6039
vn -0.1534 0.7825 0.6034
vn -0.1539 0.7819 0.6041
vn -0.1882 0.7366 0.6496
vn -0.1882 0.7365 0.6498
vn -0.1881 0.7367 0.6495
vn -0.1537 -0.7827 -0.6032
vn 0.1883 0.7369 0.6492
vn 0.1884 0.7369 0.6492
vn 0.0006 0.8700 0.4930
vn -0.0210 0.8313 0.5554
vn 0.0003 0.8321 0.5547
vn 0.0004 0.8320 0.5548
vn 0.0001 0.8321 0.5546
vn -0.0209 0.7911 0.6113
vn -0.0208 0.7904 0.6122
vn -0.0210 0.7917 0.6106
vn 0.0008 0.5157 0.8568
vn -0.0210 0.4548 0.8903
vn 0.0008 0.7422 0.6702
vn -0.0210 0.6932 0.7204
vn -0.4663 0.7182 0.5165
vn -0.4823 0.6682 0.5665
vn -0.4825 0.6681 0.5665
vn -0.4822 0.6683 0.5664
vn -0.4661 -0.7191 -0.5154
vn 0.4824 0.6675 0.5672
vn 0.0660 0.9694 -0.2366
vn 0.3360 0.8791 -0.3379
vn -0.0660 0.9694 -0.2365
vn -0.3362 0.8791 -0.3378
vn -0.0006 -0.6709 -0.7415
vn 0.0223 -0.6167 -0.7869
vn 0.0006 0.6712 0.7413
vn -0.0204 0.6178 0.7860
vn 0.6472 0.5926 -0.4795
vn -0.6913 0.5741 -0.4387
vn 0.9759 -0.1599 0.1488
vn -0.4239 0.6777 -0.6009
vn -0.2951 -0.7231 0.6245
vn -0.4895 -0.6846 0.5401
vn 0.8623 -0.3764 0.3386
vn -0.8595 -0.3850 0.3362
vn 0.1278 0.7334 -0.6677
vn -0.1982 0.7239 -0.6609
vn -0.7794 -0.4711 0.4130
vn -0.3072 -0.7459 0.5910
vn 0.9982 -0.0359 0.0474
vn 0.9998 -0.0200 0.0044
vn -0.5063 0.6488 -0.5681
vn -0.4343 -0.6697 0.6024
vn 0.0758 -0.3518 -0.9330
vn 0.6882 0.1291 -0.7139
vn 0.7842 0.4941 0.3753
vn -0.3818 0.0943 0.9194
vn -0.7828 -0.0960 0.6148
vn 0.8705 0.3285 -0.3665
vn -0.5827 -0.5168 -0.6272
vn -0.5469 0.0089 0.8372
vn -0.2253 -0.2277 -0.9473
vn -0.4745 0.1320 0.8703
vn 0.9954 0.0904 0.0324
vn -0.5287 -0.2268 -0.8179
vn -0.8933 -0.1170 0.4339
vn -0.0758 -0.3518 -0.9330
vn 0.3818 0.0943 0.9194
vn 0.7828 -0.0960 0.6149
vn -0.6882 0.1291 -0.7139
vn -0.7842 0.4941 0.3753
vn -0.8705 0.3285 -0.3665
vn 0.5827 -0.5168 -0.6272
vn 0.5469 0.0089 0.8372
vn 0.2253 -0.2277 -0.9473
vn 0.4745 0.1320 0.8703
vn -0.9954 0.0904 0.0324
vn 0.5288 -0.2268 -0.8179
vn 0.8933 -0.1170 0.4339
vn 0.0461 0.6305 -0.7748
vn -0.7930 0.6026 -0.0895
vn -0.7538 0.0165 0.6569
vn 0.5761 0.2003 -0.7925
vn 0.6840 -0.6783 0.2686
vn 0.2299 -0.6834 0.6929
vn 0.7564 -0.0303 -0.6534
vn -0.8190 0.5702 -0.0642
vn -0.1942 0.4696 -0.8613
vn -0.6425 0.1706 -0.7470
vn 0.8232 0.5670 0.0288
vn -0.7587 -0.6283 0.1722
vn -0.2663 -0.7200 0.6408
vn -0.0548 0.5692 -0.8203
vn -0.5891 -0.6948 0.4126
vn 0.5337 -0.0800 0.8419
vn -0.4519 -0.1450 -0.8802
vn -0.1886 -0.6019 -0.7760
vn -0.0321 0.7913 0.6106
vn -0.4520 0.8915 -0.0300
vn 0.5881 -0.6871 0.4266
vn 0.3388 -0.3912 -0.8557
vn -0.9182 -0.3960 -0.0060
vn -0.9197 -0.1564 0.3601
vn 0.3365 0.5956 0.7294
vn 0.6615 -0.1831 -0.7272
vn 0.6020 0.5924 0.5354
vn 0.9601 0.1959 -0.1996
vn 0.6982 0.5236 -0.4882
vn 0.0638 -0.7015 0.7098
vn -0.9247 0.2603 -0.2778
vn -0.4833 -0.6302 0.6077
vn 0.5637 -0.5651 0.6024
vn -0.9964 -0.0639 0.0565
vn -0.5878 0.5761 -0.5680
vn 0.3689 0.6161 -0.6959
vn -0.4313 -0.6140 0.6610
vn 0.9992 -0.0272 0.0287
vn 0.9482 0.2224 -0.2270
vn -0.4514 -0.6078 0.6533
vn -0.7012 0.4824 -0.5250
vn 0.9759 0.2016 -0.0834
vn 0.8301 0.5017 -0.2436
vn -0.8615 0.4729 -0.1849
vn -0.4707 -0.7561 0.4547
vn -0.0510 -0.8777 0.4765
vn -0.5276 0.7276 -0.4385
vn 0.9674 -0.2158 0.1324
vn -0.6521 0.6456 -0.3974
vn 0.6712 0.4681 -0.5748
vn -0.2188 0.5381 -0.8140
vn -0.9790 0.1231 -0.1623
vn 0.9840 0.1167 -0.1345
vn 0.2339 -0.5636 0.7922
vn -0.5375 -0.4655 0.7031
vn 0.9449 0.1729 -0.2779
vn -0.2077 0.5328 -0.8204
vn -0.3594 0.4908 -0.7937
vn -0.7443 -0.3681 0.5573
vn 0.9451 -0.1578 0.2863
vn -0.3765 -0.4884 0.7872
vn -0.9779 0.0917 -0.1878
vn 0.7409 0.3293 -0.5853
vn 0.9308 0.1856 -0.3148
vn 0.3525 -0.4695 0.8095
vn 0.3993 0.5475 -0.7354
vn -0.1403 0.6474 -0.7492
vn -0.9797 0.0829 0.1826
vn 0.9526 -0.2898 0.0927
vn 0.6197 -0.5961 0.5106
vn -0.9303 -0.0920 0.3551
vn 0.6502 -0.5444 0.5300
vn 0.3693 0.5244 -0.7672
vn -0.9793 0.0380 0.1988
vn 0.7564 0.5255 -0.3895
vn 0.8762 0.4224 -0.2320
vn -0.9114 0.1306 -0.3903
vn 0.2816 -0.5775 0.7663
vn -0.1473 -0.6723 0.7255
vn -0.7538 0.3030 -0.5831
vn -0.3760 -0.6140 0.6940
vn -0.5773 0.4278 -0.6955
vn 0.0079 0.3392 -0.9407
vn 0.9993 -0.0211 -0.0316
vn 0.9912 0.0431 -0.1249
vn 0.6763 0.4654 -0.5709
vn -0.0039 -0.8624 0.5062
vn 0.9986 -0.0537 0.0011
vn 0.9932 0.0847 -0.0804
vn -0.0450 -0.0925 -0.9947
vn -0.9994 0.0342 0.0061
vn -0.9962 -0.0866 0.0091
vn -0.9970 -0.0751 0.0187
vn -0.9955 0.0628 -0.0714
vn -0.5774 0.6149 -0.5371
vn 0.9996 -0.0294 0.0014
vn 0.9889 -0.1424 -0.0426
vn -0.0000 0.0242 -0.9997
vn -0.6888 -0.7224 -0.0607
vn 0.0036 -0.0415 0.9991
vn 0.0049 0.0415 -0.9991
vn 0.0042 -0.0415 0.9991
vn -0.1460 -0.9834 -0.1081
vn 0.0042 0.0415 -0.9991
vn 0.4366 -0.8966 0.0744
vn 0.4164 -0.9064 0.0709
vn 0.1084 -0.9028 0.4162
vn -0.1774 -0.8963 0.4065
vn -0.7170 0.6967 -0.0240
vn 0.0001 0.9981 0.0617
vn 0.6255 -0.6050 -0.4926
vn 0.0072 0.9999 -0.0070
vn 0.0128 0.9998 -0.0173
vn 0.0217 0.9992 -0.0339
vn 0.0160 0.9996 -0.0235
vn 0.0091 0.9999 -0.0074
vn 0.0105 0.9999 -0.0097
vn 0.5659 -0.8245 0.0063
vn 0.0169 0.9958 -0.0896
vn 0.7523 0.6547 0.0741
vn 0.5880 -0.0481 0.8074
vn 0.9983 -0.0177 0.0548
vn -0.1915 -0.7430 -0.6413
vn -0.3968 -0.9127 -0.0975
vn -0.6338 -0.7721 0.0476
vn 0.3609 -0.9299 -0.0709
vn 0.5613 -0.8273 -0.0222
vn 0.9822 0.0605 0.1780
vn 0.0267 -0.9334 0.3579
vn -0.7355 -0.6749 0.0599
vn 0.0359 -0.8148 -0.5787
vn 0.9713 0.0298 0.2359
vn 0.9665 0.0753 0.2454
vn -0.9764 -0.0571 -0.2085
vn -0.9479 -0.0490 -0.3148
vn -0.9824 0.0174 0.1858
vn 0.3433 -0.9234 0.1715
vn -0.2738 -0.9268 -0.2569
vn 0.0782 0.9881 0.1323
vn 0.9292 -0.0515 -0.3659
vn 0.1039 -0.6247 0.7739
vn 0.8545 0.2288 0.4664
vn -0.5446 0.5633 -0.6214
vn -0.8174 0.3135 -0.4833
vn -0.2639 -0.5357 0.8021
vn 0.9698 0.2309 -0.0781
vt 0.857016 0.879979
vt 0.836348 0.934742
vt 0.808985 0.865288
vt 0.888660 0.800721
vt 0.949594 0.809985
vt 0.878747 0.855507
vt 0.840865 0.786917
vt 0.823535 0.753834
vt 0.872881 0.734578
vt 0.924115 0.771828
vt 0.915487 0.878963
vt 0.917303 0.951671
vt 0.890958 0.978924
vt 0.981981 0.979250
vt 0.935995 0.978237
vt 0.688117 0.843462
vt 0.666187 0.883945
vt 0.645751 0.820978
vt 0.693248 0.943708
vt 0.721983 0.874262
vt 0.651509 0.750381
vt 0.608310 0.767893
vt 0.607712 0.730404
vt 0.611761 0.893198
vt 0.584173 0.820684
vt 0.576269 0.782738
vt 0.563502 0.715246
vt 0.616356 0.960514
vt 0.644522 0.901694
vt 0.631598 0.986409
vt 0.562395 0.985628
vt 0.660463 0.749751
vt 0.706784 0.768301
vt 0.581423 0.821265
vt 0.584129 0.885395
vt 0.582313 0.887998
vt 0.684777 0.982376
vt 0.701566 0.942249
vt 0.723869 0.877291
vt 0.265484 0.206564
vt 0.245478 0.226147
vt 0.245475 0.206569
vt 0.235200 0.259284
vt 0.245461 0.122917
vt 0.245484 0.265303
vt 0.235178 0.128940
vt 0.017961 0.211090
vt 0.017954 0.168540
vt 0.135248 0.211066
vt 0.135248 0.213232
vt 0.017969 0.255806
vt 0.017962 0.213256
vt 0.265554 0.329372
vt 0.245552 0.348955
vt 0.245548 0.329377
vt 0.132847 0.013887
vt 0.260967 0.001889
vt 0.260969 0.013861
vt 0.014818 0.128985
vt 0.004743 0.122966
vt 0.058890 0.128976
vt 0.191128 0.259293
vt 0.132845 0.001915
vt 0.004725 0.013913
vt 0.004723 0.001942
vt 0.383076 0.038422
vt 0.459542 0.002591
vt 0.417519 0.042762
vt 0.379606 0.107581
vt 0.338062 0.014105
vt 0.432409 0.105538
vt 0.357866 0.141359
vt 0.457616 0.141616
vt 0.528024 0.019626
vt 0.470599 0.110211
vt 0.474198 0.015012
vt 0.541451 0.008725
vt 0.532188 0.106371
vt 0.167565 0.247277
vt 0.143088 0.206815
vt 0.167565 0.206815
vt 0.175097 0.206815
vt 0.143726 0.139200
vt 0.174459 0.139200
vt 0.175097 0.207048
vt 0.199574 0.245898
vt 0.175097 0.245898
vt 0.175097 0.139428
vt 0.199573 0.206819
vt 0.224050 0.139428
vt 0.224050 0.207048
vt 0.004727 0.025886
vt 0.004725 0.013913
vt 0.245532 0.025836
vt 0.058912 0.259320
vt 0.004767 0.265352
vt 0.147056 0.259302
vt 0.102962 0.128967
vt 0.147034 0.128958
vt 0.245534 0.037809
vt 0.004729 0.037858
vt 0.285487 0.190907
vt 0.303106 0.205787
vt 0.285489 0.205791
vt 0.320718 0.176015
vt 0.303104 0.190903
vt 0.303101 0.176019
vt 0.286490 0.392796
vt 0.304110 0.407676
vt 0.286493 0.407680
vt 0.304107 0.392792
vt 0.286488 0.377912
vt 0.304105 0.377908
vt 0.245558 0.388110
vt 0.265564 0.368528
vt 0.265568 0.388106
vt 0.265491 0.245720
vt 0.245481 0.245725
vt 0.265478 0.167409
vt 0.285480 0.147826
vt 0.285483 0.167404
vt 0.265547 0.290216
vt 0.245545 0.309799
vt 0.245542 0.290221
vt 0.004743 0.122966
vt 0.060701 0.102228
vt 0.104789 0.102219
vt 0.148877 0.102210
vt 0.225183 0.122921
vt 0.225169 0.037813
vt 0.192958 0.058546
vt 0.148870 0.058555
vt 0.004729 0.037858
vt 0.104782 0.058564
vt 0.016613 0.102237
vt 0.036607 0.101298
vt 0.016958 0.087357
vt 0.004736 0.080412
vt 0.038148 0.085812
vt 0.225176 0.080367
vt 0.212952 0.059477
vt 0.170657 0.075096
vt 0.213302 0.074357
vt 0.193308 0.073426
vt 0.060694 0.058573
vt 0.016606 0.058582
vt 0.038393 0.075123
vt 0.036600 0.059513
vt 0.016956 0.073463
vt 0.082481 0.075114
vt 0.080688 0.059504
vt 0.061044 0.073453
vt 0.126369 0.075004
vt 0.124776 0.059495
vt 0.105132 0.073444
vt 0.168864 0.059486
vt 0.149220 0.073435
vt 0.192965 0.102201
vt 0.212959 0.101262
vt 0.213304 0.086381
vt 0.168871 0.101271
vt 0.191835 0.086482
vt 0.169216 0.086390
vt 0.124783 0.101280
vt 0.147951 0.086607
vt 0.125128 0.086399
vt 0.080695 0.101289
vt 0.081040 0.086408
vt 0.061046 0.087347
vt 0.103659 0.086500
vt 0.285566 0.334095
vt 0.266463 0.319248
vt 0.286474 0.319244
vt 0.285484 0.132976
vt 0.266385 0.147830
vt 0.265472 0.132980
vt 0.266467 0.348950
vt 0.265555 0.334100
vt 0.285559 0.289543
vt 0.266460 0.304397
vt 0.265547 0.289547
vt 0.285556 0.274692
vt 0.266457 0.289547
vt 0.265545 0.274696
vt 0.285580 0.392829
vt 0.266481 0.407684
vt 0.265568 0.392833
vt 0.266476 0.377982
vt 0.286488 0.377978
vt 0.305511 0.265290
vt 0.286407 0.250443
vt 0.306419 0.250439
vt 0.285578 0.377978
vt 0.266474 0.363131
vt 0.286485 0.363127
vt 0.285564 0.319244
vt 0.286472 0.304393
vt 0.265551 0.309794
vt 0.265481 0.186987
vt 0.304096 0.348942
vt 0.286477 0.334062
vt 0.304093 0.334058
vt 0.285484 0.176022
vt 0.286474 0.319178
vt 0.304091 0.319174
vt 0.285494 0.235559
vt 0.303113 0.250440
vt 0.285497 0.250443
vt 0.285493 0.226138
vt 0.265487 0.226142
vt 0.285489 0.206560
vt 0.265478 0.167408
vt 0.245471 0.186991
vt 0.245468 0.167413
vt 0.265474 0.147831
vt 0.286485 0.363027
vt 0.304102 0.363024
vt 0.286472 0.304293
vt 0.320730 0.250436
vt 0.303111 0.235556
vt 0.320728 0.235552
vt 0.285482 0.161138
vt 0.285486 0.186982
vt 0.265544 0.270638
vt 0.245539 0.270643
vt 0.245465 0.147835
vt 0.265471 0.128253
vt 0.286394 0.132942
vt 0.304013 0.147823
vt 0.286396 0.147826
vt 0.303109 0.220671
vt 0.320725 0.220668
vt 0.285492 0.220675
vt 0.304088 0.304290
vt 0.286469 0.289409
vt 0.304086 0.289406
vt 0.265484 0.206565
vt 0.265494 0.265298
vt 0.285496 0.245716
vt 0.285499 0.265294
vt 0.245555 0.368533
vt 0.265561 0.348950
vt 0.245561 0.407688
vt 0.320723 0.205784
vt 0.286467 0.274525
vt 0.320720 0.190899
vt 0.612721 0.131191
vt 0.673795 0.077638
vt 0.724879 0.115966
vt 0.771599 0.068617
vt 0.796379 0.079950
vt 0.786653 0.090136
vt 0.465797 0.282961
vt 0.491540 0.309172
vt 0.454812 0.358037
vt 0.600356 0.217797
vt 0.763557 0.118103
vt 0.469418 0.222057
vt 0.585367 0.114945
vt 0.647168 0.617275
vt 0.668731 0.695259
vt 0.616994 0.656057
vt 0.466154 0.422667
vt 0.584833 0.511717
vt 0.523196 0.507628
vt 0.758844 0.697229
vt 0.741599 0.723824
vt 0.703120 0.719048
vt 0.766994 0.684840
vt 0.769837 0.702453
vt 0.686111 0.594070
vt 0.718581 0.675553
vt 0.514781 0.540833
vt 0.651161 0.724268
vt 0.696848 0.747724
vt 0.454114 0.394585
vt 0.405811 0.398822
vt 0.437475 0.387532
vt 0.688064 0.589077
vt 0.763592 0.673720
vt 0.788173 0.095420
vt 0.736383 0.153939
vt 0.462424 0.378396
vt 0.468210 0.379281
vt 0.459453 0.387803
vt 0.480235 0.420065
vt 0.472808 0.424814
vt 0.461953 0.408731
vt 0.623952 0.506099
vt 0.703930 0.578764
vt 0.792024 0.100752
vt 0.774275 0.132215
vt 0.775384 0.666759
vt 0.781925 0.695922
vt 0.473195 0.362703
vt 0.480375 0.366517
vt 0.491043 0.401459
vt 0.490851 0.386010
vt 0.508895 0.386935
vt 0.010122 0.982334
vt 0.012041 0.502671
vt 0.019918 0.429258
vt 0.704486 0.211836
vt 0.663691 0.307985
vt 0.628820 0.281934
vt 0.581823 0.409183
vt 0.508784 0.400799
vt 0.373154 0.443399
vt 0.410572 0.408098
vt 0.447563 0.484084
vt 0.594277 0.510821
vt 0.395409 0.530582
vt 0.417714 0.532731
vt 0.463643 0.602497
vt 0.545888 0.383947
vt 0.582013 0.379668
vt 0.566571 0.391546
vt 0.545674 0.404408
vt 0.567532 0.397162
vt 0.030857 0.410883
vt 0.034183 0.963832
vt 0.025755 0.896327
vt 0.084168 0.785795
vt 0.090535 0.785795
vt 0.090535 0.851380
vt 0.076052 0.809422
vt 0.084008 0.730203
vt 0.083713 0.809431
vt 0.084168 0.558807
vt 0.089747 0.558807
vt 0.089747 0.684258
vt 0.053473 0.410066
vt 0.061248 0.412448
vt 0.060717 0.695387
vt 0.095566 0.526025
vt 0.100446 0.526027
vt 0.100446 0.549655
vt 0.095566 0.549654
vt 0.084207 0.949451
vt 0.090393 0.925448
vt 0.090393 0.950812
vt 0.100611 0.429189
vt 0.100611 0.456106
vt 0.095566 0.456109
vt 0.084206 0.952173
vt 0.090393 0.976176
vt 0.084168 0.976887
vt 0.100446 0.667559
vt 0.095566 0.667557
vt 0.096176 0.657101
vt 0.075569 0.699558
vt 0.069022 0.410068
vt 0.075566 0.410066
vt 0.069022 0.967710
vt 0.075569 0.699561
vt 0.075569 0.967711
vt 0.053473 0.700639
vt 0.099413 0.613501
vt 0.095566 0.590917
vt 0.099413 0.590917
vt 0.082282 0.558868
vt 0.075570 0.558947
vt 0.082282 0.410066
vt 0.084168 0.410066
vt 0.089227 0.558807
vt 0.095566 0.483025
vt 0.100611 0.456111
vt 0.100611 0.483028
vt 0.075791 0.888486
vt 0.084168 0.911026
vt 0.075569 0.911033
vt 0.075569 0.707829
vt 0.084168 0.707837
vt 0.095566 0.501317
vt 0.102713 0.483028
vt 0.102713 0.501317
vt 0.084435 0.762774
vt 0.090525 0.763440
vt 0.084168 0.785795
vt 0.076052 0.809440
vt 0.083823 0.888001
vt 0.009048 0.410066
vt 0.022762 0.410083
vt 0.022762 0.425475
vt 0.045038 0.428604
vt 0.036477 0.410066
vt 0.046811 0.410066
vt 0.009048 0.425457
vt 0.024611 0.964534
vt 0.036477 0.982285
vt 0.022762 0.982302
vt 0.084168 0.901824
vt 0.084168 0.851380
vt 0.090715 0.901824
vt 0.046811 0.815075
vt 0.046811 0.410038
vt 0.053369 0.815122
vt 0.022908 0.410066
vt 0.559221 0.396676
vt 0.604181 0.265489
vt 0.516745 0.326239
vt 0.593589 0.280307
vt 0.661103 0.420936
vt 0.661590 0.369411
vt 0.662216 0.482367
vt 0.390670 0.343186
vt 0.409282 0.382953
vt 0.452541 0.428887
vt 0.466857 0.364511
vt 0.462047 0.394320
vt 0.462035 0.392988
vt 0.463715 0.388322
vt 0.467965 0.408281
vt 0.464094 0.399257
vt 0.737041 0.230211
vt 0.821580 0.122736
vt 0.849627 0.163294
vt 0.795205 0.158400
vt 0.786514 0.690254
vt 0.828992 0.673138
vt 0.837761 0.704587
vt 0.794035 0.633337
vt 0.736380 0.560961
vt 0.458530 0.393470
vt 0.459018 0.397651
vt 0.455345 0.388785
vt 0.455735 0.391974
vt 0.455137 0.393432
vt 0.455122 0.393695
vt 0.779794 0.700051
vt 0.456902 0.379661
vt 0.456768 0.407297
vt 0.455338 0.397814
vt 0.804573 0.710853
vt 0.805887 0.729681
vt 0.780364 0.702069
vt 0.936006 0.044928
vt 0.916280 0.309789
vt 0.896403 0.042503
vt 0.454180 0.392390
vt 0.454666 0.393456
vt 0.454644 0.393703
vt 0.455656 0.394946
vt 0.896639 0.049940
vt 0.905913 0.323398
vt 0.857579 0.052310
vt 0.370117 0.345036
vt 0.413373 0.265240
vt 0.656279 0.063287
vt 0.482807 0.597128
vt 0.569386 0.682054
vt 0.697098 0.073049
vt 0.582558 0.672238
vt 0.453315 0.399624
vt 0.736669 0.685616
vt 0.764161 0.725641
vt 0.750072 0.070697
vt 0.775218 0.050316
vt 0.777199 0.090036
vt 0.754186 0.101433
vt 0.714940 0.075989
vt 0.884320 0.293046
vt 0.888404 0.331644
vt 0.837846 0.290283
vt 0.832712 0.334940
vt 0.786307 0.273355
vt 0.760712 0.284835
vt 0.793797 0.331665
vt 0.730087 0.330082
vt 0.782944 0.365228
vt 0.840225 0.385701
vt 0.943757 0.429401
vt 0.868452 0.395892
vt 0.868708 0.367067
vt 0.850314 0.430992
vt 0.898992 0.437413
vt 0.911746 0.492289
vt 0.862241 0.501545
vt 0.949350 0.547223
vt 0.887827 0.619428
vt 0.921364 0.654124
vt 0.875992 0.544693
vt 0.839641 0.561330
vt 0.800079 0.501485
vt 0.772622 0.470758
vt 0.707292 0.411030
vt 0.813751 0.465878
vt 0.797343 0.502287
vt 0.356567 0.812642
vt 0.395711 0.779754
vt 0.380204 0.719590
vt 0.407275 0.726692
vt 0.476234 0.742710
vt 0.308889 0.785658
vt 0.339064 0.769218
vt 0.308979 0.657327
vt 0.321101 0.858717
vt 0.327011 0.893915
vt 0.338044 0.992619
vt 0.349400 0.872134
vt 0.388301 0.862009
vt 0.501294 0.900450
vt 0.481476 0.855044
vt 0.456864 0.957078
vt 0.444181 0.886406
vt 0.424895 0.855795
vt 0.365325 0.962876
vt 0.469780 0.793910
vt 0.531141 0.669522
vt 0.491322 0.755650
vt 0.503323 0.794357
vt 0.537104 0.829619
vt 0.540338 0.821712
vt 0.551721 0.967648
vt 0.648477 0.000000
vt 0.772721 0.000000
vt 0.547181 0.000000
vt 0.227279 0.000000
vt 0.456279 0.000000
vt 0.954527 0.000000
vt 0.729002 0.000000
vt 0.136361 0.000000
vt 0.318173 0.000000
vt 0.409085 0.000000
vt 0.772720 0.000000
vt 0.409086 0.000000
vt 0.907357 0.000000
vt 0.634630 0.000000
vt 0.136362 0.000000
vt 0.500084 0.000000
vt 0.725549 0.000000
vt 0.360802 0.000000
vt 0.183543 0.000000
vt 0.681880 0.000000
vt 0.550422 0.000000
vt 0.863639 0.000000
vt 0.543729 0.000000
vt 0.318189 0.000000
vt 0.089183 0.000000
vt 0.456269 0.000000
vt 0.954553 0.000000
vt 0.729007 0.000000
vt 0.136359 0.000000
vt 0.681972 0.000000
vt 0.590916 0.000000
vt 0.227280 0.000000
vt 0.176832 0.000000
vt 0.910811 0.000000
vt 0.590908 0.000000
vt 0.863644 0.000000
vt 0.500002 0.000000
vt 0.184657 0.000000
vt 0.863637 0.000000
vt 0.543732 0.000000
vt 0.441679 0.000000
vt 0.681822 0.000000
vt 0.365360 0.000000
vt 0.547167 0.000000
vt 0.351553 0.000000
vt 0.819892 0.000000
vt 0.274428 0.000000
vt 0.631139 0.000000
vt 0.227277 0.000000
vt 0.641356 0.000000
vt 0.459538 0.000000
vt 0.318117 0.000000
vt 0.819901 0.000000
vt 0.547504 0.000000
vt 0.318164 0.000000
vt 0.638089 0.000000
vt 0.500005 0.000000
vt 0.819910 0.000000
vt 0.314697 0.000000
vt 0.318173 0.000000
vt 0.457401 0.000000
vt 0.816462 0.000000
vt 0.409097 0.000000
vt 0.728995 0.000000
vt 0.441792 0.000000
vt 0.089196 0.000000
vt 0.409105 0.000000
vt 0.821036 0.000000
vt 0.271017 0.000000
vt 0.590904 0.000000
vt 0.547452 0.000000
vt 0.543730 0.000000
vt 0.186796 0.000000
vt 0.318173 0.000000
vt 0.558279 0.000000
vt 0.638082 0.000000
vt 0.232913 0.781976
vt 0.234661 0.986158
vt 0.233575 0.986114
vt 0.199996 0.542113
vt 0.200492 0.734117
vt 0.196528 0.415375
vt 0.202974 0.697066
vt 0.202117 0.601527
vt 0.203778 0.542825
vt 0.199403 0.696059
vt 0.195543 0.415450
vt 0.206552 0.988218
vt 0.195616 0.989978
vt 0.196759 0.990011
vt 0.234109 0.415395
vt 0.232872 0.674953
vt 0.286633 0.415304
vt 0.287285 0.483395
vt 0.285893 0.415428
vt 0.287021 0.716666
vt 0.287964 0.820382
vt 0.287654 0.618215
vt 0.294872 0.874072
vt 0.295327 0.672662
vt 0.295010 0.768310
vt 0.286675 0.618179
vt 0.285893 0.618153
vt 0.183407 0.415340
vt 0.184914 0.462984
vt 0.182446 0.415351
vt 0.247357 0.624648
vt 0.245165 0.669204
vt 0.243931 0.669069
vt 0.236156 0.557746
vt 0.237364 0.617264
vt 0.236468 0.621796
vt 0.248094 0.558955
vt 0.247381 0.607700
vt 0.246033 0.635661
vt 0.122466 0.555454
vt 0.126544 0.503413
vt 0.125501 0.523574
vt 0.298164 0.574357
vt 0.297456 0.568374
vt 0.297633 0.534666
vt 0.237498 0.498814
vt 0.237993 0.517291
vt 0.192061 0.614286
vt 0.193774 0.562330
vt 0.192693 0.532712
vt 0.239135 0.468952
vt 0.240029 0.415381
vt 0.183454 0.681688
vt 0.189238 0.646596
vt 0.247286 0.930127
vt 0.245296 0.883062
vt 0.248527 0.929945
vt 0.138509 0.629992
vt 0.136195 0.677020
vt 0.135159 0.676963
vt 0.238104 0.873537
vt 0.238931 0.811271
vt 0.239023 0.878289
vt 0.245321 0.866304
vt 0.246516 0.895419
vt 0.244914 0.815405
vt 0.112930 0.595215
vt 0.108871 0.543217
vt 0.111896 0.575068
vt 0.246147 0.806326
vt 0.237026 0.769369
vt 0.237585 0.750516
vt 0.147455 0.533107
vt 0.145279 0.482141
vt 0.146614 0.562002
vt 0.236107 0.720132
vt 0.235619 0.665983
vt 0.136229 0.415433
vt 0.142174 0.450300
vt 0.267906 0.415396
vt 0.269729 0.521149
vt 0.267041 0.415435
vt 0.260081 0.573589
vt 0.261930 0.415465
vt 0.262970 0.415503
vt 0.261045 0.534710
vt 0.276205 0.667093
vt 0.276370 0.797785
vt 0.275111 0.667174
vt 0.277617 0.814994
vt 0.262229 0.688834
vt 0.276637 0.954453
vt 0.279540 0.712461
vt 0.278757 0.519490
vt 0.279654 0.558287
vt 0.284188 0.627306
vt 0.284836 0.713282
vt 0.283720 0.713307
vt 0.267907 0.681033
vt 0.269019 0.779996
vt 0.267002 0.681116
vt 0.284958 0.415383
vt 0.267066 0.941892
vt 0.270031 0.780887
vt 0.267908 0.941878
vt 0.297339 0.782029
vt 0.297532 0.798617
vt 0.297471 0.789356
vt 0.297506 0.623512
vt 0.297268 0.574384
vt 0.297514 0.574422
vt 0.297346 0.815744
vt 0.297255 0.886820
vt 0.297394 0.849014
vt 0.297400 0.886823
vt 0.297423 0.782007
vt 0.297274 0.782000
vt 0.297372 0.746351
vt 0.297233 0.910916
vt 0.297392 0.886838
vt 0.297384 0.924253
vt 0.297260 0.849014
vt 0.263542 0.796491
vt 0.265756 0.685320
vt 0.266681 0.685413
vt 0.264257 0.415397
vt 0.265168 0.525334
vt 0.263415 0.415457
vt 0.264901 0.815093
vt 0.266620 0.954369
vt 0.263884 0.685277
vt 0.266330 0.525289
vt 0.264751 0.685299
vt 0.288844 0.550996
vt 0.289678 0.415351
vt 0.289674 0.588433
vt 0.296407 0.783880
vt 0.296940 0.852414
vt 0.296737 0.735276
vt 0.297475 0.415353
vt 0.297763 0.532728
vt 0.297239 0.464824
vt 0.282091 0.415408
vt 0.282537 0.515028
vt 0.281125 0.415415
vt 0.290913 0.765148
vt 0.291572 0.618017
vt 0.291991 0.682760
vt 0.255716 0.723472
vt 0.251952 0.506377
vt 0.253661 0.488569
vt 0.259205 0.538306
vt 0.255716 0.724244
vt 0.256999 0.415400
vt 0.254951 0.723458
vt 0.256894 0.724286
vt 0.209491 0.415346
vt 0.212598 0.616802
vt 0.207785 0.415499
vt 0.176325 0.583633
vt 0.178804 0.451339
vt 0.182237 0.415572
vt 0.179043 0.639263
vt 0.249241 0.905607
vt 0.250668 0.678368
vt 0.251090 0.905644
vt 0.180694 0.912069
vt 0.176591 0.709735
vt 0.271331 0.415373
vt 0.273046 0.514417
vt 0.270426 0.415448
vt 0.260377 0.747633
vt 0.261658 0.688894
vt 0.262774 0.688935
vt 0.294828 0.606371
vt 0.295706 0.672534
vt 0.294672 0.672578
vt 0.270810 0.680526
vt 0.271952 0.531807
vt 0.293345 0.415382
vt 0.293726 0.605476
vt 0.292836 0.545338
vt 0.263159 0.953171
vt 0.262072 0.953193
vt 0.260160 0.811051
vt 0.294514 0.415397
vt 0.295394 0.415420
vt 0.295536 0.544610
vt 0.223486 0.415433
vt 0.220505 0.609563
vt 0.221329 0.415346
vt 0.151739 0.617933
vt 0.152765 0.415345
vt 0.155044 0.415510
vt 0.168241 0.577226
vt 0.170795 0.705073
vt 0.163493 0.415450
vt 0.216911 0.682923
vt 0.215789 0.617884
vt 0.216040 0.415350
vt 0.154900 0.959771
vt 0.152764 0.959816
vt 0.223101 0.960935
vt 0.221329 0.960933
vt 0.219530 0.732357
vt 0.226037 0.961370
vt 0.224344 0.839587
vt 0.228342 0.961294
vt 0.170081 0.603176
vt 0.173145 0.415430
vt 0.175141 0.415526
vt 0.230944 0.771723
vt 0.230781 0.960712
vt 0.228821 0.960696
vt 0.157830 0.953023
vt 0.155781 0.952875
vt 0.161525 0.610154
vt 0.818688 0.076331
vt 0.830178 0.075317
vt 0.948646 0.877661
vt 0.964736 0.939523
vt 0.981960 0.694796
vt 0.957060 0.767583
vt 0.766212 0.766044
vt 0.926345 0.715431
vt 0.843476 0.979055
vt 0.569444 0.949026
vt 0.756385 0.782503
vt 0.642103 0.988083
vt 0.574320 0.780612
vt 0.135241 0.168516
vt 0.014840 0.259329
vt 0.135255 0.255782
vt 0.265557 0.348950
vt 0.132847 0.013887
vt 0.132845 0.001916
vt 0.143088 0.247277
vt 0.199574 0.207048
vt 0.199573 0.139200
vt 0.245530 0.013864
vt 0.004767 0.265352
vt 0.245538 0.265303
vt 0.245561 0.407689
vt 0.004791 0.407738
vt 0.102984 0.259311
vt 0.191106 0.128949
vt 0.004727 0.025886
vt 0.286479 0.348946
vt 0.286469 0.289542
vt 0.265566 0.377982
vt 0.265552 0.319249
vt 0.303099 0.161135
vt 0.245462 0.128257
vt 0.304011 0.132938
vt 0.265491 0.245721
vt 0.265571 0.407684
vt 0.304083 0.274521
vt 0.479984 0.184257
vt 0.535403 0.335142
vt 0.012041 0.489431
vt 0.075829 0.730507
vt 0.090294 0.684259
vt 0.075570 0.410146
vt 0.069024 0.699559
vt 0.099413 0.675987
vt 0.095566 0.675987
vt 0.097489 0.667559
vt 0.100445 0.526024
vt 0.095566 0.526026
vt 0.099835 0.501317
vt 0.084168 0.924737
vt 0.095566 0.564022
vt 0.099022 0.564021
vt 0.097294 0.590917
vt 0.095566 0.429192
vt 0.069022 0.699559
vt 0.095566 0.613501
vt 0.084168 0.684258
vt 0.089226 0.410066
vt 0.095566 0.456109
vt 0.075570 0.558947
vt 0.082282 0.707829
vt 0.075570 0.707749
vt 0.082282 0.559026
vt 0.095566 0.483028
vt 0.090648 0.785795
vt 0.084521 0.684259
vt 0.084168 0.851380
vt 0.103262 0.410066
vt 0.095566 0.429189
vt 0.095566 0.410066
vt 0.103262 0.429189
vt 0.036477 0.425446
vt 0.038676 0.429349
vt 0.012039 0.429302
vt 0.090716 0.851380
vt 0.095566 0.626764
vt 0.099190 0.630834
vt 0.097806 0.643372
vt 0.053358 0.410066
vt 0.044923 0.981400
vt 0.038976 0.981488
vt 0.064861 0.412686
vt 0.069022 0.698257
vt 0.061248 0.700639
vt 0.525612 0.221606
vt 0.835296 0.081267
vt 0.987143 0.281959
vt 0.968349 0.293781
vt 0.956550 0.018280
vt 0.954544 0.029888
vt 0.951010 0.295951
vt 0.934990 0.023385
vt 0.749374 0.044149
vt 0.808900 0.252786
vt 0.865781 0.200800
vt 0.687809 0.307393
vt 0.931560 0.406408
vt 0.966649 0.515344
vt 0.995453 0.449477
vt 0.941368 0.580594
vt 0.726978 0.394752
vt 0.349820 0.963228
vt 0.488084 0.962709
vt 0.468681 0.791371
vt 0.549264 0.682955
vt 0.206292 0.415403
vt 0.205610 0.988254
vt 0.207034 0.988244
vt 0.296718 0.490389
vt 0.295762 0.460618
vt 0.296158 0.415358
vt 0.294735 0.672615
vt 0.288461 0.820396
vt 0.235085 0.563071
vt 0.246916 0.550295
vt 0.245430 0.494632
vt 0.194701 0.591581
vt 0.134040 0.683196
vt 0.123614 0.596726
vt 0.182446 0.681219
vt 0.243887 0.415379
vt 0.244980 0.415365
vt 0.239999 0.816779
vt 0.247538 0.749359
vt 0.148092 0.504579
vt 0.110042 0.501974
vt 0.120501 0.415539
vt 0.247479 0.669283
vt 0.248572 0.669274
vt 0.135159 0.415838
vt 0.280343 0.415385
vt 0.275571 0.954348
vt 0.280814 0.712428
vt 0.263308 0.688600
vt 0.289083 0.887610
vt 0.290057 0.917627
vt 0.289488 0.983629
vt 0.276369 0.543808
vt 0.277991 0.667005
vt 0.277755 0.415401
vt 0.275504 0.562142
vt 0.292312 0.516571
vt 0.290372 0.415346
vt 0.290926 0.415414
vt 0.297802 0.672900
vt 0.297728 0.710547
vt 0.297676 0.672945
vt 0.297261 0.623507
vt 0.297664 0.848969
vt 0.297579 0.849010
vt 0.297322 0.826427
vt 0.297257 0.746372
vt 0.297250 0.886842
vt 0.290240 0.685332
vt 0.289213 0.685318
vt 0.293273 0.844880
vt 0.294172 0.885996
vt 0.293646 0.945164
vt 0.265490 0.954388
vt 0.292793 0.675503
vt 0.293834 0.675513
vt 0.295855 0.910783
vt 0.296487 0.852430
vt 0.296574 0.969903
vt 0.296105 0.735294
vt 0.295742 0.735281
vt 0.295979 0.617864
vt 0.297226 0.852423
vt 0.281717 0.518452
vt 0.254752 0.415394
vt 0.281582 0.709395
vt 0.282511 0.709587
vt 0.243284 0.909769
vt 0.240934 0.741117
vt 0.242344 0.716202
vt 0.210870 0.621054
vt 0.208480 0.913709
vt 0.207034 0.913658
vt 0.242294 0.415367
vt 0.243644 0.415412
vt 0.182446 0.912071
vt 0.261566 0.773238
vt 0.294113 0.415375
vt 0.214135 0.415473
vt 0.149199 0.601312
vt 0.214141 0.954440
vt 0.216041 0.954442
vt 0.225834 0.714440
vt 0.172212 0.610353
vt 0.157550 0.415421
vt 0.159428 0.580073
vt 0.174051 0.946146
vt 0.224477 0.644184
vt 0.226430 0.415366
vt 0.229707 0.415492
vt 0.231431 0.415346
vt 0.228487 0.415419
s 1
usemtl Material.001
f 19/1/1 18/2/2 11/3/3
f 21/4/4 5/5/5 7/6/6
f 15/7/7 21/4/4 7/6/6
f 12/8/8 14/9/9 15/7/7
f 14/9/10 16/10/11 21/4/4
f 17/11/12 18/2/2 19/1/1
f 20/12/13 10/13/14 18/2/2
f 4/14/15 25/15/16 20/12/13
f 29/16/17 24/17/18 35/18/19
f 28/19/20 24/17/18 26/20/21
f 22/21/22 32/22/23 8/23/24
f 35/18/25 31/24/26 33/25/27
f 35/18/25 33/25/27 23/26/28
f 8/23/24 32/22/23 2/27/29
f 28/19/20 34/28/30 30/29/31
f 30/29/31 31/24/32 24/17/33
f 25/30/16 34/28/30 28/19/20
f 32/22/23 23/26/34 2/27/29
f 29/16/17 35/18/19 22/21/35
f 25/30/16 4/31/15 34/28/30
f 14/32/9 12/33/8 22/21/22
f 5/34/5 23/26/28 33/25/27
f 5/34/5 27/35/36 13/36/37
f 3/37/38 28/19/20 18/38/2
f 11/39/3 28/19/20 26/20/21
f 14/32/9 22/21/22 8/23/24
f 109/40/39 149/41/39 108/42/39
f 38/43/40 43/44/41 42/45/42
f 39/46/43 43/44/41 38/43/40
f 68/47/44 40/48/45 69/49/46
f 36/50/47 38/51/48 37/52/49
f 82/53/50 135/54/50 101/55/50
f 44/56/44 49/57/51 45/58/46
f 41/59/52 45/60/53 77/61/54
f 38/43/40 42/45/42 70/62/55
f 43/63/56 46/64/57 42/65/49
f 65/66/58 52/67/59 64/68/60
f 51/69/61 53/70/62 65/66/63
f 50/71/64 55/72/65 51/69/66
f 50/71/67 52/67/68 54/73/69
f 57/74/70 54/75/71 56/76/72
f 53/77/62 55/78/73 57/74/74
f 53/77/75 56/76/76 52/67/59
f 59/79/77 60/80/77 58/81/77
f 60/82/78 63/83/78 61/84/78
f 66/85/79 63/86/79 67/87/79
f 58/88/80 61/89/80 66/85/80
f 59/89/81 63/90/81 62/91/81
f 45/92/46 49/93/51 43/94/56
f 73/95/82 42/45/42 44/96/83
f 70/62/55 42/45/42 71/97/84
f 76/98/85 43/44/41 75/99/86
f 77/61/54 43/44/41 76/98/85
f 42/94/49 46/100/57 48/101/87
f 71/102/84 126/103/88 97/104/89
f 85/105/90 149/106/91 146/107/91
f 79/108/92 128/109/91 98/110/93
f 107/111/94 148/112/94 109/113/94
f 94/114/95 121/115/96 73/116/97
f 104/117/98 141/45/99 75/118/100
f 97/119/50 127/120/50 79/121/50
f 85/122/50 147/123/50 107/124/50
f 69/125/46 85/126/90 84/127/101
f 69/125/46 83/128/102 36/129/103
f 37/130/49 81/131/92 80/132/104
f 68/133/44 80/132/104 79/134/92
f 85/126/90 87/135/103 86/136/105
f 69/125/46 88/137/106 87/135/103
f 41/138/52 77/139/54 88/137/106
f 38/140/48 89/141/107 37/130/49
f 70/142/108 90/143/109 38/140/48
f 81/131/92 91/144/110 70/142/108
f 78/145/92 92/146/107 68/133/44
f 73/147/82 93/148/111 78/145/92
f 68/133/44 94/149/112 40/138/45
f 72/150/113 95/151/114 79/134/92
f 78/145/92 96/152/115 73/147/82
f 71/153/84 97/154/89 80/132/104
f 79/134/92 98/155/93 72/150/113
f 70/142/108 99/156/111 81/131/92
f 80/132/104 100/157/116 71/153/84
f 36/129/103 82/158/101 101/159/103
f 39/140/117 101/159/103 102/160/118
f 82/158/101 83/128/102 103/161/119
f 74/162/120 103/161/119 104/163/98
f 83/128/102 84/127/101 105/164/121
f 75/165/122 105/164/121 106/166/123
f 84/127/101 85/126/90 107/167/119
f 77/139/124 109/168/125 108/169/126
f 76/170/127 107/167/119 109/168/125
f 111/171/103 113/172/103 112/173/103
f 114/174/107 116/175/107 115/176/107
f 118/171/107 120/177/107 119/178/107
f 122/179/107 124/180/107 123/181/107
f 126/182/107 128/183/107 127/184/107
f 130/185/107 132/186/107 131/187/107
f 135/185/103 137/188/103 136/189/103
f 139/190/103 141/191/103 140/192/103
f 143/193/103 145/194/103 144/195/103
f 147/196/103 149/180/103 148/197/103
f 89/55/50 115/198/50 81/53/50
f 98/42/128 129/199/129 71/40/130
f 101/200/94 136/201/94 102/202/94
f 81/203/92 116/106/91 91/102/110
f 74/202/120 134/204/131 82/205/101
f 90/206/94 114/207/94 89/208/94
f 84/209/50 143/117/50 105/210/50
f 95/210/50 123/211/50 78/209/50
f 102/212/118 137/213/132 74/214/133
f 91/214/39 117/215/39 90/212/39
f 105/113/94 144/216/94 106/217/94
f 78/218/92 124/205/91 96/204/115
f 76/219/127 142/220/131 84/221/101
f 72/222/113 122/107/134 95/203/114
f 99/199/50 131/121/50 80/223/50
f 106/210/123 145/118/132 76/41/135
f 87/224/50 111/124/50 86/225/50
f 96/226/95 125/227/96 72/215/97
f 80/228/104 132/229/91 100/230/116
f 86/221/105 112/231/136 77/232/124
f 70/233/108 130/220/134 99/206/111
f 88/234/91 110/235/91 87/236/91
f 83/223/50 139/237/50 103/199/50
f 93/238/50 119/239/50 92/240/50
f 100/241/95 133/242/137 70/115/97
f 77/116/138 113/243/139 88/114/140
f 103/232/94 140/103/94 104/244/94
f 92/245/91 120/236/91 94/235/91
f 75/244/122 138/106/141 83/246/102
f 73/104/82 118/231/134 93/233/111
f 283/247/142 167/248/143 161/249/144
f 157/250/145 159/251/146 158/252/147
f 238/253/148 239/254/149 160/255/150
f 242/256/151 161/249/144 155/257/152
f 240/258/153 286/259/154 283/247/155
f 291/260/156 173/261/157 289/262/158
f 234/263/159 172/264/160 183/265/161
f 184/266/162 176/267/163 178/268/164
f 177/269/165 186/270/166 184/266/167
f 288/271/168 292/272/169 291/260/156
f 241/273/170 183/265/171 291/260/172
f 188/274/173 173/261/174 178/268/164
f 188/274/173 178/268/164 156/275/175
f 195/276/176 187/277/177 287/278/178
f 294/279/179 206/280/180 177/269/165
f 155/257/181 202/281/182 200/282/183
f 201/283/184 214/284/185 208/285/186
f 217/286/187 203/287/188 204/288/189
f 218/289/190 297/290/191 294/279/192
f 202/281/182 216/291/193 215/292/194
f 206/280/180 220/293/195 207/294/196
f 199/295/197 212/296/198 201/283/184
f 232/297/199 231/298/200 236/299/201
f 304/300/202 249/301/203 252/302/204
f 296/303/205 229/304/206 213/305/207
f 248/306/208 232/297/209 237/307/210
f 235/308/211 170/309/212 175/310/213
f 205/311/214 217/286/187 218/289/190
f 169/312/215 189/313/216 166/314/217
f 245/315/218 247/316/219 304/317/220
f 248/306/208 246/318/221 303/319/222
f 230/320/223 255/321/224 250/322/225
f 302/323/226 264/324/227 261/325/228
f 261/326/228 263/327/229 259/328/230
f 273/329/231 272/330/232 266/331/233
f 275/332/234 276/333/235 251/334/236
f 282/335/237 281/336/238 270/337/239
f 276/338/235 282/335/237 270/337/239
f 275/339/234 282/340/237 276/341/235
f 271/342/240 277/343/241 279/344/242
f 274/345/243 281/346/238 280/347/244
f 274/345/243 270/341/239 281/346/238
f 281/348/238 282/349/237 280/350/244
f 249/351/203 274/352/243 275/353/234
f 251/354/236 270/355/239 250/356/225
f 249/357/203 275/332/234 251/334/236
f 272/358/232 279/359/242 278/360/245
f 267/361/246 266/362/233 269/363/247
f 265/364/248 269/365/247 271/329/240
f 272/366/232 277/367/241 269/368/247
f 302/369/226 265/370/248 268/371/249
f 266/372/233 267/373/246 263/327/229
f 302/374/226 266/375/233 264/376/227
f 262/377/250 263/378/229 265/379/248
f 258/380/251 262/381/250 302/369/226
f 261/382/228 259/383/230 254/384/252
f 255/385/224 259/386/230 260/387/253
f 252/302/204 256/388/254 254/384/252
f 257/389/255 260/390/253 258/391/251
f 257/389/255 255/321/224 260/390/253
f 250/392/225 257/393/255 251/394/236
f 250/322/225 255/321/224 257/389/255
f 303/395/256 250/396/225 304/397/202
f 230/320/223 250/322/225 303/398/256
f 230/399/223 303/319/256 246/318/257
f 239/254/258 152/400/259 154/401/260
f 238/253/148 242/256/261 239/254/149
f 152/400/262 301/402/263 154/401/260
f 244/403/264 243/404/265 229/304/206
f 218/289/266 248/306/208 226/405/267
f 175/310/213 183/265/171 241/273/170
f 233/406/268 160/255/150 165/407/269
f 181/408/270 175/310/213 170/309/212
f 189/313/216 235/308/271 175/310/213
f 187/277/177 233/406/268 165/407/269
f 187/277/177 170/309/212 235/308/211
f 154/401/260 199/295/197 151/409/272
f 217/286/273 232/297/209 248/306/208
f 246/318/221 248/306/208 237/307/210
f 224/410/274 223/411/275 232/297/209
f 222/412/276 231/298/200 223/411/275
f 222/412/277 214/284/278 212/296/279
f 231/298/200 222/412/276 212/296/198
f 219/413/280 225/414/281 217/286/282
f 225/414/283 232/297/209 217/286/273
f 215/292/194 299/415/284 296/303/285
f 298/416/286 228/417/287 227/418/288
f 221/419/289 298/420/286 216/421/193
f 216/291/193 298/416/286 215/292/194
f 220/293/195 228/422/287 298/420/286
f 297/290/191 226/405/290 300/423/291
f 220/293/195 300/423/292 228/422/287
f 200/282/183 202/281/182 215/292/194
f 222/412/276 223/411/275 210/424/293
f 210/424/293 224/410/274 209/425/294
f 206/280/180 294/279/179 220/293/195
f 225/414/281 204/288/189 209/425/294
f 301/402/263 212/296/198 199/295/197
f 301/402/263 296/303/205 213/305/207
f 200/282/183 215/292/194 296/303/285
f 203/287/188 172/264/160 234/263/159
f 153/426/295 208/285/186 190/427/296
f 159/251/146 202/281/182 158/252/297
f 152/400/262 200/282/183 301/402/263
f 193/428/298 210/424/299 194/429/300
f 190/427/296 210/424/299 193/428/298
f 177/269/165 207/294/196 290/430/301
f 162/431/302 208/285/186 153/426/295
f 209/425/294 182/432/303 191/433/304
f 172/264/160 294/279/192 288/271/305
f 295/434/306 159/435/146 180/436/307
f 151/409/272 201/283/184 162/431/302
f 194/437/308 198/438/309 193/439/298
f 168/440/310 193/428/298 197/441/311
f 196/442/312 194/429/308 192/443/313
f 197/444/311 198/445/309 196/446/312
f 235/447/271 169/448/215 233/406/268
f 286/259/314 188/449/173 167/248/315
f 171/450/316 286/451/154 166/314/217
f 167/248/315 188/449/173 284/452/317
f 188/274/173 293/453/318 173/261/174
f 293/453/319 171/450/316 289/262/320
f 241/273/170 189/313/216 175/310/213
f 241/273/170 291/260/172 171/450/316
f 172/264/160 291/260/321 183/265/161
f 170/309/212 174/454/322 181/408/270
f 292/272/169 184/266/167 185/455/323
f 290/430/301 180/436/324 186/270/325
f 186/270/325 180/436/324 179/456/326
f 186/270/327 176/267/163 184/266/162
f 292/272/169 178/268/164 173/261/174
f 181/408/328 234/263/159 183/265/161
f 182/432/303 234/263/159 181/408/328
f 157/250/145 285/457/329 179/458/330
f 238/253/148 233/406/268 240/258/331
f 152/400/259 242/256/151 155/257/152
f 287/278/178 162/431/302 153/426/295
f 160/255/332 287/278/178 165/407/269
f 238/253/148 160/255/150 233/406/268
f 155/257/152 164/459/333 158/252/334
f 164/459/333 157/250/145 158/252/334
f 285/457/329 164/459/333 163/460/335
f 161/249/336 156/461/337 163/460/338
f 160/255/339 154/401/260 151/409/272
f 283/247/142 161/249/144 242/256/151
f 319/462/340 321/463/341 318/464/342
f 318/464/343 316/465/344 309/466/345
f 315/467/346 317/468/347 311/469/348
f 316/465/349 317/468/347 315/467/346
f 317/468/347 307/470/350 311/469/348
f 316/465/349 314/471/351 317/468/347
f 308/472/352 310/473/353 320/474/354
f 320/474/354 310/473/353 316/465/355
f 321/463/356 320/474/354 316/465/355
f 321/463/356 308/472/352 320/474/354
f 321/475/341 319/476/340 325/477/357
f 323/478/358 325/477/359 309/479/360
f 311/480/348 309/479/361 305/481/362
f 324/482/363 309/479/361 311/480/348
f 324/482/363 323/478/364 309/479/361
f 307/483/350 324/482/363 311/480/348
f 322/484/365 323/478/364 324/482/363
f 310/485/353 313/486/366 326/487/367
f 310/485/353 326/487/367 323/478/368
f 326/487/367 321/475/356 323/478/368
f 313/486/366 321/475/356 326/487/367
f 314/488/351 310/485/369 322/484/365
f 335/489/370 336/490/371 330/491/372
f 333/492/373 336/490/371 328/493/374
f 338/494/375 337/495/376 327/496/377
f 334/497/378 335/489/379 337/495/376
f 331/498/380 329/499/381 339/500/382
f 331/498/380 339/500/382 335/489/383
f 339/500/382 332/501/384 335/489/383
f 329/499/381 332/501/384 339/500/382
f 345/502/385 343/503/386 330/504/387
f 344/505/388 338/506/375 327/507/377
f 343/503/389 341/508/390 344/505/388
f 342/509/391 331/510/380 346/511/392
f 346/511/392 331/510/380 343/503/393
f 340/512/394 346/511/392 343/503/393
f 332/513/384 342/509/391 346/511/395
f 340/512/394 328/514/374 332/513/396
f 347/515/397 350/516/398 349/517/397
f 347/515/397 349/517/397 348/518/399
f 352/519/400 354/520/400 353/521/401
f 352/519/400 351/522/402 354/520/400
f 355/523/403 356/524/403 357/525/403
f 359/526/404 361/527/404 360/528/405
f 359/526/404 358/529/404 361/527/404
f 362/530/406 364/531/406 363/532/406
f 365/533/407 367/534/407 366/535/407
f 371/536/408 370/537/409 369/538/408
f 368/539/410 371/536/408 369/538/408
f 373/540/411 375/541/411 374/542/412
f 373/540/411 372/543/413 375/541/411
f 378/544/414 377/545/414 376/546/414
f 379/547/415 381/548/415 380/549/415
f 386/529/416 388/550/416 387/551/416
f 389/552/417 391/553/417 390/554/417
f 402/555/418 401/556/418 400/557/418
f 405/558/419 403/559/419 406/560/420
f 404/561/421 403/559/419 405/558/419
f 409/562/422 407/563/422 408/564/422
f 411/565/423 410/566/423 412/567/423
f 415/568/424 413/569/424 414/570/424
f 417/571/425 418/572/425 416/573/425
f 419/574/426 420/575/426 421/576/426
f 422/577/427 423/578/427 424/579/427
f 425/580/428 426/581/428 427/582/428
f 428/583/429 429/584/429 430/585/429
f 433/536/430 432/586/430 431/587/430
f 434/588/431 436/589/431 435/590/431
f 440/591/432 437/592/433 438/593/434
f 440/594/432 441/595/435 437/596/433
f 442/597/436 440/598/432 439/599/437
f 441/595/435 442/600/436 439/601/437
f 442/597/436 444/602/438 440/598/432
f 445/603/439 442/600/436 441/595/435
f 443/604/440 445/603/439 441/595/435
f 440/591/432 443/605/440 441/606/435
f 446/607/441 449/608/442 447/609/443
f 449/610/442 451/611/444 448/612/445
f 448/613/445 450/614/446 446/615/441
f 450/616/446 452/617/447 449/608/442
f 453/618/448 456/619/449 455/620/450
f 457/621/451 453/622/448 454/623/452
f 458/624/453 455/625/450 456/626/449
f 457/621/451 459/627/454 453/622/448
f 458/628/453 457/621/451 455/629/450
f 460/630/455 457/631/451 458/632/453
f 460/633/455 459/634/454 457/635/451
f 461/636/456 460/637/455 458/624/453
f 461/638/456 458/639/453 459/640/454
f 463/641/457 460/637/455 461/636/456
f 464/642/458 463/641/457 461/636/456
f 465/643/459 461/638/456 462/644/460
f 468/645/461 470/646/462 467/647/463
f 469/648/464 468/649/461 466/650/465
f 466/651/465 471/652/466 469/653/464
f 470/646/462 471/654/466 466/655/465
f 472/656/467 470/646/462 468/645/461
f 470/657/462 473/658/468 471/659/466
f 472/656/467 473/660/468 470/646/462
f 473/661/468 476/662/469 471/652/466
f 471/663/466 476/664/469 472/665/467
f 473/661/468 475/666/470 476/662/469
f 475/666/470 477/667/471 476/662/469
f 476/664/469 478/668/472 474/669/473
f 479/670/474 482/671/475 481/672/476
f 484/673/477 479/674/474 480/675/478
f 483/676/479 484/673/477 480/675/478
f 481/677/476 483/678/479 480/679/478
f 482/680/475 483/678/479 481/677/476
f 483/676/479 486/681/480 484/673/477
f 485/682/481 483/678/479 482/680/475
f 485/683/481 482/684/475 484/685/477
f 492/686/482 488/687/483 489/688/484
f 488/689/483 491/690/485 490/691/486
f 489/688/484 493/692/487 492/686/482
f 494/693/488 491/690/485 492/694/482
f 493/695/487 494/693/488 492/694/482
f 498/696/489 500/697/490 497/698/491
f 499/699/492 498/700/489 496/701/493
f 498/696/489 501/702/494 500/697/490
f 504/703/495 506/704/496 503/705/497
f 505/706/498 507/707/499 502/708/500
f 503/709/497 505/710/498 502/711/500
f 507/712/499 506/704/496 504/703/495
f 512/713/501 510/714/502 509/715/503
f 508/716/504 513/717/505 509/718/503
f 513/719/505 516/720/506 512/713/501
f 514/721/507 513/717/505 511/722/508
f 515/723/509 514/721/507 511/722/508
f 512/724/501 515/725/509 511/726/508
f 519/727/510 521/728/511 518/729/512
f 522/730/513 519/731/510 517/732/514
f 523/733/515 526/734/516 527/735/517
f 528/736/518 524/737/519 527/738/517
f 528/739/518 526/740/516 524/741/519
f 525/742/520 528/743/518 527/744/517
f 528/739/518 530/745/521 526/740/516
f 529/746/522 528/743/518 525/742/520
f 532/747/523 534/748/524 531/749/525
f 535/750/526 532/751/523 533/752/527
f 536/753/528 535/750/526 533/752/527
f 531/754/525 536/755/528 533/756/527
f 536/753/528 538/757/529 535/750/526
f 535/750/526 538/757/529 534/758/524
f 540/759/530 543/760/531 542/761/532
f 543/762/531 540/763/530 541/764/533
f 544/765/534 541/766/533 542/767/532
f 548/768/535 544/769/534 543/760/531
f 547/770/536 543/771/531 545/772/537
f 546/773/538 547/774/536 545/775/537
f 548/776/535 546/777/538 544/778/534
f 549/779/539 551/780/540 553/781/541
f 552/782/542 549/783/539 550/784/543
f 551/785/540 554/786/544 553/787/541
f 554/788/544 552/789/542 553/790/541
f 552/782/542 555/791/545 557/792/546
f 557/793/546 556/794/547 554/795/544
f 559/796/548 561/797/549 558/798/550
f 561/799/549 559/800/548 560/801/551
f 562/802/552 560/803/551 558/804/550
f 564/805/553 566/806/554 563/807/555
f 295/808/306 207/809/196 202/281/182
f 13/810/37 9/811/556 20/12/557
f 16/10/11 2/812/558 6/813/559
f 7/6/6 19/1/1 11/3/3
f 21/4/4 16/10/11 5/5/5
f 17/11/12 20/12/13 18/2/2
f 20/12/13 25/15/16 10/13/14
f 16/10/11 6/813/559 5/5/5
f 15/7/7 7/6/6 11/3/3
f 12/8/8 11/3/3 1/814/560
f 12/8/8 15/7/7 11/3/3
f 8/815/24 2/812/29 16/10/11
f 14/9/10 8/815/24 16/10/11
f 18/2/2 10/13/14 3/816/38
f 7/6/6 17/11/12 19/1/1
f 17/11/561 5/5/5 13/810/37
f 7/6/6 5/5/562 17/11/12
f 13/810/37 20/12/557 17/11/561
f 15/7/7 14/9/9 21/4/4
f 9/811/556 4/14/563 20/12/557
f 33/25/27 31/24/26 27/35/36
f 34/28/564 9/817/556 27/35/36
f 32/22/23 35/18/565 23/26/34
f 12/33/8 29/16/17 22/21/22
f 26/20/21 24/17/18 29/16/17
f 30/29/31 34/28/30 31/24/32
f 35/18/25 24/17/566 31/24/26
f 1/818/560 29/16/17 12/33/8
f 1/818/560 26/20/21 29/16/17
f 22/21/22 35/18/567 32/22/23
f 3/37/38 25/30/16 28/19/20
f 28/19/20 30/29/31 24/17/18
f 31/24/26 34/28/564 27/35/36
f 34/28/564 4/31/563 9/817/556
f 3/37/38 10/819/14 25/30/16
f 5/34/5 33/25/27 27/35/36
f 13/36/37 27/35/36 9/817/556
f 11/39/3 18/38/2 28/19/20
f 6/820/559 2/27/558 23/26/28
f 11/39/3 26/20/21 1/818/560
f 5/34/5 6/820/559 23/26/28
f 69/49/46 40/48/45 41/821/52
f 109/40/39 148/210/39 149/41/39
f 40/822/45 44/96/83 45/60/53
f 36/50/47 39/823/47 38/51/48
f 82/53/50 134/824/50 135/54/50
f 41/59/52 40/822/45 45/60/53
f 43/63/56 47/825/568 46/64/57
f 44/56/44 48/826/87 49/57/51
f 65/66/58 53/70/75 52/67/59
f 51/69/61 55/72/73 53/70/62
f 50/71/64 54/73/71 55/72/65
f 50/71/67 64/68/569 52/67/68
f 57/74/70 55/78/65 54/75/71
f 52/67/68 56/76/570 54/75/69
f 53/77/75 57/74/571 56/76/76
f 59/79/77 62/827/77 60/80/77
f 60/82/78 62/80/78 63/83/78
f 66/85/79 61/828/79 63/86/79
f 58/88/80 60/829/80 61/89/80
f 59/89/81 67/829/81 63/90/81
f 43/94/56 49/93/51 47/830/568
f 47/831/568 49/832/51 48/833/87
f 47/831/568 48/833/87 46/834/57
f 40/822/45 73/95/82 44/96/83
f 73/95/82 72/835/113 42/45/42
f 72/835/113 71/97/84 42/45/42
f 39/46/43 74/836/572 43/44/41
f 74/836/572 75/99/86 43/44/41
f 77/61/54 45/60/53 43/44/41
f 44/837/44 42/94/49 48/101/87
f 71/102/84 129/106/573 126/103/88
f 85/105/90 108/246/126 149/106/91
f 79/108/92 127/111/91 128/109/91
f 107/111/94 147/108/94 148/112/94
f 94/114/95 120/241/39 121/115/96
f 104/117/98 140/238/39 141/45/99
f 97/119/50 126/215/50 127/120/50
f 85/122/50 146/198/50 147/123/50
f 69/125/46 84/127/101 83/128/102
f 36/129/103 83/128/102 82/158/101
f 68/133/44 37/130/49 80/132/104
f 68/133/44 79/134/92 78/145/92
f 85/126/90 69/125/46 87/135/103
f 69/125/46 41/138/52 88/137/106
f 77/139/124 85/126/90 86/136/105
f 37/130/49 89/141/107 81/131/92
f 38/140/48 90/143/109 89/141/107
f 70/142/108 91/144/110 90/143/109
f 78/145/92 93/148/111 92/146/107
f 40/138/45 94/149/112 73/147/82
f 68/133/44 92/146/107 94/149/112
f 79/134/92 95/151/114 78/145/92
f 73/147/82 96/152/115 72/150/113
f 80/132/104 97/154/89 79/134/92
f 72/150/113 98/155/93 71/153/84
f 81/131/92 99/156/111 80/132/104
f 71/153/84 100/157/116 70/142/55
f 74/162/133 39/140/117 102/160/118
f 39/140/117 36/129/103 101/159/103
f 75/165/100 74/162/120 104/163/98
f 74/162/120 82/158/101 103/161/119
f 76/170/135 75/165/122 106/166/123
f 75/165/122 83/128/102 105/164/121
f 85/126/90 77/139/124 108/169/126
f 77/139/124 76/170/127 109/168/125
f 76/170/127 84/127/101 107/167/119
f 111/171/103 110/178/103 113/172/103
f 114/174/107 117/230/107 116/175/107
f 118/171/107 121/838/107 120/177/107
f 122/179/107 125/197/107 124/180/107
f 126/182/107 129/839/107 128/183/107
f 130/185/107 133/110/107 132/186/107
f 135/185/103 134/187/103 137/188/103
f 139/190/103 138/240/103 141/191/103
f 143/193/103 142/840/103 145/194/103
f 147/196/103 146/841/103 149/180/103
f 89/55/50 114/123/50 115/198/50
f 98/42/128 128/213/39 129/199/129
f 101/200/94 135/838/94 136/201/94
f 81/203/92 115/107/91 116/106/91
f 74/202/120 137/201/574 134/204/131
f 90/206/94 117/220/94 114/207/94
f 84/209/50 142/239/50 143/117/50
f 95/210/50 122/40/50 123/211/50
f 102/212/118 136/199/39 137/213/132
f 91/214/39 116/226/39 117/215/39
f 105/113/94 143/112/94 144/216/94
f 78/218/92 123/234/91 124/205/91
f 76/219/127 145/207/574 142/220/131
f 72/222/113 125/842/575 122/107/134
f 99/199/50 130/119/50 131/121/50
f 106/210/123 144/117/39 145/118/132
f 87/224/50 110/122/50 111/124/50
f 96/226/95 124/843/39 125/227/96
f 80/228/104 131/844/91 132/229/91
f 86/221/105 111/220/94 112/231/136
f 70/233/108 133/231/575 130/220/134
f 88/234/91 113/218/91 110/235/91
f 83/223/50 138/211/50 139/237/50
f 93/238/50 118/845/50 119/239/50
f 100/241/95 132/54/39 133/242/137
f 77/116/138 112/846/576 113/243/139
f 103/232/94 139/231/94 140/103/94
f 92/245/91 119/847/91 120/236/91
f 75/244/122 141/103/577 138/106/141
f 73/104/82 121/103/575 118/231/134
f 163/460/335 156/461/175 285/457/329
f 161/249/336 284/452/317 156/461/337
f 155/257/152 161/249/144 163/460/335
f 240/258/153 233/406/578 169/448/579
f 240/258/153 166/848/217 286/259/154
f 291/260/156 292/272/169 173/261/157
f 292/272/169 185/455/323 178/268/164
f 186/270/327 179/456/330 176/267/163
f 177/269/165 290/430/301 186/270/166
f 292/272/169 177/269/165 184/266/167
f 187/277/177 195/276/176 174/454/322
f 156/275/175 178/268/164 176/267/163
f 286/451/314 293/453/318 188/274/173
f 235/308/271 189/313/216 169/312/215
f 165/407/269 287/278/178 187/277/177
f 287/278/178 168/440/310 195/276/176
f 192/443/313 191/433/304 174/454/322
f 174/454/322 195/276/176 192/443/313
f 168/440/310 153/426/295 190/427/296
f 168/440/310 197/441/580 196/442/581
f 151/409/272 199/295/197 201/283/184
f 225/414/281 219/413/280 204/288/189
f 224/410/274 225/414/283 209/425/294
f 247/316/219 245/315/218 211/849/582
f 296/303/205 299/415/583 229/304/206
f 211/849/582 236/299/201 212/296/198
f 213/305/207 243/404/265 211/849/582
f 218/289/266 217/286/273 248/306/208
f 213/305/207 229/304/206 243/404/265
f 249/301/203 251/850/236 252/302/204
f 261/326/228 264/851/227 263/327/229
f 262/377/250 259/852/230 263/378/229
f 269/363/247 266/362/233 272/853/232
f 251/354/236 276/854/235 270/355/239
f 278/855/245 279/856/242 277/857/241
f 275/858/234 274/859/243 280/860/244
f 275/339/234 280/861/244 282/340/237
f 271/862/240 269/863/247 277/864/241
f 273/865/231 271/342/240 279/344/242
f 249/351/203 250/866/225 274/352/243
f 272/358/232 273/867/231 279/359/242
f 268/868/249 273/329/231 266/331/233
f 265/364/248 267/869/246 269/365/247
f 277/367/241 272/366/232 278/870/245
f 268/871/249 271/872/240 273/873/231
f 265/874/248 271/872/240 268/871/249
f 302/369/226 262/381/250 265/370/248
f 264/851/227 266/372/233 263/327/229
f 302/374/226 268/875/249 266/375/233
f 265/379/248 263/378/229 267/876/246
f 260/877/253 259/852/230 262/377/250
f 258/380/251 260/328/253 262/381/250
f 258/878/251 302/323/226 261/325/228
f 256/388/254 261/382/228 254/384/252
f 256/879/254 258/880/251 261/881/228
f 257/882/255 258/880/251 256/879/254
f 255/385/224 254/883/252 259/386/230
f 255/385/224 252/884/204 254/883/252
f 252/302/204 253/885/584 256/388/254
f 251/850/236 253/885/584 252/302/204
f 251/394/236 257/393/255 253/886/584
f 256/887/254 253/888/584 257/889/255
f 304/397/202 250/396/225 249/890/203
f 230/891/223 252/884/204 255/385/224
f 230/891/223 304/892/202 252/884/204
f 250/893/225 270/894/239 274/895/243
f 303/319/222 304/317/585 248/306/208
f 304/317/585 247/316/586 248/306/208
f 304/317/220 230/399/587 245/315/218
f 230/399/587 246/318/588 245/315/218
f 239/254/258 242/256/151 152/400/259
f 166/314/217 189/313/216 171/450/316
f 301/402/263 213/305/207 211/849/582
f 226/405/589 248/306/590 244/403/264
f 229/304/206 226/405/589 244/403/264
f 150/896/591 238/253/148 240/258/331
f 241/273/170 171/450/316 189/313/216
f 240/258/153 169/448/579 166/848/217
f 243/404/265 247/316/219 211/849/582
f 187/277/177 235/447/271 233/406/268
f 205/311/214 203/287/188 217/286/187
f 245/315/218 236/299/201 211/849/582
f 232/297/199 223/411/275 231/298/200
f 225/414/283 224/410/274 232/297/209
f 215/292/194 227/418/288 299/415/284
f 215/292/194 298/416/286 227/418/288
f 237/307/210 232/297/209 236/299/592
f 236/299/201 231/298/200 212/296/198
f 221/419/289 220/293/195 298/420/286
f 297/290/191 218/289/190 226/405/290
f 220/293/195 297/290/593 300/423/292
f 201/283/184 212/296/198 214/284/185
f 210/424/293 223/411/275 224/410/274
f 207/294/594 220/293/595 221/419/289
f 202/281/182 221/897/289 216/291/193
f 208/285/186 222/412/277 210/424/299
f 220/293/195 294/279/179 297/290/593
f 205/311/214 218/289/190 294/279/192
f 219/413/280 217/286/187 204/288/189
f 301/402/263 211/849/582 212/296/198
f 208/285/186 214/284/278 222/412/277
f 301/402/263 200/282/183 296/303/205
f 209/425/294 192/443/313 210/424/293
f 192/443/313 194/429/308 210/424/293
f 203/287/188 205/311/214 172/264/160
f 209/425/294 191/433/304 192/443/313
f 155/257/181 158/252/297 202/281/182
f 190/427/296 208/285/186 210/424/299
f 159/251/146 295/808/306 202/281/182
f 152/400/262 155/257/181 200/282/183
f 154/401/260 301/402/263 199/295/197
f 182/432/303 204/288/189 234/263/159
f 204/288/189 203/287/188 234/263/159
f 162/431/302 201/283/184 208/285/186
f 180/436/324 290/430/301 207/294/196
f 209/425/294 204/288/189 182/432/303
f 177/269/165 206/280/180 207/294/196
f 207/294/196 295/434/306 180/436/324
f 172/264/160 205/311/214 294/279/192
f 288/271/168 294/279/179 177/269/165
f 194/898/308 196/899/312 198/900/309
f 168/440/310 190/427/296 193/428/298
f 193/901/298 198/902/309 197/903/311
f 195/276/176 168/440/310 196/442/581
f 195/276/176 196/442/581 192/443/313
f 174/454/322 191/433/304 182/432/303
f 171/450/316 293/453/319 286/451/154
f 284/452/317 188/449/596 156/461/337
f 156/461/175 176/904/163 285/457/329
f 285/457/329 176/904/163 179/458/330
f 159/435/146 179/456/330 180/436/307
f 173/261/157 293/453/597 289/262/158
f 170/309/212 187/277/177 174/454/322
f 288/271/168 177/269/165 292/272/169
f 172/264/160 288/271/305 291/260/321
f 181/408/328 174/454/322 182/432/303
f 181/408/270 183/265/171 175/310/213
f 185/455/323 184/266/167 178/268/164
f 291/260/172 289/262/598 171/450/316
f 157/250/145 179/458/330 159/251/146
f 283/247/142 286/259/599 167/248/143
f 150/896/591 240/258/331 283/247/600
f 153/426/295 168/440/310 287/278/178
f 238/253/148 150/896/591 242/256/261
f 160/255/332 162/431/302 287/278/178
f 155/257/152 163/460/335 164/459/333
f 285/457/329 157/250/145 164/459/333
f 161/249/336 167/248/315 284/452/317
f 160/255/339 239/254/258 154/401/260
f 151/409/272 162/431/302 160/255/339
f 150/896/591 283/247/600 242/256/261
f 318/464/343 321/463/601 316/465/344
f 312/905/602 318/464/342 309/466/603
f 312/905/602 306/906/604 318/464/342
f 306/906/604 319/462/340 318/464/342
f 315/467/346 311/469/348 305/907/362
f 309/466/605 316/465/606 315/467/346
f 317/468/347 314/471/351 307/470/350
f 316/465/349 310/473/369 314/471/351
f 321/463/356 313/908/366 308/472/352
f 323/478/358 321/475/607 325/477/359
f 309/479/603 325/477/357 312/909/602
f 312/909/602 325/477/357 306/910/604
f 325/477/357 319/476/340 306/910/604
f 307/483/350 322/484/608 324/482/363
f 322/484/365 310/485/369 323/478/364
f 314/488/351 322/484/365 307/483/350
f 315/911/346 305/481/362 309/479/605
f 308/912/352 313/486/366 310/485/353
f 335/489/370 332/501/609 336/490/371
f 330/491/610 336/490/371 333/492/373
f 336/490/371 332/501/609 328/493/374
f 327/496/377 337/495/376 330/491/611
f 337/495/376 335/489/379 330/491/611
f 338/494/375 334/497/378 337/495/376
f 334/497/378 331/498/612 335/489/379
f 329/499/381 342/913/391 332/501/384
f 345/502/385 340/512/394 343/503/386
f 333/914/373 345/502/385 330/504/610
f 333/914/373 328/514/374 345/502/385
f 328/514/374 340/512/394 345/502/385
f 330/504/611 344/505/388 327/507/377
f 330/504/611 343/503/389 344/505/388
f 344/505/388 341/508/613 338/506/375
f 343/503/389 331/510/612 341/508/390
f 340/512/394 332/513/396 346/511/392
f 338/506/375 341/508/390 334/915/378
f 334/915/378 341/508/390 331/510/612
f 331/510/380 342/509/391 329/916/381
f 439/599/437 440/598/432 438/917/434
f 437/596/433 441/595/435 439/601/437
f 440/598/432 444/602/438 443/918/440
f 442/597/436 445/919/439 444/602/438
f 449/920/442 448/921/445 447/922/443
f 446/607/441 450/616/446 449/608/442
f 448/613/445 451/923/444 450/614/446
f 449/610/442 452/924/447 451/611/444
f 455/629/450 457/621/451 454/623/452
f 453/618/448 459/640/454 456/619/449
f 456/626/449 459/925/454 458/624/453
f 460/926/455 462/927/460 459/627/454
f 462/928/460 461/638/456 459/640/454
f 460/630/455 463/929/457 462/930/460
f 465/643/459 464/931/458 461/638/456
f 463/932/457 465/933/459 462/927/460
f 467/647/463 470/646/462 466/655/465
f 469/648/464 472/665/467 468/649/461
f 471/652/466 472/934/467 469/653/464
f 472/656/467 474/935/473 473/660/468
f 472/665/467 476/664/469 474/936/473
f 474/937/473 475/938/470 473/658/468
f 474/935/473 478/939/472 475/940/470
f 476/664/469 477/941/471 478/668/472
f 484/685/477 482/684/475 479/942/474
f 485/682/481 487/943/614 483/678/479
f 484/685/477 486/944/480 485/683/481
f 483/676/479 487/945/614 486/681/480
f 491/946/485 489/947/484 490/948/486
f 488/689/483 492/694/482 491/690/485
f 491/949/485 495/950/615 489/951/484
f 489/951/484 495/950/615 493/952/487
f 491/953/485 494/954/488 495/955/615
f 497/956/491 500/957/490 496/958/493
f 499/699/492 501/959/494 498/700/489
f 500/960/490 499/961/492 496/962/493
f 502/708/500 507/707/499 504/963/495
f 503/709/497 506/964/496 505/710/498
f 508/965/504 510/966/502 511/726/508
f 513/967/505 512/968/501 509/969/503
f 508/716/504 511/722/508 513/717/505
f 512/724/501 511/726/508 510/966/502
f 512/713/501 516/720/506 515/970/509
f 514/971/507 516/972/506 513/967/505
f 518/973/512 520/974/616 517/975/514
f 520/976/616 522/977/513 517/978/514
f 518/973/512 521/728/511 520/974/616
f 519/727/510 522/979/513 521/728/511
f 527/735/517 526/734/516 525/980/520
f 524/741/519 526/740/516 523/981/515
f 526/734/516 529/982/522 525/980/520
f 526/734/516 530/983/521 529/982/522
f 532/984/523 535/985/526 534/986/524
f 534/748/524 536/987/528 531/749/525
f 534/748/524 537/988/617 536/987/528
f 537/988/617 539/989/618 536/987/528
f 538/990/529 537/991/617 534/986/524
f 536/753/528 539/992/618 538/757/529
f 545/775/537 543/762/531 541/764/533
f 544/993/534 545/775/537 541/764/533
f 542/761/532 543/760/531 544/769/534
f 544/993/534 546/773/538 545/775/537
f 547/770/536 548/994/535 543/771/531
f 550/995/543 553/790/541 552/789/542
f 552/782/542 551/996/540 549/783/539
f 552/782/542 557/792/546 551/996/540
f 551/780/540 557/793/546 554/795/544
f 554/788/544 555/997/545 552/789/542
f 556/998/547 555/997/545 554/788/544
f 558/798/550 561/797/549 563/999/555
f 562/1000/552 561/799/549 560/801/551
f 558/1001/550 563/807/555 562/1002/552
f 563/807/555 566/806/554 562/1002/552
f 562/1000/552 565/1003/619 561/799/549
f 561/1004/549 565/1005/619 563/999/555
f 562/802/552 566/1006/554 565/1007/619
f 565/1005/619 564/1008/553 563/999/555
f 202/281/182 207/809/594 221/897/289
l 382 383
l 397 396
l 392 393
l 384 385
l 395 394
l 398 399
