# Blender 5.0.1
# www.blender.org
mtllib Speaker.mtl
o Circle
v -0.108035 0.494776 -0.779947
v -0.212145 0.449007 -0.768749
v -0.305238 0.383733 -0.757251
v -0.383737 0.301465 -0.745896
v -0.444625 0.205363 -0.735119
v -0.485562 0.099120 -0.725335
v -0.504975 -0.013181 -0.716919
v -0.502118 -0.127224 -0.710196
v -0.477100 -0.238626 -0.705422
v -0.430884 -0.343107 -0.702783
v -0.365245 -0.436651 -0.702379
v -0.282705 -0.515663 -0.704225
v -0.186437 -0.577107 -0.708252
v -0.080141 -0.618622 -0.714304
v 0.032100 -0.638613 -0.722148
v 0.145971 -0.636310 -0.731483
v 0.257097 -0.611803 -0.741951
v 0.361207 -0.566034 -0.753148
v 0.454300 -0.500760 -0.764646
v 0.532799 -0.418492 -0.776001
v 0.593687 -0.322390 -0.786778
v 0.634624 -0.216147 -0.796562
v 0.654037 -0.103846 -0.804978
v 0.651180 0.010197 -0.811702
v 0.626162 0.121599 -0.816475
v 0.579946 0.226079 -0.819114
v 0.514307 0.319623 -0.819518
v 0.431767 0.398636 -0.817672
v 0.335500 0.460080 -0.813645
v 0.229203 0.501595 -0.807594
v 0.116962 0.521585 -0.799749
v 0.003091 0.519283 -0.790414
v -0.148598 0.336505 -0.767020
v -0.067566 0.372129 -0.775735
v -0.221055 0.285701 -0.758071
v -0.282153 0.221669 -0.749233
v -0.329544 0.146869 -0.740845
v -0.361407 0.064177 -0.733229
v -0.376516 -0.023230 -0.726679
v -0.374292 -0.111993 -0.721446
v -0.354821 -0.198701 -0.717731
v -0.318849 -0.280021 -0.715676
v -0.267760 -0.352829 -0.715362
v -0.203517 -0.414327 -0.716799
v -0.128589 -0.462151 -0.719933
v -0.045855 -0.494463 -0.724643
v 0.041506 -0.510022 -0.730749
v 0.130135 -0.508230 -0.738015
v 0.216628 -0.489156 -0.746162
v 0.297660 -0.453532 -0.754877
v 0.370117 -0.402728 -0.763826
v 0.431215 -0.338696 -0.772664
v 0.478606 -0.263896 -0.781052
v 0.510469 -0.181204 -0.788668
v 0.525578 -0.093797 -0.795218
v 0.523355 -0.005034 -0.800451
v 0.503883 0.081673 -0.804166
v 0.467911 0.162994 -0.806221
v 0.416822 0.235802 -0.806535
v 0.352579 0.297300 -0.805098
v 0.277651 0.345124 -0.801964
v 0.194917 0.377436 -0.797254
v 0.107556 0.392995 -0.791148
v 0.018927 0.391203 -0.783882
v 0.004570 0.071194 -0.734223
v 0.030818 0.082734 -0.737047
v -0.018901 0.054737 -0.731325
v -0.038693 0.033996 -0.728462
v -0.054044 0.009766 -0.725744
v -0.064365 -0.017021 -0.723278
v -0.069260 -0.045335 -0.721156
v -0.068540 -0.074087 -0.719461
v -0.062232 -0.102175 -0.718257
v -0.050580 -0.128517 -0.717592
v -0.034031 -0.152102 -0.717490
v -0.013220 -0.172022 -0.717955
v 0.011051 -0.187514 -0.718971
v 0.037851 -0.197981 -0.720496
v 0.066150 -0.203021 -0.722474
v 0.094860 -0.202441 -0.724828
v 0.122877 -0.196262 -0.727467
v 0.149126 -0.184722 -0.730290
v 0.172597 -0.168265 -0.733189
v 0.192389 -0.147523 -0.736052
v 0.207740 -0.123294 -0.738769
v 0.218061 -0.096507 -0.741236
v 0.222956 -0.068193 -0.743358
v 0.222235 -0.039440 -0.745053
v 0.215928 -0.011353 -0.746256
v 0.204275 0.014989 -0.746922
v 0.187726 0.038574 -0.747024
v 0.166916 0.058495 -0.746558
v 0.142644 0.073986 -0.745543
v 0.115844 0.084453 -0.744017
v 0.087546 0.089493 -0.742039
v 0.058836 0.088913 -0.739686
v -0.144545 0.339566 -0.716827
v -0.063513 0.375190 -0.725542
v -0.217002 0.288762 -0.707878
v -0.278100 0.224729 -0.699040
v -0.325491 0.149930 -0.690652
v -0.357354 0.067238 -0.683036
v -0.372463 -0.020169 -0.676486
v -0.370239 -0.108932 -0.671253
v -0.350768 -0.195640 -0.667538
v -0.314796 -0.276960 -0.665484
v -0.263707 -0.349768 -0.665169
v -0.199464 -0.411266 -0.666606
v -0.124536 -0.459090 -0.669740
v -0.041802 -0.491402 -0.674450
v 0.045559 -0.506962 -0.680556
v 0.134188 -0.505170 -0.687822
v 0.220681 -0.486095 -0.695969
v 0.301713 -0.450471 -0.704684
v 0.374170 -0.399667 -0.713633
v 0.435268 -0.335635 -0.722471
v 0.482659 -0.260836 -0.730859
v 0.514522 -0.178144 -0.738475
v 0.529631 -0.090737 -0.745025
v 0.527407 -0.001974 -0.750258
v 0.507936 0.084734 -0.753973
v 0.471964 0.166055 -0.756028
v 0.420875 0.238863 -0.756342
v 0.356632 0.300361 -0.754905
v 0.281704 0.348184 -0.751771
v 0.198970 0.380497 -0.747061
v 0.111609 0.396056 -0.740956
v 0.022980 0.394264 -0.733690
v -0.023959 0.126085 -0.713546
v 0.013281 0.142457 -0.717551
v -0.057258 0.102737 -0.709433
v -0.085337 0.073310 -0.705371
v -0.107116 0.038935 -0.701517
v -0.121759 0.000932 -0.698017
v -0.128703 -0.039238 -0.695007
v -0.127681 -0.080030 -0.692602
v -0.118732 -0.119878 -0.690894
v -0.102201 -0.157251 -0.689950
v -0.078722 -0.190711 -0.689805
v -0.049198 -0.218973 -0.690466
v -0.014763 -0.240952 -0.691906
v 0.023259 -0.255801 -0.694071
v 0.063407 -0.262952 -0.696877
v 0.104138 -0.262128 -0.700216
v 0.143887 -0.253362 -0.703960
v 0.181127 -0.236991 -0.707965
v 0.214426 -0.213643 -0.712078
v 0.242505 -0.184216 -0.716140
v 0.264284 -0.149840 -0.719995
v 0.278927 -0.111838 -0.723494
v 0.285871 -0.071668 -0.726505
v 0.284849 -0.030875 -0.728910
v 0.275900 0.008973 -0.730617
v 0.259369 0.046345 -0.731561
v 0.235890 0.079805 -0.731706
v 0.206366 0.108068 -0.731045
v 0.171931 0.130046 -0.729605
v 0.133909 0.144896 -0.727440
v 0.093761 0.152046 -0.724635
v 0.053030 0.151223 -0.721295
v -0.127859 0.310026 -0.716373
v -0.052887 0.342986 -0.724437
v -0.194898 0.263021 -0.708093
v -0.251427 0.203777 -0.699916
v -0.295274 0.134571 -0.692155
v -0.324754 0.058063 -0.685109
v -0.338733 -0.022808 -0.679049
v -0.336676 -0.104933 -0.674207
v -0.318660 -0.185156 -0.670770
v -0.285379 -0.260396 -0.668869
v -0.238110 -0.327759 -0.668578
v -0.178671 -0.384658 -0.669908
v -0.109346 -0.428906 -0.672807
v -0.032799 -0.458802 -0.677165
v 0.048028 -0.473197 -0.682814
v 0.130030 -0.471539 -0.689537
v 0.210055 -0.453891 -0.697075
v 0.285027 -0.420931 -0.705138
v 0.352066 -0.373926 -0.713418
v 0.408595 -0.314683 -0.721595
v 0.452442 -0.245477 -0.729356
v 0.481922 -0.168969 -0.736402
v 0.495901 -0.088098 -0.742462
v 0.493844 -0.005973 -0.747304
v 0.475828 0.074251 -0.750742
v 0.442547 0.149490 -0.752642
v 0.395278 0.216854 -0.752933
v 0.335839 0.273752 -0.751603
v 0.266514 0.318000 -0.748704
v 0.189967 0.347896 -0.744346
v 0.109140 0.362292 -0.738697
v 0.027138 0.360634 -0.731975
v -0.000281 0.081360 -0.726638
v 0.027956 0.093774 -0.729675
v -0.025531 0.063656 -0.723519
v -0.046822 0.041343 -0.720439
v -0.063336 0.015278 -0.717516
v -0.074439 -0.013538 -0.714863
v -0.079704 -0.043997 -0.712580
v -0.078929 -0.074928 -0.710757
v -0.072144 -0.105143 -0.709462
v -0.059609 -0.133481 -0.708746
v -0.041806 -0.158853 -0.708636
v -0.019419 -0.180283 -0.709137
v 0.006691 -0.196948 -0.710229
v 0.035522 -0.208208 -0.711871
v 0.065964 -0.213630 -0.713998
v 0.096849 -0.213005 -0.716530
v 0.126989 -0.206359 -0.719369
v 0.155226 -0.193945 -0.722406
v 0.180476 -0.176241 -0.725525
v 0.201766 -0.153928 -0.728605
v 0.218281 -0.127862 -0.731528
v 0.229384 -0.099046 -0.734181
v 0.234649 -0.068588 -0.736464
v 0.233874 -0.037656 -0.738288
v 0.227089 -0.007441 -0.739582
v 0.214554 0.020897 -0.740298
v 0.196751 0.046268 -0.740408
v 0.174364 0.067698 -0.739907
v 0.148254 0.084363 -0.738815
v 0.119423 0.095623 -0.737173
v 0.088981 0.101045 -0.735046
v 0.058096 0.100421 -0.732514
v -0.142002 0.597718 -0.783481
v -0.265482 0.543433 -0.770200
v -0.375896 0.466015 -0.756564
v -0.469000 0.368440 -0.743096
v -0.541216 0.254458 -0.730313
v -0.589770 0.128448 -0.718709
v -0.612795 -0.004747 -0.708727
v -0.609406 -0.140008 -0.700753
v -0.579734 -0.272137 -0.695091
v -0.524919 -0.396056 -0.691961
v -0.447067 -0.507005 -0.691482
v -0.349171 -0.600718 -0.693672
v -0.234992 -0.673594 -0.698448
v -0.108918 -0.722833 -0.705625
v 0.024206 -0.746543 -0.714929
v 0.159263 -0.743812 -0.726001
v 0.291065 -0.714745 -0.738416
v 0.414545 -0.660460 -0.751697
v 0.524958 -0.583043 -0.765334
v 0.618062 -0.485468 -0.778802
v 0.690278 -0.371485 -0.791584
v 0.738832 -0.245475 -0.803188
v 0.761857 -0.112281 -0.813170
v 0.758468 0.022980 -0.821144
v 0.728796 0.155110 -0.826806
v 0.673981 0.279029 -0.829936
v 0.596129 0.389978 -0.830415
v 0.498233 0.483690 -0.828225
v 0.384054 0.556567 -0.823450
v 0.257980 0.605806 -0.816272
v 0.124857 0.629516 -0.806968
v -0.010201 0.626785 -0.795896
v -0.114161 0.618744 -0.438680
v -0.237641 0.564459 -0.425399
v -0.348054 0.487042 -0.411763
v -0.441158 0.389467 -0.398295
v -0.513374 0.275484 -0.385513
v -0.561928 0.149474 -0.373908
v -0.584953 0.016279 -0.363926
v -0.581564 -0.118981 -0.355952
v -0.551892 -0.251111 -0.350290
v -0.497077 -0.375030 -0.347160
v -0.419225 -0.485979 -0.346681
v -0.321329 -0.579691 -0.348871
v -0.207150 -0.652568 -0.353647
v -0.081076 -0.701807 -0.360824
v 0.052047 -0.725517 -0.370128
v 0.187105 -0.722786 -0.381200
v 0.318906 -0.693719 -0.393615
v 0.442386 -0.639434 -0.406896
v 0.552800 -0.562017 -0.420533
v 0.645904 -0.464442 -0.434001
v 0.718120 -0.350459 -0.446783
v 0.766674 -0.224449 -0.458387
v 0.789699 -0.091254 -0.468369
v 0.786310 0.044006 -0.476343
v 0.756638 0.176136 -0.482005
v 0.701823 0.300055 -0.485135
v 0.623971 0.411004 -0.485615
v 0.526075 0.504716 -0.483424
v 0.411896 0.577593 -0.478649
v 0.285822 0.626832 -0.471471
v 0.152698 0.650542 -0.462167
v 0.017641 0.647811 -0.451095
vn 0.0803 0.0607 0.9949
vn -0.2776 0.6395 0.7170
vn -0.1555 0.6931 0.7039
vn -0.3867 0.5629 0.7305
vn -0.4788 0.4664 0.7438
vn -0.5502 0.3537 0.7564
vn -0.5982 0.2291 0.7679
vn -0.6210 0.0974 0.7778
vn -0.6176 -0.0363 0.7857
vn -0.5883 -0.1669 0.7912
vn -0.5341 -0.2895 0.7943
vn -0.4571 -0.3992 0.7948
vn -0.3603 -0.4918 0.7927
vn -0.2474 -0.5639 0.7879
vn -0.1228 -0.6126 0.7808
vn 0.0089 -0.6360 0.7716
vn 0.1424 -0.6333 0.7607
vn 0.2727 -0.6046 0.7484
vn 0.3948 -0.5509 0.7353
vn 0.5040 -0.4743 0.7218
vn 0.5960 -0.3779 0.7085
vn 0.6675 -0.2652 0.6958
vn 0.7155 -0.1406 0.6844
vn 0.7382 -0.0089 0.6745
vn 0.7349 0.1249 0.6666
vn 0.7055 0.2555 0.6610
vn 0.6513 0.3780 0.6579
vn 0.5744 0.4877 0.6574
vn 0.4776 0.5804 0.6596
vn 0.3647 0.6524 0.6643
vn 0.2400 0.7011 0.6714
vn 0.1084 0.7246 0.6806
vn -0.0251 0.7219 0.6916
vn 0.2321 -0.2184 0.9479
vn 0.1755 -0.2433 0.9540
vn 0.2827 -0.1829 0.9416
vn 0.3253 -0.1382 0.9354
vn 0.3584 -0.0859 0.9296
vn 0.3807 -0.0282 0.9243
vn 0.3913 0.0329 0.9197
vn 0.3897 0.0949 0.9160
vn 0.3761 0.1555 0.9134
vn 0.3510 0.2123 0.9120
vn 0.3153 0.2631 0.9118
vn 0.2704 0.3061 0.9128
vn 0.2181 0.3395 0.9150
vn 0.1603 0.3621 0.9183
vn 0.0993 0.3729 0.9225
vn 0.0374 0.3717 0.9276
vn -0.0231 0.3583 0.9333
vn -0.0797 0.3335 0.9394
vn -0.1303 0.2980 0.9456
vn -0.1729 0.2533 0.9518
vn -0.2061 0.2010 0.9577
vn -0.2283 0.1432 0.9630
vn -0.2389 0.0822 0.9676
vn -0.2373 0.0202 0.9712
vn -0.2237 -0.0404 0.9738
vn -0.1986 -0.0972 0.9753
vn -0.1629 -0.1480 0.9755
vn -0.1180 -0.1910 0.9745
vn -0.0657 -0.2244 0.9723
vn -0.0079 -0.2470 0.9690
vn 0.0531 -0.2578 0.9647
vn 0.1150 -0.2566 0.9597
vn -0.3029 0.6753 0.6725
vn -0.1729 0.7325 0.6585
vn -0.4191 0.5938 0.6868
vn -0.5171 0.4911 0.7010
vn -0.5931 0.3711 0.7145
vn -0.6443 0.2384 0.7267
vn -0.6685 0.0982 0.7372
vn -0.6649 -0.0442 0.7456
vn -0.6337 -0.1833 0.7516
vn -0.5760 -0.3137 0.7549
vn -0.4940 -0.4306 0.7554
vn -0.3910 -0.5292 0.7530
vn -0.2708 -0.6059 0.7480
vn -0.1380 -0.6578 0.7405
vn 0.0021 -0.6827 0.7307
vn 0.1443 -0.6799 0.7190
vn 0.2830 -0.6493 0.7059
vn 0.4130 -0.5921 0.6920
vn 0.5293 -0.5106 0.6776
vn 0.6273 -0.4079 0.6634
vn 0.7033 -0.2879 0.6500
vn 0.7544 -0.1552 0.6378
vn 0.7787 -0.0150 0.6272
vn 0.7751 0.1274 0.6189
vn 0.7439 0.2665 0.6129
vn 0.6862 0.3970 0.6096
vn 0.6042 0.5138 0.6091
vn 0.5011 0.6124 0.6114
vn 0.3809 0.6891 0.6164
vn 0.2482 0.7410 0.6240
vn 0.1081 0.7659 0.6338
vn -0.0341 0.7631 0.6454
vn 0.1413 -0.0489 0.9888
vn 0.1190 -0.0588 0.9912
vn 0.1614 -0.0349 0.9863
vn 0.1782 -0.0172 0.9838
vn 0.1913 0.0035 0.9815
vn 0.2001 0.0263 0.9794
vn 0.2043 0.0504 0.9776
vn 0.2037 0.0750 0.9762
vn 0.1983 0.0989 0.9751
vn 0.1884 0.1214 0.9746
vn 0.1743 0.1415 0.9745
vn 0.1565 0.1585 0.9749
vn 0.1358 0.1717 0.9757
vn 0.1130 0.1806 0.9770
vn 0.0888 0.1849 0.9787
vn 0.0643 0.1844 0.9807
vn 0.0404 0.1792 0.9830
vn 0.0181 0.1693 0.9854
vn -0.0020 0.1553 0.9879
vn -0.0188 0.1376 0.9903
vn -0.0319 0.1169 0.9926
vn -0.0407 0.0941 0.9947
vn -0.0449 0.0699 0.9965
vn -0.0443 0.0454 0.9980
vn -0.0389 0.0215 0.9990
vn -0.0290 -0.0010 0.9996
vn -0.0149 -0.0211 0.9997
vn 0.0029 -0.0381 0.9993
vn 0.0236 -0.0513 0.9984
vn 0.0464 -0.0602 0.9971
vn 0.0706 -0.0645 0.9954
vn 0.0951 -0.0640 0.9934
vn 0.2776 -0.3070 0.9103
vn 0.2033 -0.3397 0.9183
vn 0.3441 -0.2604 0.9021
vn 0.4001 -0.2017 0.8940
vn 0.4435 -0.1331 0.8863
vn 0.4727 -0.0573 0.8793
vn 0.4866 0.0228 0.8733
vn 0.4846 0.1042 0.8685
vn 0.4667 0.1837 0.8651
vn 0.4337 0.2583 0.8632
vn 0.3869 0.3250 0.8630
vn 0.3280 0.3814 0.8643
vn 0.2593 0.4252 0.8671
vn 0.1834 0.4549 0.8715
vn 0.1033 0.4691 0.8771
vn 0.0221 0.4675 0.8837
vn -0.0572 0.4500 0.8912
vn -0.1315 0.4173 0.8992
vn -0.1980 0.3708 0.9074
vn -0.2540 0.3121 0.9155
vn -0.2974 0.2435 0.9232
vn -0.3266 0.1677 0.9302
vn -0.3405 0.0875 0.9362
vn -0.3384 0.0061 0.9410
vn -0.3206 -0.0734 0.9444
vn -0.2876 -0.1479 0.9463
vn -0.2408 -0.2147 0.9465
vn -0.1819 -0.2711 0.9452
vn -0.1132 -0.3149 0.9424
vn -0.0373 -0.3445 0.9380
vn 0.0428 -0.3588 0.9324
vn 0.1240 -0.3571 0.9258
vn 0.1729 -0.7325 -0.6585
vn 0.3029 -0.6753 -0.6725
vn 0.4191 -0.5938 -0.6868
vn 0.5171 -0.4911 -0.7010
vn 0.5932 -0.3711 -0.7145
vn 0.6443 -0.2384 -0.7267
vn 0.6685 -0.0982 -0.7372
vn 0.6649 0.0442 -0.7456
vn 0.6337 0.1833 -0.7516
vn 0.5760 0.3138 -0.7548
vn 0.4940 0.4306 -0.7554
vn 0.3910 0.5292 -0.7530
vn 0.2708 0.6059 -0.7480
vn 0.1380 0.6578 -0.7405
vn -0.0021 0.6827 -0.7307
vn -0.1443 0.6799 -0.7190
vn -0.2830 0.6493 -0.7059
vn -0.4130 0.5921 -0.6920
vn -0.5293 0.5106 -0.6776
vn -0.6273 0.4079 -0.6634
vn -0.7033 0.2879 -0.6500
vn -0.7544 0.1552 -0.6377
vn -0.7787 0.0150 -0.6272
vn -0.7751 -0.1274 -0.6188
vn -0.7439 -0.2665 -0.6129
vn -0.6862 -0.3970 -0.6096
vn -0.6042 -0.5138 -0.6091
vn -0.5011 -0.6124 -0.6114
vn -0.3809 -0.6891 -0.6164
vn -0.2482 -0.7410 -0.6240
vn -0.1081 -0.7659 -0.6338
vn 0.0341 -0.7631 -0.6454
vt 0.000000 0.000000
s 1
f 55/1/24 56/1/25 120/1/89 119/1/88
f 33/1/2 34/1/3 1/1/1 2/1/1
f 35/1/4 33/1/2 2/1/1 3/1/1
f 36/1/5 35/1/4 3/1/1 4/1/1
f 37/1/6 36/1/5 4/1/1 5/1/1
f 38/1/7 37/1/6 5/1/1 6/1/1
f 39/1/8 38/1/7 6/1/1 7/1/1
f 40/1/9 39/1/8 7/1/1 8/1/1
f 41/1/10 40/1/9 8/1/1 9/1/1
f 42/1/11 41/1/10 9/1/1 10/1/1
f 43/1/12 42/1/11 10/1/1 11/1/1
f 44/1/13 43/1/12 11/1/1 12/1/1
f 45/1/14 44/1/13 12/1/1 13/1/1
f 46/1/15 45/1/14 13/1/1 14/1/1
f 47/1/16 46/1/15 14/1/1 15/1/1
f 48/1/17 47/1/16 15/1/1 16/1/1
f 49/1/18 48/1/17 16/1/1 17/1/1
f 50/1/19 49/1/18 17/1/1 18/1/1
f 51/1/20 50/1/19 18/1/1 19/1/1
f 52/1/21 51/1/20 19/1/1 20/1/1
f 53/1/22 52/1/21 20/1/1 21/1/1
f 54/1/23 53/1/22 21/1/1 22/1/1
f 55/1/24 54/1/23 22/1/1 23/1/1
f 56/1/25 55/1/24 23/1/1 24/1/1
f 57/1/26 56/1/25 24/1/1 25/1/1
f 58/1/27 57/1/26 25/1/1 26/1/1
f 59/1/28 58/1/27 26/1/1 27/1/1
f 60/1/29 59/1/28 27/1/1 28/1/1
f 61/1/30 60/1/29 28/1/1 29/1/1
f 62/1/31 61/1/30 29/1/1 30/1/1
f 63/1/32 62/1/31 30/1/1 31/1/1
f 64/1/33 63/1/32 31/1/1 32/1/1
f 34/1/3 64/1/33 32/1/1 1/1/1
f 65/1/34 67/1/36 68/1/37 69/1/38 70/1/39 71/1/40 72/1/41 73/1/42 74/1/43 75/1/44 76/1/45 77/1/46 78/1/47 79/1/48 80/1/49 81/1/50 82/1/51 83/1/52 84/1/53 85/1/54 86/1/55 87/1/56 88/1/57 89/1/58 90/1/59 91/1/60 92/1/61 93/1/62 94/1/63 95/1/64 96/1/65 66/1/35
f 42/1/11 43/1/12 107/1/76 106/1/75
f 56/1/25 57/1/26 121/1/90 120/1/89
f 43/1/12 44/1/13 108/1/77 107/1/76
f 57/1/26 58/1/27 122/1/91 121/1/90
f 44/1/13 45/1/14 109/1/78 108/1/77
f 58/1/27 59/1/28 123/1/92 122/1/91
f 45/1/14 46/1/15 110/1/79 109/1/78
f 59/1/28 60/1/29 124/1/93 123/1/92
f 46/1/15 47/1/16 111/1/80 110/1/79
f 34/1/3 33/1/2 97/1/66 98/1/67
f 60/1/29 61/1/30 125/1/94 124/1/93
f 47/1/16 48/1/17 112/1/81 111/1/80
f 33/1/2 35/1/4 99/1/68 97/1/66
f 61/1/30 62/1/31 126/1/95 125/1/94
f 48/1/17 49/1/18 113/1/82 112/1/81
f 35/1/4 36/1/5 100/1/69 99/1/68
f 62/1/31 63/1/32 127/1/96 126/1/95
f 49/1/18 50/1/19 114/1/83 113/1/82
f 36/1/5 37/1/6 101/1/70 100/1/69
f 63/1/32 64/1/33 128/1/97 127/1/96
f 50/1/19 51/1/20 115/1/84 114/1/83
f 37/1/6 38/1/7 102/1/71 101/1/70
f 64/1/33 34/1/3 98/1/67 128/1/97
f 51/1/20 52/1/21 116/1/85 115/1/84
f 38/1/7 39/1/8 103/1/72 102/1/71
f 52/1/21 53/1/22 117/1/86 116/1/85
f 39/1/8 40/1/9 104/1/73 103/1/72
f 53/1/22 54/1/23 118/1/87 117/1/86
f 40/1/9 41/1/10 105/1/74 104/1/73
f 54/1/23 55/1/24 119/1/88 118/1/87
f 41/1/10 42/1/11 106/1/75 105/1/74
f 161/1/1 162/1/1 98/1/67 97/1/66
f 163/1/1 161/1/1 97/1/66 99/1/68
f 164/1/1 163/1/1 99/1/68 100/1/69
f 165/1/1 164/1/1 100/1/69 101/1/70
f 166/1/1 165/1/1 101/1/70 102/1/71
f 167/1/1 166/1/1 102/1/71 103/1/72
f 168/1/1 167/1/1 103/1/72 104/1/73
f 169/1/1 168/1/1 104/1/73 105/1/74
f 170/1/1 169/1/1 105/1/74 106/1/75
f 171/1/1 170/1/1 106/1/75 107/1/76
f 172/1/1 171/1/1 107/1/76 108/1/77
f 173/1/1 172/1/1 108/1/77 109/1/78
f 174/1/1 173/1/1 109/1/78 110/1/79
f 175/1/1 174/1/1 110/1/79 111/1/80
f 176/1/1 175/1/1 111/1/80 112/1/81
f 177/1/1 176/1/1 112/1/81 113/1/82
f 178/1/1 177/1/1 113/1/82 114/1/83
f 179/1/1 178/1/1 114/1/83 115/1/84
f 180/1/1 179/1/1 115/1/84 116/1/85
f 181/1/1 180/1/1 116/1/85 117/1/86
f 182/1/1 181/1/1 117/1/86 118/1/87
f 183/1/1 182/1/1 118/1/87 119/1/88
f 184/1/1 183/1/1 119/1/88 120/1/89
f 185/1/1 184/1/1 120/1/89 121/1/90
f 186/1/1 185/1/1 121/1/90 122/1/91
f 187/1/1 186/1/1 122/1/91 123/1/92
f 188/1/1 187/1/1 123/1/92 124/1/93
f 189/1/1 188/1/1 124/1/93 125/1/94
f 190/1/1 189/1/1 125/1/94 126/1/95
f 191/1/1 190/1/1 126/1/95 127/1/96
f 192/1/1 191/1/1 127/1/96 128/1/97
f 162/1/1 192/1/1 128/1/97 98/1/67
f 193/1/130 194/1/131 130/1/99 129/1/98
f 195/1/132 193/1/130 129/1/98 131/1/100
f 196/1/133 195/1/132 131/1/100 132/1/101
f 197/1/134 196/1/133 132/1/101 133/1/102
f 198/1/135 197/1/134 133/1/102 134/1/103
f 199/1/136 198/1/135 134/1/103 135/1/104
f 200/1/137 199/1/136 135/1/104 136/1/105
f 201/1/138 200/1/137 136/1/105 137/1/106
f 202/1/139 201/1/138 137/1/106 138/1/107
f 203/1/140 202/1/139 138/1/107 139/1/108
f 204/1/141 203/1/140 139/1/108 140/1/109
f 205/1/142 204/1/141 140/1/109 141/1/110
f 206/1/143 205/1/142 141/1/110 142/1/111
f 207/1/144 206/1/143 142/1/111 143/1/112
f 208/1/145 207/1/144 143/1/112 144/1/113
f 209/1/146 208/1/145 144/1/113 145/1/114
f 210/1/147 209/1/146 145/1/114 146/1/115
f 211/1/148 210/1/147 146/1/115 147/1/116
f 212/1/149 211/1/148 147/1/116 148/1/117
f 213/1/150 212/1/149 148/1/117 149/1/118
f 214/1/151 213/1/150 149/1/118 150/1/119
f 215/1/152 214/1/151 150/1/119 151/1/120
f 216/1/153 215/1/152 151/1/120 152/1/121
f 217/1/154 216/1/153 152/1/121 153/1/122
f 218/1/155 217/1/154 153/1/122 154/1/123
f 219/1/156 218/1/155 154/1/123 155/1/124
f 220/1/157 219/1/156 155/1/124 156/1/125
f 221/1/158 220/1/157 156/1/125 157/1/126
f 222/1/159 221/1/158 157/1/126 158/1/127
f 223/1/160 222/1/159 158/1/127 159/1/128
f 224/1/161 223/1/160 159/1/128 160/1/129
f 194/1/131 224/1/161 160/1/129 130/1/99
f 130/1/99 160/1/129 192/1/1 162/1/1
f 160/1/129 159/1/128 191/1/1 192/1/1
f 159/1/128 158/1/127 190/1/1 191/1/1
f 158/1/127 157/1/126 189/1/1 190/1/1
f 157/1/126 156/1/125 188/1/1 189/1/1
f 156/1/125 155/1/124 187/1/1 188/1/1
f 155/1/124 154/1/123 186/1/1 187/1/1
f 154/1/123 153/1/122 185/1/1 186/1/1
f 153/1/122 152/1/121 184/1/1 185/1/1
f 152/1/121 151/1/120 183/1/1 184/1/1
f 151/1/120 150/1/119 182/1/1 183/1/1
f 150/1/119 149/1/118 181/1/1 182/1/1
f 149/1/118 148/1/117 180/1/1 181/1/1
f 148/1/117 147/1/116 179/1/1 180/1/1
f 147/1/116 146/1/115 178/1/1 179/1/1
f 146/1/115 145/1/114 177/1/1 178/1/1
f 145/1/114 144/1/113 176/1/1 177/1/1
f 144/1/113 143/1/112 175/1/1 176/1/1
f 143/1/112 142/1/111 174/1/1 175/1/1
f 142/1/111 141/1/110 173/1/1 174/1/1
f 141/1/110 140/1/109 172/1/1 173/1/1
f 140/1/109 139/1/108 171/1/1 172/1/1
f 139/1/108 138/1/107 170/1/1 171/1/1
f 138/1/107 137/1/106 169/1/1 170/1/1
f 137/1/106 136/1/105 168/1/1 169/1/1
f 136/1/105 135/1/104 167/1/1 168/1/1
f 135/1/104 134/1/103 166/1/1 167/1/1
f 134/1/103 133/1/102 165/1/1 166/1/1
f 133/1/102 132/1/101 164/1/1 165/1/1
f 132/1/101 131/1/100 163/1/1 164/1/1
f 131/1/100 129/1/98 161/1/1 163/1/1
f 129/1/98 130/1/99 162/1/1 161/1/1
f 66/1/35 96/1/65 224/1/161 194/1/131
f 96/1/65 95/1/64 223/1/160 224/1/161
f 95/1/64 94/1/63 222/1/159 223/1/160
f 94/1/63 93/1/62 221/1/158 222/1/159
f 93/1/62 92/1/61 220/1/157 221/1/158
f 92/1/61 91/1/60 219/1/156 220/1/157
f 91/1/60 90/1/59 218/1/155 219/1/156
f 90/1/59 89/1/58 217/1/154 218/1/155
f 89/1/58 88/1/57 216/1/153 217/1/154
f 88/1/57 87/1/56 215/1/152 216/1/153
f 87/1/56 86/1/55 214/1/151 215/1/152
f 86/1/55 85/1/54 213/1/150 214/1/151
f 85/1/54 84/1/53 212/1/149 213/1/150
f 84/1/53 83/1/52 211/1/148 212/1/149
f 83/1/52 82/1/51 210/1/147 211/1/148
f 82/1/51 81/1/50 209/1/146 210/1/147
f 81/1/50 80/1/49 208/1/145 209/1/146
f 80/1/49 79/1/48 207/1/144 208/1/145
f 79/1/48 78/1/47 206/1/143 207/1/144
f 78/1/47 77/1/46 205/1/142 206/1/143
f 77/1/46 76/1/45 204/1/141 205/1/142
f 76/1/45 75/1/44 203/1/140 204/1/141
f 75/1/44 74/1/43 202/1/139 203/1/140
f 74/1/43 73/1/42 201/1/138 202/1/139
f 73/1/42 72/1/41 200/1/137 201/1/138
f 72/1/41 71/1/40 199/1/136 200/1/137
f 71/1/40 70/1/39 198/1/135 199/1/136
f 70/1/39 69/1/38 197/1/134 198/1/135
f 69/1/38 68/1/37 196/1/133 197/1/134
f 68/1/37 67/1/36 195/1/132 196/1/133
f 67/1/36 65/1/34 193/1/130 195/1/132
f 65/1/34 66/1/35 194/1/131 193/1/130
f 6/1/1 5/1/1 229/1/86 230/1/87
f 1/1/1 32/1/1 256/1/81 225/1/82
f 20/1/1 19/1/1 243/1/68 244/1/69
f 7/1/1 6/1/1 230/1/87 231/1/88
f 21/1/1 20/1/1 244/1/69 245/1/70
f 8/1/1 7/1/1 231/1/88 232/1/89
f 22/1/1 21/1/1 245/1/70 246/1/71
f 9/1/1 8/1/1 232/1/89 233/1/90
f 23/1/1 22/1/1 246/1/71 247/1/72
f 10/1/1 9/1/1 233/1/90 234/1/91
f 24/1/1 23/1/1 247/1/72 248/1/73
f 11/1/1 10/1/1 234/1/91 235/1/92
f 25/1/1 24/1/1 248/1/73 249/1/74
f 12/1/1 11/1/1 235/1/92 236/1/93
f 26/1/1 25/1/1 249/1/74 250/1/75
f 13/1/1 12/1/1 236/1/93 237/1/94
f 27/1/1 26/1/1 250/1/75 251/1/76
f 14/1/1 13/1/1 237/1/94 238/1/95
f 28/1/1 27/1/1 251/1/76 252/1/77
f 15/1/1 14/1/1 238/1/95 239/1/96
f 2/1/1 1/1/1 225/1/82 226/1/83
f 29/1/1 28/1/1 252/1/77 253/1/78
f 16/1/1 15/1/1 239/1/96 240/1/97
f 3/1/1 2/1/1 226/1/83 227/1/84
f 30/1/1 29/1/1 253/1/78 254/1/79
f 17/1/1 16/1/1 240/1/97 241/1/67
f 4/1/1 3/1/1 227/1/84 228/1/85
f 31/1/1 30/1/1 254/1/79 255/1/80
f 18/1/1 17/1/1 241/1/67 242/1/66
f 5/1/1 4/1/1 228/1/85 229/1/86
f 32/1/1 31/1/1 255/1/80 256/1/81
f 19/1/1 18/1/1 242/1/66 243/1/68
f 248/1/73 247/1/72 279/1/184 280/1/185
f 235/1/92 234/1/91 266/1/171 267/1/172
f 249/1/74 248/1/73 280/1/185 281/1/186
f 236/1/93 235/1/92 267/1/172 268/1/173
f 250/1/75 249/1/74 281/1/186 282/1/187
f 237/1/94 236/1/93 268/1/173 269/1/174
f 251/1/76 250/1/75 282/1/187 283/1/188
f 238/1/95 237/1/94 269/1/174 270/1/175
f 252/1/77 251/1/76 283/1/188 284/1/189
f 239/1/96 238/1/95 270/1/175 271/1/176
f 226/1/83 225/1/82 257/1/162 258/1/163
f 253/1/78 252/1/77 284/1/189 285/1/190
f 240/1/97 239/1/96 271/1/176 272/1/177
f 227/1/84 226/1/83 258/1/163 259/1/164
f 254/1/79 253/1/78 285/1/190 286/1/191
f 241/1/67 240/1/97 272/1/177 273/1/178
f 228/1/85 227/1/84 259/1/164 260/1/165
f 255/1/80 254/1/79 286/1/191 287/1/192
f 242/1/66 241/1/67 273/1/178 274/1/179
f 229/1/86 228/1/85 260/1/165 261/1/166
f 256/1/81 255/1/80 287/1/192 288/1/193
f 243/1/68 242/1/66 274/1/179 275/1/180
f 230/1/87 229/1/86 261/1/166 262/1/167
f 225/1/82 256/1/81 288/1/193 257/1/162
f 244/1/69 243/1/68 275/1/180 276/1/181
f 231/1/88 230/1/87 262/1/167 263/1/168
f 245/1/70 244/1/69 276/1/181 277/1/182
f 232/1/89 231/1/88 263/1/168 264/1/169
f 246/1/71 245/1/70 277/1/182 278/1/183
f 233/1/90 232/1/89 264/1/169 265/1/170
f 247/1/72 246/1/71 278/1/183 279/1/184
f 234/1/91 233/1/90 265/1/170 266/1/171
f 258/1/163 257/1/162 288/1/193 287/1/192 286/1/191 285/1/190 284/1/189 283/1/188 282/1/187 281/1/186 280/1/185 279/1/184 278/1/183 277/1/182 276/1/181 275/1/180 274/1/179 273/1/178 272/1/177 271/1/176 270/1/175 269/1/174 268/1/173 267/1/172 266/1/171 265/1/170 264/1/169 263/1/168 262/1/167 261/1/166 260/1/165 259/1/164
