# Blender 5.1.0
# www.blender.org
mtllib SpellCircleLP.mtl
o Circle
v -1.213712 -0.000555 0.000058
v -1.121153 0.464767 0.000058
v -0.857570 0.859248 0.000058
v -0.463088 1.122832 0.000058
v 0.002234 1.215390 0.000058
v 0.467556 1.122832 0.000058
v 0.862036 0.859248 0.000058
v 1.125620 0.464767 0.000058
v 1.218179 -0.000555 0.000058
v 1.125620 -0.465877 0.000058
v 0.862037 -0.860358 0.000058
v 0.467556 -1.123942 0.000058
v 0.002234 -1.216500 0.000058
v -0.463088 -1.123942 0.000058
v -0.857570 -0.860358 0.000058
v -1.121153 -0.465877 0.000058
v -2.263815 -0.000549 0.000059
v -2.054265 1.024993 0.000060
v -1.608507 1.610190 0.000057
v -1.023309 2.055948 0.000060
v 0.002232 2.265498 0.000059
v 0.731233 2.178779 0.000060
v 1.604570 1.601789 0.000059
v 2.058731 1.024996 0.000060
v 2.268280 -0.000549 0.000059
v 2.181575 -0.729533 0.000060
v 1.604570 -1.602887 0.000059
v 1.027798 -2.057047 0.000060
v 0.002233 -2.266597 0.000059
v -1.023328 -2.057048 0.000060
v -1.600105 -1.602887 0.000059
v -2.177105 -0.729542 0.000060
v -1.182859 0.154552 0.000058
v -0.945431 0.727754 0.000058
v -0.726076 0.947108 0.000058
v -0.726076 0.947109 0.000058
v -0.152874 1.184537 0.000058
v 0.157341 1.184537 0.000058
v 0.730543 0.947109 0.000058
v 0.949898 0.727754 0.000058
v 1.187326 0.154552 0.000058
v 1.187326 -0.155662 0.000058
v 0.949898 -0.728864 0.000058
v 0.730542 -0.948218 0.000058
v 0.730543 -0.948219 0.000058
v 0.157341 -1.185647 0.000058
v -0.152874 -1.185647 0.000058
v -0.726076 -0.948219 0.000058
v -0.945431 -0.728864 0.000058
v -1.182858 -0.155662 0.000058
v -2.211085 0.538378 0.000059
v -0.536706 2.212762 0.000059
v 1.186199 1.945583 0.000059
v 2.215554 0.538368 0.000059
v 1.948354 -1.184549 0.000059
v 0.541124 -2.213882 0.000059
v -0.536656 -2.213882 0.000059
v -1.943882 -1.184555 0.000059
v -0.141861 1.667946 0.000058
v -0.212399 1.561742 0.000058
v 0.146328 1.667946 0.000058
v 0.213508 1.562619 0.000058
v 1.080152 1.281143 0.000058
v 1.283931 1.077364 0.000058
v 1.255149 0.953477 0.000058
v -1.249790 0.950808 0.000058
v -1.075686 1.281143 0.000018
v 1.670734 0.143539 0.000058
v 1.670734 -0.144649 0.000058
v 1.563640 -0.214762 0.000058
v -1.639559 0.181263 0.000058
v -1.564141 0.207265 0.000058
v -1.666267 -0.144649 0.000058
v -1.559854 -0.211858 0.000058
v 1.283932 -1.078474 0.000058
v 1.080152 -1.282253 0.000058
v 0.957383 -1.254531 0.000058
v 0.146328 -1.669056 0.000058
v -0.141861 -1.669056 0.000058
v -0.212708 -1.563501 0.000058
v -1.075685 -1.282253 0.000058
v -1.279464 -1.078474 0.000058
v -0.951875 -0.954664 0.000058
v -1.104676 -1.107466 0.000058
v 0.002234 -1.349869 0.000058
v 0.002234 -1.565963 0.000058
v 0.956342 -0.954664 0.000058
v 1.109144 -1.107466 0.000058
v -1.347080 -0.000555 0.000058
v -1.563174 -0.000555 0.000058
v 1.351547 -0.000555 0.000058
v 1.567642 -0.000555 0.000058
v -0.951875 0.953554 0.000058
v -1.104671 1.106357 -0.002201
v 0.956342 0.953554 0.000058
v 1.109144 1.106356 0.000058
v 0.002234 1.348758 0.000058
v 0.002234 1.564853 0.000058
v -2.345713 -0.000500 0.000058
v -2.168195 0.941401 0.000060
v -1.657977 1.659732 0.000058
v -0.866426 2.200235 0.000060
v 0.002289 2.347392 0.000058
v 0.905841 2.180946 0.000058
v 1.662443 1.659733 0.000058
v 2.172662 0.941403 0.000060
v 2.350180 -0.000500 0.000058
v 2.193859 -0.908356 0.000061
v 1.662444 -1.660842 0.000058
v 0.870893 -2.201345 0.000060
v 0.002234 -2.348493 0.000058
v -0.866425 -2.201345 0.000060
v -1.657976 -1.660843 0.000058
v -2.189391 -0.908357 0.000061
v -1.279071 1.077793 -0.001071
v -1.639559 0.181263 0.000058
v -0.105540 1.899036 0.000057
v 0.110160 1.898484 0.000057
v 1.421369 1.265952 0.000057
v -1.417988 1.278442 -0.002624
v -1.263574 1.418193 -0.000012
v 1.901265 -0.108481 0.000057
v -1.896801 -0.108481 0.000057
v 1.268734 -1.419687 0.000057
v -0.105695 -1.899584 0.000057
v -0.288050 1.769409 0.000049
v -0.477993 1.688241 0.000048
v -0.664816 1.609844 0.000046
v -0.822270 1.564167 0.000058
v -0.848158 1.509541 0.000047
v -1.044059 1.456260 0.000049
v -0.278933 1.632404 0.000058
v -0.382850 1.543633 0.000058
v -0.527710 1.482185 0.000058
v -0.671497 1.422627 0.000058
v -0.817378 1.363645 0.000058
v -0.953704 1.254170 0.000058
v 1.268738 1.418586 0.000057
v 0.292516 1.769409 0.000049
v 0.482460 1.688241 0.000048
v 0.669282 1.609843 0.000046
v 0.856822 1.533175 0.000048
v 1.048527 1.456260 0.000049
v 0.283400 1.632404 0.000058
v 0.387317 1.543633 0.000058
v 0.532177 1.482185 0.000058
v 0.675963 1.422627 0.000058
v 0.821844 1.363646 0.000058
v 0.958095 1.352936 0.000058
v 0.958171 1.254170 0.000058
v 1.901268 0.107375 0.000057
v 1.459048 1.045739 0.000049
v 1.535963 0.854033 0.000048
v 1.612633 0.666494 0.000046
v 1.691029 0.479671 0.000048
v 1.772198 0.289728 0.000050
v 1.355724 0.955307 0.000058
v 1.366434 0.819056 0.000058
v 1.425416 0.673174 0.000058
v 1.484974 0.529388 0.000058
v 1.546421 0.384528 0.000058
v 1.635193 0.280612 0.000058
v 1.565674 0.214621 0.000058
v 1.421369 -1.267054 0.000057
v 1.772199 -0.290838 0.000050
v 1.691029 -0.480780 0.000048
v 1.612633 -0.667604 0.000046
v 1.535963 -0.855143 0.000048
v 1.459049 -1.046848 0.000050
v 1.635192 -0.281721 0.000058
v 1.546421 -0.385638 0.000058
v 1.484974 -0.530498 0.000058
v 1.425416 -0.674284 0.000058
v 1.366434 -0.820166 0.000058
v 1.355725 -0.956417 0.000058
v 1.257515 -0.957078 0.000058
v 0.110162 -1.899583 0.000057
v 1.048526 -1.457370 0.000050
v 0.856822 -1.534285 0.000048
v 0.669283 -1.610954 0.000046
v 0.482459 -1.689351 0.000048
v 0.292517 -1.770519 0.000050
v 0.958096 -1.354046 0.000058
v 0.821845 -1.364755 0.000058
v 0.675963 -1.423737 0.000058
v 0.532177 -1.483295 0.000058
v 0.387317 -1.544743 0.000058
v 0.283400 -1.633514 0.000058
v 0.213487 -1.564537 0.000058
v -0.278933 -1.633514 0.000058
v -0.382850 -1.544743 0.000058
v -0.527710 -1.483295 0.000058
v -0.671496 -1.423737 0.000058
v -0.817377 -1.364756 0.000058
v -0.952915 -1.254532 0.000058
v -1.264269 -1.419688 0.000057
v -0.288049 -1.770519 0.000050
v -0.477993 -1.689351 0.000048
v -0.664815 -1.610954 0.000046
v -0.852355 -1.534285 0.000048
v -1.044060 -1.457370 0.000050
v -1.416903 -1.267055 0.000057
v -1.767732 -0.290838 0.000050
v -1.686562 -0.480781 0.000048
v -1.608166 -0.667604 0.000046
v -1.531496 -0.855144 0.000048
v -1.454581 -1.046849 0.000050
v -1.630726 -0.281722 0.000058
v -1.541954 -0.385639 0.000058
v -1.480507 -0.530498 0.000058
v -1.420948 -0.674285 0.000058
v -1.361967 -0.820166 0.000058
v -1.253048 -0.957078 0.000058
v -1.350292 0.955947 -0.003116
v -1.362566 0.818506 0.003283
v -1.421564 0.672127 0.002566
v -1.480885 0.528393 0.001797
v -1.542020 0.384052 0.000615
v -1.440068 1.136820 -0.002084
v -1.507181 1.006272 -0.001564
v -1.564095 0.832196 -0.001441
v -1.610061 0.671190 -0.001083
v -1.687612 0.482609 -0.000429
v -1.768000 0.291213 -0.000180
v -1.898122 0.106978 -0.000285
v -1.541831 0.641909 -0.000695
v -1.468402 0.819688 -0.000845
v -1.614616 0.463777 -0.000196
v -1.630938 0.280973 -0.000753
v -0.953629 1.352936 0.000058
v -0.637144 1.543039 0.000058
v -0.460115 1.615991 0.000058
v 0.464582 1.615991 0.000058
v 0.641611 1.543039 0.000058
v 0.818374 1.469446 0.000058
v 1.472233 0.815586 0.000058
v 1.545828 0.638822 0.000058
v 1.618779 0.461794 0.000058
v 1.618779 -0.462903 0.000058
v 1.545828 -0.639933 0.000058
v 1.472234 -0.816696 0.000058
v 0.818375 -1.470555 0.000058
v 0.641611 -1.544149 0.000058
v 0.464582 -1.617101 0.000058
v -0.460115 -1.617101 0.000058
v -0.637144 -1.544149 0.000058
v -0.813907 -1.470555 0.000058
v -0.953628 -1.354046 0.000058
v -1.351257 -0.956417 0.000058
v -1.467766 -0.816696 0.000058
v -1.541361 -0.639933 0.000058
v -1.614312 -0.462904 0.000058
v -1.246669 1.353421 -0.000214
v -1.292873 1.375196 -0.000553
v -1.353888 1.260556 -0.001874
v -1.376671 1.310995 -0.002168
v -1.472941 1.476533 -0.000705
v -0.072065 1.839957 0.000058
v 0.076532 1.839956 0.000058
v -0.054785 1.888026 0.000057
v 0.059250 1.888025 0.000057
v 1.251136 1.353421 0.000058
v 1.356207 1.248344 0.000058
v 1.297340 1.375193 0.000057
v 1.377972 1.294555 0.000057
v 1.842746 0.073743 0.000058
v 1.842741 -0.074854 0.000058
v 1.890808 0.056468 0.000057
v 1.890803 -0.057568 0.000057
v 1.356208 -1.249456 0.000058
v 1.251132 -1.354528 0.000058
v 1.377974 -1.295655 0.000057
v 1.297336 -1.376289 0.000057
v 0.076532 -1.841064 0.000058
v -0.072065 -1.841065 0.000058
v 0.059251 -1.889122 0.000057
v -0.054786 -1.889122 0.000057
v -1.246665 -1.354528 0.000058
v -1.351742 -1.249457 0.000058
v -1.292871 -1.376289 0.000057
v -1.373509 -1.295656 0.000057
v -1.838280 0.073743 0.000058
v -1.664006 0.122503 0.000058
v -1.838274 -0.074854 0.000058
v -1.886344 0.056468 0.000057
v -1.886339 -0.057568 0.000057
vn -0.0000 -0.0000 1.0000
vn -0.0010 -0.0034 1.0000
vn -0.0021 -0.0082 1.0000
vn -0.0030 -0.0122 0.9999
vn -0.0010 -0.0018 1.0000
vn -0.0000 -0.0001 1.0000
vn -0.0000 0.0001 1.0000
vn 0.0002 -0.0004 1.0000
vn -0.0004 0.0008 1.0000
vn -0.0004 0.0009 1.0000
vn -0.0001 -0.0001 1.0000
vn -0.0008 0.0030 1.0000
vn -0.0001 -0.0002 1.0000
vn -0.0002 -0.0001 1.0000
vn -0.0001 -0.0000 1.0000
vn -0.0002 0.0001 1.0000
vn -0.0001 0.0001 1.0000
vn -0.0001 0.0002 1.0000
vn 0.0001 0.0001 1.0000
vn 0.0001 0.0002 1.0000
vn 0.0001 -0.0000 1.0000
vn 0.0002 0.0001 1.0000
vn -0.0300 0.0299 0.9991
vn -0.0130 0.0142 0.9998
vn -0.0073 0.0072 0.9999
vn 0.0198 -0.0050 0.9998
vn -0.0079 -0.0017 1.0000
vn -0.0055 0.0026 1.0000
vn 0.0028 0.0026 1.0000
vn -0.0068 0.0061 1.0000
vn -0.0113 0.0068 0.9999
vn -0.0087 0.0054 0.9999
vn 0.0025 -0.0001 1.0000
vn -0.0041 0.0035 1.0000
vn -0.0202 0.0117 0.9997
vn -0.0065 0.0040 1.0000
vn -0.0287 0.0065 0.9996
vn -0.0077 -0.0027 1.0000
vn -0.0389 0.0108 0.9992
vn -0.0030 -0.0039 1.0000
vn -0.0067 -0.0080 0.9999
vn -0.0050 -0.0044 1.0000
vn -0.0081 -0.0087 0.9999
vn -0.0009 0.0016 1.0000
vn -0.0005 0.0009 1.0000
vn -0.0018 0.0039 1.0000
vn -0.0015 0.0056 1.0000
vn -0.0016 0.0064 1.0000
vn 0.0048 0.0100 0.9999
vn -0.0102 0.0018 0.9999
vn -0.0029 0.0084 1.0000
vn -0.0157 -0.0014 0.9999
vn -0.0059 0.0026 1.0000
vn 0.0096 -0.0009 1.0000
vn -0.0083 -0.0050 1.0000
vn -0.0076 -0.0059 1.0000
vn -0.0055 -0.0111 0.9999
vn 0.0009 -0.0001 1.0000
vn -0.0138 -0.0024 0.9999
vn -0.0117 -0.0001 0.9999
vn -0.0118 -0.0004 0.9999
vn -0.0010 0.0065 1.0000
vt 0.000000 0.000000
s 1
f 213/1/1 82/1/1 84/1/1
f 80/1/1 79/1/1 86/1/1
f 77/1/1 76/1/1 88/1/1
f 73/1/1 74/1/1 90/1/1
f 70/1/1 69/1/1 92/1/1
f 137/1/2 67/1/3 94/1/4
f 65/1/1 64/1/1 96/1/1
f 62/1/1 61/1/1 98/1/1
f 31/1/1 113/1/1 30/1/1
f 109/1/1 27/1/1 28/1/1
f 18/1/1 100/1/1 51/1/1
f 25/1/1 107/1/1 54/1/1
f 110/1/1 28/1/1 56/1/1
f 32/1/1 114/1/1 58/1/1
f 99/1/1 17/1/1 51/1/1
f 101/1/1 19/1/5 20/1/1
f 102/1/1 20/1/1 52/1/1
f 103/1/1 21/1/1 22/1/1
f 104/1/1 22/1/1 53/1/1
f 23/1/1 105/1/1 53/1/1
f 106/1/1 24/1/1 54/1/1
f 30/1/1 112/1/1 57/1/1
f 108/1/1 26/1/1 55/1/1
f 126/1/6 117/1/7 127/1/6
f 127/1/6 117/1/7 128/1/8
f 117/1/7 129/1/9 128/1/8
f 121/1/10 130/1/11 129/1/9
f 121/1/10 131/1/12 130/1/11
f 141/1/13 138/1/11 118/1/11
f 142/1/6 138/1/11 141/1/13
f 143/1/11 138/1/11 142/1/6
f 62/1/1 144/1/1 61/1/1
f 62/1/1 145/1/1 144/1/1
f 62/1/1 146/1/1 145/1/1
f 154/1/14 151/1/11 119/1/11
f 155/1/15 151/1/11 154/1/14
f 156/1/15 151/1/11 155/1/15
f 65/1/1 157/1/1 64/1/1
f 65/1/1 158/1/1 157/1/1
f 167/1/16 164/1/17 122/1/17
f 168/1/15 164/1/17 167/1/16
f 169/1/17 164/1/17 168/1/15
f 70/1/1 170/1/1 69/1/1
f 70/1/1 171/1/1 170/1/1
f 70/1/1 172/1/1 171/1/1
f 180/1/18 177/1/17 124/1/17
f 181/1/7 177/1/17 180/1/18
f 182/1/7 177/1/17 181/1/7
f 77/1/1 183/1/1 76/1/1
f 77/1/1 184/1/1 183/1/1
f 77/1/1 185/1/1 184/1/1
f 189/1/1 186/1/1 185/1/1
f 80/1/1 190/1/1 79/1/1
f 80/1/1 191/1/1 190/1/1
f 80/1/1 192/1/1 191/1/1
f 195/1/1 193/1/1 80/1/1
f 200/1/7 196/1/19 199/1/20
f 201/1/19 196/1/19 200/1/7
f 203/1/21 123/1/19 204/1/21
f 204/1/21 123/1/19 205/1/22
f 202/1/19 206/1/21 205/1/22
f 202/1/19 207/1/19 206/1/21
f 74/1/1 210/1/1 213/1/1
f 214/1/23 66/1/24 115/1/25
f 215/1/26 66/1/24 214/1/23
f 216/1/27 72/1/28 215/1/26
f 219/1/29 120/1/30 220/1/31
f 220/1/31 225/1/32 221/1/33
f 221/1/33 225/1/32 222/1/34
f 225/1/32 223/1/35 222/1/34
f 225/1/32 224/1/36 223/1/35
f 233/1/1 145/1/1 146/1/1
f 236/1/1 158/1/1 159/1/1
f 239/1/1 171/1/1 172/1/1
f 240/1/1 172/1/1 173/1/1
f 242/1/1 184/1/1 185/1/1
f 243/1/1 185/1/1 186/1/1
f 39/1/1 95/1/1 6/1/1
f 48/1/1 83/1/1 14/1/1
f 216/1/27 226/1/37 217/1/38
f 215/1/26 227/1/39 216/1/27
f 245/1/1 191/1/1 192/1/1
f 193/1/1 246/1/1 192/1/1
f 194/1/1 247/1/1 193/1/1
f 67/1/40 121/1/41 253/1/42
f 253/1/42 121/1/41 254/1/43
f 61/1/1 118/1/1 259/1/1
f 21/1/1 117/1/1 260/1/1
f 259/1/1 118/1/1 261/1/1
f 64/1/1 119/1/1 263/1/1
f 23/1/1 138/1/1 264/1/1
f 263/1/1 119/1/1 265/1/1
f 69/1/1 122/1/1 267/1/1
f 25/1/1 151/1/1 268/1/1
f 267/1/1 122/1/1 269/1/1
f 76/1/1 124/1/1 271/1/1
f 27/1/1 164/1/1 272/1/1
f 271/1/1 124/1/1 273/1/1
f 79/1/1 125/1/1 275/1/1
f 29/1/1 177/1/1 276/1/1
f 275/1/1 125/1/1 277/1/1
f 82/1/1 202/1/1 279/1/1
f 31/1/1 196/1/1 280/1/1
f 279/1/1 202/1/1 281/1/1
f 283/1/44 90/1/1 71/1/45
f 17/1/1 123/1/1 286/1/1
f 282/1/46 225/1/47 285/1/48
f 195/1/1 84/1/1 81/1/1
f 189/1/1 86/1/1 78/1/1
f 176/1/1 88/1/1 75/1/1
f 44/1/1 77/1/1 87/1/1
f 29/1/1 57/1/1 112/1/1 111/1/1
f 71/1/45 90/1/1 72/1/1
f 163/1/1 92/1/1 68/1/1
f 66/1/24 94/1/49 115/1/25
f 35/1/1 137/1/1 93/1/1
f 150/1/1 96/1/1 63/1/1
f 60/1/1 98/1/1 59/1/1
f 113/1/1 112/1/1 30/1/1
f 51/1/1 100/1/1 99/1/1
f 107/1/1 106/1/1 54/1/1
f 100/1/1 18/1/1 19/1/5 101/1/1
f 114/1/1 32/1/1 17/1/1 99/1/1
f 31/1/1 58/1/1 114/1/1 113/1/1
f 108/1/1 55/1/1 27/1/1 109/1/1
f 102/1/1 52/1/1 21/1/1 103/1/1
f 20/1/1 102/1/1 101/1/1
f 110/1/1 56/1/1 29/1/1 111/1/1
f 28/1/1 110/1/1 109/1/1
f 23/1/1 24/1/1 106/1/1 105/1/1
f 22/1/1 104/1/1 103/1/1
f 25/1/1 26/1/1 108/1/1 107/1/1
f 105/1/1 104/1/1 53/1/1
f 137/1/2 60/1/1 134/1/1 135/1/1
f 229/1/50 116/1/51 72/1/28
f 230/1/15 67/1/3 137/1/2
f 150/1/1 63/1/1 149/1/1
f 163/1/1 68/1/1 162/1/1
f 176/1/1 75/1/1 175/1/1
f 189/1/1 78/1/1 188/1/1
f 195/1/1 81/1/1 248/1/1
f 249/1/1 82/1/1 213/1/1
f 117/1/7 121/1/10 129/1/9
f 60/1/1 59/1/1 132/1/1
f 60/1/1 132/1/1 133/1/1
f 60/1/1 133/1/1 134/1/1
f 146/1/1 62/1/1 150/1/1 147/1/1
f 135/1/1 136/1/1 137/1/2
f 136/1/1 230/1/15 137/1/2
f 136/1/1 135/1/1 130/1/7
f 135/1/1 134/1/1 231/1/1
f 232/1/1 134/1/1 133/1/1
f 139/1/6 140/1/6 118/1/11
f 140/1/6 141/1/13 118/1/11
f 159/1/1 158/1/1 65/1/1 163/1/1
f 150/1/1 148/1/1 147/1/1
f 150/1/1 149/1/1 148/1/1
f 152/1/11 153/1/15 119/1/11
f 153/1/15 154/1/14 119/1/11
f 66/1/1 2/1/1 34/1/1 93/1/1
f 163/1/1 160/1/1 159/1/1
f 163/1/1 161/1/1 160/1/1
f 163/1/1 162/1/1 161/1/1
f 165/1/15 166/1/15 122/1/17
f 166/1/15 167/1/16 122/1/17
f 70/1/1 176/1/1 172/1/1
f 176/1/1 173/1/1 172/1/1
f 176/1/1 174/1/1 173/1/1
f 176/1/1 175/1/1 174/1/1
f 178/1/17 179/1/7 124/1/17
f 179/1/7 180/1/18 124/1/17
f 77/1/1 189/1/1 185/1/1
f 189/1/1 187/1/1 186/1/1
f 189/1/1 188/1/1 187/1/1
f 80/1/1 193/1/1 192/1/1
f 195/1/1 194/1/1 193/1/1
f 195/1/1 248/1/1 194/1/1
f 197/1/7 198/1/7 125/1/19
f 198/1/7 199/1/20 125/1/19
f 199/1/20 196/1/19 125/1/19
f 205/1/22 123/1/19 202/1/19
f 74/1/1 73/1/1 208/1/1
f 74/1/1 208/1/1 209/1/1
f 74/1/1 209/1/1 210/1/1
f 213/1/1 210/1/1 211/1/1
f 211/1/1 212/1/1 213/1/1
f 212/1/1 249/1/1 213/1/1
f 215/1/26 72/1/28 66/1/24
f 216/1/27 217/1/38 72/1/28
f 217/1/38 218/1/52 72/1/28
f 218/1/52 229/1/50 72/1/28
f 220/1/31 120/1/30 225/1/32
f 234/1/1 146/1/1 147/1/1
f 235/1/1 147/1/1 148/1/1
f 237/1/1 159/1/1 160/1/1
f 238/1/1 160/1/1 161/1/1
f 241/1/1 173/1/1 174/1/1
f 244/1/1 186/1/1 187/1/1
f 212/1/1 211/1/1 250/1/1
f 251/1/1 211/1/1 210/1/1
f 252/1/1 210/1/1 209/1/1
f 227/1/53 220/1/31 221/1/33
f 214/1/54 219/1/29 220/1/31
f 60/1/1 4/1/1 37/1/1 97/1/1
f 35/1/1 4/1/1 137/1/1
f 62/1/1 97/1/1 38/1/1 6/1/1
f 65/1/1 95/1/1 40/1/1 8/1/1
f 6/1/1 95/1/1 150/1/1
f 163/1/1 8/1/1 41/1/1 91/1/1
f 70/1/1 91/1/1 42/1/1 10/1/1
f 176/1/1 10/1/1 43/1/1 87/1/1
f 189/1/1 12/1/1 46/1/1 85/1/1
f 44/1/1 12/1/1 77/1/1
f 80/1/1 85/1/1 47/1/1 14/1/1
f 213/1/1 83/1/1 49/1/1 16/1/1
f 14/1/1 83/1/1 195/1/1
f 33/1/1 2/1/1 72/1/1 89/1/1
f 120/1/55 256/1/56 257/1/57 19/1/58
f 218/1/52 217/1/38 228/1/59
f 255/1/60 256/1/56 120/1/55
f 121/1/41 19/1/58 257/1/57 254/1/43
f 225/1/47 282/1/46 283/1/44 71/1/45
f 115/1/61 255/1/60 120/1/55
f 59/1/1 258/1/1 117/1/1
f 21/1/1 261/1/1 118/1/1
f 258/1/1 260/1/1 117/1/1
f 63/1/1 262/1/1 138/1/1
f 23/1/1 265/1/1 119/1/1
f 262/1/1 264/1/1 138/1/1
f 68/1/1 266/1/1 151/1/1
f 25/1/1 269/1/1 122/1/1
f 266/1/1 268/1/1 151/1/1
f 75/1/1 270/1/1 164/1/1
f 50/1/1 89/1/1 74/1/1 16/1/1
f 27/1/1 273/1/1 124/1/1
f 270/1/1 272/1/1 164/1/1
f 78/1/1 274/1/1 177/1/1
f 29/1/1 277/1/1 125/1/1
f 274/1/1 276/1/1 177/1/1
f 81/1/1 278/1/1 196/1/1
f 31/1/1 281/1/1 202/1/1
f 278/1/1 280/1/1 196/1/1
f 73/1/1 284/1/1 123/1/1
f 17/1/62 285/1/48 225/1/47
f 284/1/1 286/1/1 123/1/1
l 33 1
l 36 3
l 38 5
l 40 7
l 42 9
l 45 11
l 47 13
l 49 15
l 3 34
l 5 37
l 7 39
l 9 41
l 11 43
l 13 46
l 15 48
l 1 50
l 71 116
l 285 286
l 281 280
l 277 276
l 273 272
l 269 268
l 254 256
l 265 264
l 261 260
l 259 258
l 263 262
l 255 253
l 267 266
l 271 270
l 275 274
l 279 278
l 282 284
l 197 190
l 198 245
l 199 246
l 200 247
l 201 248
l 224 229
l 223 228
l 222 226
l 35 36
l 44 45
l 131 230
l 128 231
l 127 232
l 126 132
l 139 144
l 140 233
l 141 234
l 142 235
l 143 149
l 152 157
l 153 236
l 154 237
l 155 238
l 156 162
l 165 170
l 166 239
l 167 240
l 168 241
l 169 175
l 178 183
l 179 242
l 180 243
l 181 244
l 182 188
l 207 249
l 206 250
l 205 251
l 204 252
l 203 208
