# Blender 5.1.0
# www.blender.org
mtllib SphereLP.mtl
o Sphere
v 0.245504 2.749648 -0.163691
v 0.024470 1.577986 -2.282835
v -0.269378 -0.407036 -2.735149
v -0.062182 -2.759886 -0.150116
v 0.497209 2.527644 -1.008367
v 0.267425 2.050780 -1.835797
v 0.640849 0.811347 -2.576719
v 0.621342 -0.040450 -2.706988
v 0.654608 -0.676521 -2.608800
v 0.610084 -1.188414 -2.428223
v 0.510305 -1.759477 -2.077652
v 0.901868 1.444709 -2.177308
v 1.174021 0.411490 -2.479490
v 0.199924 -2.513072 -1.144601
v 0.029692 -2.682291 -0.671218
v 0.608839 2.362228 -1.329414
v 1.055838 1.750836 -1.875359
v 1.449331 1.049779 -2.113239
v 1.632334 -0.135621 -2.239135
v 1.584862 -0.807198 -2.134778
v 1.144306 -1.534473 -1.997641
v 1.249537 -2.063007 -1.372878
v 1.857007 0.488340 -1.988265
v 1.670209 -1.569246 -1.560688
v 0.639594 -2.652335 -0.471905
v 0.828166 2.535944 -0.771129
v 1.394453 2.007988 -1.312242
v 1.889312 1.273413 -1.574679
v 2.307706 0.677665 -1.381081
v 2.205770 0.000421 -1.670095
v 2.126568 -0.803626 -1.576454
v 1.026004 -2.372495 -0.996811
v 0.765370 2.662833 0.023782
v 1.406650 2.360460 -0.325549
v 2.158435 1.433717 -1.003265
v 2.547508 0.036776 -1.091160
v 2.525365 -0.660769 -0.933421
v 2.185489 -1.300822 -1.090506
v 1.778128 -1.980513 -0.758674
v 1.784675 2.017638 -0.627808
v 2.199241 1.670553 -0.221516
v 2.694893 0.538100 -0.398951
v 2.447843 -1.228761 -0.405819
v 2.021871 -1.861281 -0.379714
v 1.167721 -2.472427 -0.426140
v 1.819569 2.088024 0.127267
v 2.748511 -0.271273 0.163234
v 1.641632 -2.225321 0.025981
v 1.376143 2.369308 0.350600
v 2.224571 1.529154 0.621097
v 2.496902 1.162506 0.245927
v 2.683459 0.541334 0.400278
v 2.614195 -0.824189 0.423562
v 2.223562 -1.651641 0.208891
v 0.801244 2.604176 0.448322
v 2.317317 1.069042 1.088446
v 2.541629 0.398203 1.012497
v 2.601234 -0.135620 0.954891
v 2.249324 -1.310567 0.940711
v 1.269413 -2.445956 0.276128
v 0.399331 -2.728145 0.128785
v 1.710902 1.965980 0.932196
v 1.779245 1.621130 1.364409
v 2.182132 0.543182 1.618810
v 2.347057 -0.801088 1.232029
v 0.850604 -2.608047 0.336730
v 2.147749 -0.250233 1.730891
v 1.878958 -0.811147 1.865290
v 1.784586 -1.507988 1.485885
v 1.245082 -2.049104 1.377825
v 0.960304 2.441735 0.889824
v 1.120360 2.150526 1.333608
v 1.178938 1.760054 1.779534
v 1.650224 1.129095 1.927935
v 1.691669 0.451091 2.145088
v 1.418328 -0.038919 2.388869
v 1.414743 -1.426149 1.912447
v 0.876448 -2.438754 0.993995
v 0.118461 2.731947 0.386163
v 0.057041 2.643897 0.835524
v 0.362821 2.324686 1.462154
v 0.795705 1.430847 2.234469
v 1.142973 0.672034 2.421824
v 1.237024 -0.764458 2.358303
v 0.902243 -1.443184 2.178206
v 0.489119 -1.968241 1.900636
v 0.661008 -2.236225 1.480725
v 0.133340 -2.455769 1.274004
v 0.316061 -2.680256 0.591233
v 0.535389 1.835503 1.997999
v 0.621909 0.879752 2.554728
v 0.426860 0.000419 2.746964
v 0.642655 -0.803630 2.567972
v 0.032276 1.991603 1.923330
v 0.014930 1.311313 2.438111
v 0.129186 0.672029 2.674871
v 0.070006 -0.807753 2.647399
v 0.112923 -1.311094 2.441001
v -0.514821 2.437665 1.218553
v -0.479102 1.529114 2.256864
v -0.609756 0.825316 2.576824
v -0.508202 -0.035958 2.724372
v -0.696139 -0.627016 2.607723
v -0.728551 -1.160642 2.401732
v -0.361665 -1.681883 2.166373
v -0.407842 -2.144886 1.700490
v -0.139272 -2.711632 0.533944
v -0.620438 2.050781 1.748347
v -1.070705 0.528575 2.499460
v -1.152317 1.468563 2.051439
v -1.436333 -0.197262 2.367532
v -1.462881 -0.811146 2.206756
v -1.242519 -1.464316 1.992975
v -0.898566 -1.875094 1.823790
v -1.108757 -2.229448 1.217328
v -1.151367 2.191323 1.247180
v -1.381734 1.725211 1.661749
v -1.713199 0.658097 2.087538
v -1.821410 -1.303001 1.634634
v -1.519188 -1.860669 1.373429
v -0.576055 -2.508705 1.021230
v -0.746103 -2.657261 0.244897
v -0.763846 2.609081 0.499371
v -1.891924 1.423344 1.446313
v -2.152306 0.672032 1.593486
v -2.157066 -0.021076 1.737313
v -2.071658 -0.764457 1.673336
v -0.276972 2.729014 0.352573
v -1.265242 2.441195 0.370965
v -1.674982 2.050782 0.797552
v -2.053490 1.683506 0.775602
v -2.355385 1.049778 1.009208
v -2.517609 0.145186 1.160304
v -2.393257 -0.803623 1.131292
v -2.178205 -1.443188 0.902239
v -1.929135 -1.860669 0.687514
v -2.678133 0.143841 0.718895
v -2.582612 -0.845034 0.539349
v -1.588172 -2.218459 0.462661
v -2.046647 1.873792 0.068776
v -2.683186 0.710229 0.142189
v -2.116123 -1.785400 -0.034945
v -1.143312 2.495950 -0.293006
v -2.506949 1.067930 -0.489798
v -2.670424 -0.657953 -0.277111
v -1.444955 -2.348893 -0.321106
v -0.691195 -2.660364 -0.319902
v -0.664764 2.674959 -0.173519
v -1.640448 2.190276 -0.464101
v -2.076391 1.665508 -0.788392
v -2.349888 0.934175 -1.107984
v -2.681292 0.129964 -0.728650
v -2.520849 -0.818450 -0.803797
v -2.151067 -1.654366 -0.554960
v -1.746824 -1.970802 -0.849425
v -1.852178 1.546196 -1.364463
v -2.443372 0.455582 -1.233196
v -2.377118 -0.134351 -1.398145
v -2.144713 -0.847768 -1.546256
v -2.069183 -1.366325 -1.227731
v -0.319344 2.714152 -0.426308
v -0.853189 2.474467 -0.914059
v -1.377833 2.050776 -1.242279
v -1.949903 1.036636 -1.667410
v -1.779898 0.393595 -2.099000
v -1.975596 -0.235364 -1.929547
v -1.313082 -2.148067 -1.145087
v -1.485912 1.541758 -1.755229
v -1.320143 1.065529 -2.195170
v -1.576455 -0.803626 -2.126566
v -1.518902 -1.684535 -1.603435
v -0.302437 2.428958 -1.299083
v -0.755422 1.743817 -2.013282
v -1.197128 -0.060396 -2.499969
v -0.983589 -0.759195 -2.481539
v -0.687514 -1.860672 -1.929132
v -0.687172 -2.305075 -1.377808
v -0.651790 -2.555490 -0.840361
v 0.040497 2.674959 -0.685843
v -0.908568 0.957657 -2.450253
v -0.402831 0.440142 -2.709641
v -0.946756 -1.453064 -2.165471
v 0.162693 -2.226263 -1.651802
v 0.119832 1.068402 -2.558687
v -0.246004 -1.160652 -2.497711
v -0.025023 -1.784136 -2.116504
v 2.548902 1.058516 -0.229936
v 2.733841 -0.407151 -0.269445
v 1.791971 -1.957358 0.805931
v -1.172834 -2.449639 0.528049
v -2.380573 1.368139 0.341767
v -2.430792 -1.345489 0.030929
v -2.761353 -0.235364 0.032559
v -0.635813 2.047084 -1.768571
vn 0.3018 0.5181 -0.8003
vn 0.3795 0.6357 -0.6722
vn 0.5239 0.3807 -0.7620
vn 0.0779 -0.9053 -0.4175
vn 0.2302 -0.9588 -0.1665
vn 0.0025 -0.9695 -0.2452
vn 0.6695 0.4651 -0.5791
vn 0.6710 0.1851 -0.7180
vn 0.7677 -0.2783 -0.5772
vn 0.7851 -0.4795 -0.3920
vn 0.6125 -0.5567 -0.5612
vn 0.9223 0.0113 -0.3863
vn 0.9834 -0.1438 -0.1107
vn 0.9088 -0.2344 -0.3452
vn 0.6345 0.7335 -0.2438
vn 0.4989 0.8567 -0.1314
vn 0.6620 0.7474 0.0555
vn 0.7848 0.5089 -0.3538
vn 0.7970 0.5987 -0.0795
vn 0.9172 0.3831 -0.1094
vn 0.9031 0.4166 0.1041
vn 0.7972 0.5608 0.2234
vn 0.4955 0.8580 0.1355
vn 0.6152 0.7167 0.3284
vn 0.8459 -0.2876 0.4491
vn 0.6540 -0.5432 0.5264
vn 0.8110 -0.4779 0.3375
vn -0.0262 -0.9984 -0.0510
vn 0.1465 -0.9886 0.0340
vn -0.0575 -0.9790 0.1956
vn 0.3428 0.8817 0.3243
vn 0.0279 0.9485 0.3156
vn 0.1328 0.8405 0.5253
vn 0.2469 -0.2782 0.9282
vn 0.0409 -0.4803 0.8761
vn 0.3170 -0.5256 0.7895
vn 0.2439 -0.8067 0.5383
vn 0.0403 -0.8864 0.4611
vn 0.3273 -0.8779 0.3495
vn -0.1272 -0.6088 0.7830
vn 0.1738 -0.7018 0.6909
vn -0.0007 0.7207 0.6933
vn -0.1831 0.8817 0.4348
vn -0.2241 0.7387 0.6357
vn -0.1804 0.5540 0.8127
vn -0.4209 0.5117 0.7490
vn -0.5072 0.6328 0.5850
vn -0.6748 0.5136 0.5300
vn -0.9351 -0.2923 0.2006
vn -0.8804 -0.4739 0.0138
vn -0.7895 -0.5145 0.3347
vn -0.6003 0.7430 0.2960
vn -0.4631 0.8754 0.1383
vn -0.7372 0.6755 0.0181
vn -0.9971 -0.0736 0.0183
vn -0.9641 -0.2451 -0.1025
vn -0.5868 0.7918 -0.1693
vn -0.7445 -0.6676 -0.0016
vn -0.5199 -0.8464 -0.1151
vn -0.5793 -0.7979 0.1665
vn -0.7540 0.5966 -0.2749
vn -0.9085 -0.2957 -0.2953
vn -0.7489 -0.4968 -0.4385
vn -0.7799 -0.5893 -0.2109
vn -0.8510 0.3490 -0.3925
vn -0.7122 0.3558 -0.6051
vn -0.8712 0.1684 -0.4612
vn -0.5450 -0.5974 -0.5883
vn -0.6357 -0.7105 -0.3017
vn -0.4902 0.7471 -0.4488
vn -0.6752 0.5590 -0.4813
vn -0.7763 -0.3021 -0.5533
vn -0.5175 0.5664 -0.6414
vn -0.5719 -0.3006 -0.7633
vn -0.3455 -0.5167 -0.7833
vn -0.3115 0.8896 -0.3339
vn -0.2299 0.7447 -0.6265
vn -0.6422 0.1425 -0.7532
vn -0.3135 0.3392 -0.8869
vn -0.4289 -0.0100 -0.9033
vn -0.0888 -0.1433 -0.9857
vn -0.3504 -0.2725 -0.8961
vn -0.0770 -0.4238 -0.9025
vn -0.2439 -0.6823 -0.6892
vn 0.0688 -0.8043 -0.5902
vn -0.2434 -0.8269 -0.5070
vn -0.0995 0.8780 -0.4682
vn 0.0961 0.7368 -0.6692
vn 0.0313 0.3765 -0.9259
vn -0.1341 0.1474 -0.9800
vn 0.0053 0.5732 -0.8194
vn -0.2805 0.6036 -0.7463
vn -0.0283 -0.6307 -0.7755
vn -0.2398 -0.9210 -0.3070
vn -0.4877 0.3814 -0.7853
vn -0.2568 -0.9592 -0.1180
vn -0.4607 -0.7851 -0.4139
vn -0.7113 -0.0759 -0.6988
vn -0.2495 0.9668 -0.0556
vn -0.4151 0.9035 -0.1068
vn -0.8596 -0.0532 -0.5082
vn -0.9657 0.0403 -0.2566
vn -0.9054 0.3881 -0.1723
vn -0.2712 -0.9585 0.0875
vn -0.1125 0.9862 0.1215
vn -0.1204 0.9799 -0.1594
vn 0.0878 0.9941 -0.0640
vn -0.9669 0.2502 0.0508
vn -0.8669 0.4862 0.1102
vn -0.4227 -0.8860 0.1907
vn -0.6962 -0.6689 0.2607
vn -0.2835 0.9370 0.2042
vn -0.8589 0.3648 0.3595
vn -0.9679 0.0459 0.2473
vn -0.9042 0.0407 0.4253
vn -0.7413 0.6063 0.2879
vn -0.7822 0.2499 0.5707
vn -0.4061 -0.8033 0.4356
vn -0.7701 -0.0242 0.6374
vn -0.2031 -0.9062 0.3709
vn -0.4235 0.7917 0.4403
vn -0.3286 -0.6748 0.6608
vn -0.4444 -0.5259 0.7253
vn -0.5603 -0.6712 0.4853
vn 0.0684 0.9893 0.1285
vn -0.5236 -0.0650 0.8495
vn -0.6112 0.2447 0.7527
vn -0.2416 -0.2210 0.9449
vn -0.5344 -0.2874 0.7948
vn -0.1343 -0.7807 0.6103
vn -0.2630 -0.4266 0.8654
vn -0.1728 -0.0047 0.9849
vn -0.3959 0.1910 0.8982
vn -0.2095 0.2948 0.9323
vn 0.0122 0.4762 0.8793
vn 0.0247 0.2287 0.9732
vn 0.1953 0.6683 0.7178
vn 0.3031 0.4967 0.8133
vn 0.1506 -0.0016 0.9886
vn 0.0068 -0.2696 0.9629
vn 0.1193 -0.9661 0.2291
vn 0.5011 -0.5209 0.6910
vn 0.4468 -0.2641 0.8547
vn 0.4029 0.7732 0.4897
vn 0.5898 0.4098 0.6959
vn 0.4045 0.2600 0.8768
vn 0.6206 0.1574 0.7681
vn 0.2490 0.3063 0.9188
vn 0.4248 0.6387 0.6416
vn 0.4573 -0.7325 0.5043
vn 0.4977 -0.0226 0.8671
vn 0.7749 -0.0759 0.6275
vn 0.7892 0.1909 0.5838
vn 0.6483 0.5763 0.4976
vn 0.2792 0.9444 0.1739
vn 0.6752 -0.2899 0.6783
vn 0.6377 -0.7129 0.2918
vn 0.2831 0.9591 -0.0007
vn 0.3019 -0.9469 0.1106
vn 0.4387 -0.8866 -0.1466
vn 0.4589 -0.8815 0.1113
vn 0.8324 0.3861 0.3976
vn 0.9155 0.1453 0.3751
vn 0.9361 -0.0519 0.3479
vn 0.9390 -0.3088 0.1515
vn 0.9717 0.1881 0.1432
vn 0.9694 0.1868 -0.1591
vn 0.8880 -0.4379 -0.1405
vn 0.8051 -0.5871 0.0845
vn 0.9948 -0.0663 0.0770
vn 0.7265 -0.6717 -0.1449
vn 0.6020 -0.7984 0.0074
vn 0.8384 0.2524 -0.4831
vn 0.3211 0.9100 -0.2624
vn 0.7940 -0.0222 -0.6075
vn 0.6307 -0.7194 -0.2910
vn 0.3582 -0.8568 -0.3709
vn 0.5799 -0.0576 -0.8127
vn 0.4319 0.1414 -0.8908
vn 0.5106 0.7232 -0.4651
vn 0.4129 -0.5506 -0.7255
vn 0.5614 -0.2852 -0.7768
vn 0.4345 -0.7449 -0.5062
vn 0.1957 -0.6386 -0.7442
vn 0.2156 -0.4221 -0.8806
vn 0.2197 -0.0163 -0.9754
vn 0.2247 0.2883 -0.9308
vn 0.2190 0.8383 -0.4993
vn 0.0143 0.9644 -0.2642
vn 0.1333 0.9259 -0.3533
vn 0.2464 -0.2412 -0.9387
vn -0.6611 -0.4788 0.5776
vn -0.8688 -0.2740 0.4125
vn -0.7526 -0.2602 0.6049
vt 0.687554 0.672783
vt 0.667573 0.717675
vt 0.654144 0.621351
vt 0.723288 0.139942
vt 0.598230 0.092231
vt 0.740759 0.078150
vt 0.611855 0.649415
vt 0.631223 0.556392
vt 0.601567 0.406405
vt 0.573907 0.345729
vt 0.618726 0.309927
vt 0.564696 0.507031
vt 0.519105 0.451947
vt 0.557113 0.426295
vt 0.553567 0.759089
vt 0.536089 0.826192
vt 0.489445 0.766308
vt 0.570205 0.671274
vt 0.515868 0.704290
vt 0.517079 0.621200
vt 0.484324 0.639562
vt 0.456003 0.687187
vt 0.460394 0.827634
vt 0.420694 0.753026
vt 0.422553 0.407966
vt 0.386535 0.316755
vt 0.437919 0.343747
vt 0.328125 0.000000
vt 0.335938 0.031250
vt 0.320312 0.031250
vt 0.380335 0.842798
vt 0.262162 0.894671
vt 0.289506 0.819117
vt 0.289068 0.406404
vt 0.257017 0.340677
vt 0.312561 0.327288
vt 0.317116 0.201010
vt 0.264717 0.152650
vt 0.364109 0.159495
vt 0.224036 0.296167
vt 0.287252 0.255457
vt 0.251372 0.754543
vt 0.188476 0.842028
vt 0.195580 0.765442
vt 0.215569 0.683840
vt 0.170481 0.674837
vt 0.140490 0.712700
vt 0.103811 0.671730
vt 0.035367 0.402591
vt 0.010682 0.348188
vt 0.062439 0.327288
vt 0.070580 0.765442
vt 0.044070 0.839255
vt 0.010696 0.733328
vt 0.008693 0.468942
vt 0.000000 0.406250
vt 0.000000 0.781250
vt 0.004645 0.278230
vt 0.003347 0.175159
vt 0.043350 0.211107
vt 0.996928 0.730731
vt 0.956700 0.786449
vt 0.943814 0.704384
vt 0.950930 0.403642
vt 0.914078 0.334710
vt 0.960765 0.297765
vt 0.929858 0.609382
vt 0.887321 0.619170
vt 0.924869 0.551551
vt 0.868898 0.292593
vt 0.927408 0.247029
vt 0.883080 0.765442
vt 0.899277 0.690322
vt 0.900819 0.399714
vt 0.857895 0.683735
vt 0.851568 0.406405
vt 0.815710 0.327422
vt 0.870124 0.853172
vt 0.804242 0.768324
vt 0.862600 0.545981
vt 0.804298 0.606530
vt 0.820900 0.492615
vt 0.765606 0.452203
vt 0.811980 0.412981
vt 0.764989 0.360328
vt 0.804584 0.265642
vt 0.734293 0.203544
vt 0.819939 0.190951
vt 0.785135 0.834318
vt 0.726830 0.765442
vt 0.742235 0.624632
vt 0.773818 0.552055
vt 0.748615 0.691735
vt 0.806589 0.715867
vt 0.754612 0.277451
vt 0.856790 0.127486
vt 0.836613 0.628316
vt 0.828125 0.031250
vt 0.926855 0.088703
vt 0.885906 0.216514
vt 0.877933 0.474017
vt 0.965174 0.179892
vt 0.958004 0.920259
vt 0.960286 0.859187
vt 0.915383 0.484556
vt 0.959651 0.512593
vt 0.983514 0.423585
vt 0.968296 0.625048
vt 0.987621 0.356729
vt 0.994718 0.278230
vt 1.000000 0.843269
vt 0.987011 0.031250
vt 0.996019 0.083600
vt 0.992188 0.968750
vt 0.976562 0.968750
vt 0.984375 1.000000
vt 0.994977 0.581945
vt 1.000000 0.656250
vt 0.067089 0.155918
vt 0.054584 0.265642
vt 0.149857 0.944422
vt 0.006733 0.920259
vt 0.091804 0.892791
vt 0.064016 0.619279
vt 0.038294 0.516753
vt 0.068432 0.515269
vt 0.021891 0.666814
vt 0.009854 0.583480
vt 0.057190 0.705200
vt 0.101434 0.577883
vt 0.132187 0.202691
vt 0.073548 0.018307
vt 0.085938 0.031250
vt 0.053637 0.089644
vt 0.105723 0.497646
vt 0.168511 0.139638
vt 0.129558 0.790377
vt 0.176741 0.265356
vt 0.161541 0.325776
vt 0.117084 0.265642
vt 0.148438 0.968750
vt 0.140625 1.000000
vt 0.163207 0.477724
vt 0.140572 0.577928
vt 0.180703 0.063516
vt 0.208461 0.424633
vt 0.156754 0.405250
vt 0.212804 0.217173
vt 0.203173 0.360515
vt 0.221732 0.495024
vt 0.185949 0.556621
vt 0.214245 0.598446
vt 0.252227 0.655401
vt 0.257685 0.577883
vt 0.291856 0.731536
vt 0.304494 0.671856
vt 0.273818 0.499915
vt 0.254803 0.410565
vt 0.326748 0.077707
vt 0.351610 0.328408
vt 0.326251 0.410484
vt 0.360754 0.784557
vt 0.362635 0.632507
vt 0.320184 0.577883
vt 0.354079 0.552299
vt 0.289096 0.601645
vt 0.343417 0.718991
vt 0.367090 0.234570
vt 0.334589 0.493418
vt 0.394251 0.471279
vt 0.398413 0.562248
vt 0.395931 0.700502
vt 0.358181 0.954663
vt 0.417214 0.891506
vt 0.375504 0.405250
vt 0.435782 0.248325
vt 0.499530 0.912228
vt 0.395349 0.981104
vt 0.439063 0.105134
vt 0.552712 0.148103
vt 0.465594 0.155728
vt 0.429185 0.620691
vt 0.440451 0.543876
vt 0.444004 0.484557
vt 0.473195 0.401579
vt 0.476455 0.562401
vt 0.524666 0.558124
vt 0.525959 0.357193
vt 0.485628 0.300709
vt 0.491307 0.468943
vt 0.533293 0.265550
vt 0.497529 0.201431
vt 0.585835 0.577883
vt 0.539062 0.031250
vt 0.549255 0.009518
vt 0.646911 0.952115
vt 0.607631 0.867987
vt 0.602428 0.499916
vt 0.567135 0.246346
vt 0.620737 0.173690
vt 0.649746 0.484557
vt 0.640625 0.031250
vt 0.679626 0.546945
vt 0.619993 0.756893
vt 0.667595 0.314646
vt 0.649227 0.406233
vt 0.632591 0.234570
vt 0.710190 0.281159
vt 0.710842 0.359656
vt 0.713960 0.493199
vt 0.710960 0.593459
vt 0.687731 0.815465
vt 0.740890 0.920259
vt 0.676099 0.864269
vt 0.710874 0.422124
vt 0.742188 0.968750
vt 0.729777 0.981611
vt 0.830076 0.938950
vt 0.116642 0.340747
vt 0.070318 0.406405
vt 0.995350 0.473588
vt 0.107282 0.412550
vt 0.486314 0.047574
s 1
f 12/1/1 17/2/2 18/3/3
f 14/4/4 25/5/5 15/6/6
f 18/3/3 28/7/7 23/8/8
f 31/9/9 38/10/10 24/11/11
f 36/12/12 188/13/13 37/14/14
f 40/15/15 34/16/16 46/17/17
f 35/18/18 41/19/19 187/20/20
f 187/20/20 41/19/19 51/21/21
f 41/19/19 46/17/17 50/22/22
f 46/17/17 49/23/23 62/24/24
f 65/25/25 69/26/26 59/27/27
f 4/28/28 61/29/29 107/30/30
f 71/31/31 80/32/32 81/33/33
f 93/34/34 98/35/35 85/36/36
f 87/37/37 88/38/38 78/39/39
f 98/35/35 105/40/40 86/41/41
f 94/42/42 99/43/43 108/44/44
f 94/42/42 108/44/44 100/45/45
f 100/45/45 108/44/44 110/46/46
f 110/46/46 117/47/47 124/48/48
f 138/49/49 192/50/50 135/51/51
f 130/52/52 129/53/53 140/54/54
f 193/55/55 145/56/56 138/49/49
f 140/54/54 129/53/53 149/57/57
f 142/58/58 146/59/59 139/60/60
f 140/61/54 149/62/57 150/63/61
f 153/64/62 160/65/63 154/66/64
f 151/67/65 164/68/66 157/69/67
f 160/65/63 171/70/68 155/71/69
f 150/63/61 163/72/70 156/73/71
f 159/74/72 171/70/68 160/65/63
f 164/68/66 156/73/71 168/75/73
f 170/76/74 182/77/75 171/70/68
f 163/72/70 162/78/76 194/79/77
f 165/80/78 180/81/79 174/82/80
f 174/82/80 3/83/81 175/84/82
f 175/84/82 185/85/83 182/77/75
f 176/86/84 183/87/85 177/88/86
f 194/79/77 172/89/87 6/90/88
f 180/81/79 184/91/89 181/92/90
f 177/88/86 183/87/85 14/4/4
f 194/79/77 2/93/91 173/94/92
f 182/77/75 185/85/83 186/95/93
f 177/88/86 14/4/4 178/96/94
f 173/94/92 180/81/79 169/97/95
f 174/82/80 181/92/90 3/83/81
f 180/81/79 181/92/90 174/82/80
f 170/76/74 174/82/80 175/84/82
f 4/98/28 147/99/96 15/6/6
f 147/99/96 178/96/94 15/6/6
f 169/97/95 180/81/79 165/80/78
f 194/79/77 173/94/92 168/75/73
f 171/70/68 182/77/75 176/86/84
f 168/75/73 169/97/95 164/68/66
f 167/100/97 171/70/68 177/88/86
f 163/72/70 168/75/73 156/73/71
f 166/101/98 165/80/78 174/82/80
f 146/102/59 167/100/97 178/96/94
f 155/71/69 171/70/68 167/100/97
f 155/71/69 167/100/97 146/102/59
f 148/103/99 162/78/76 143/104/100
f 157/69/67 158/105/101 152/106/102
f 146/102/59 178/96/94 147/99/96
f 151/67/65 156/73/71 164/68/66
f 145/107/56 152/106/102 153/64/62
f 144/108/103 150/63/61 151/67/65
f 192/109/50 153/64/62 154/66/64
f 192/109/50 154/66/64 142/110/58
f 145/107/56 153/64/62 192/109/50
f 148/103/99 143/104/100 129/111/53
f 4/112/28 122/113/104 147/99/96
f 148/103/99 128/114/105 161/115/106
f 128/114/105 1/116/107 161/115/106
f 141/117/108 144/108/103 152/106/102
f 146/102/59 147/99/96 122/113/104
f 191/118/109 144/108/103 141/117/108
f 140/61/54 144/108/103 191/118/109
f 190/119/110 139/60/60 146/59/59
f 136/120/111 192/50/50 142/58/58
f 128/121/105 148/122/99 123/123/112
f 132/124/113 137/125/114 133/126/115
f 132/124/113 191/127/109 141/128/108
f 131/129/116 191/127/109 132/124/113
f 124/48/48 132/124/113 125/130/117
f 115/131/118 139/60/60 190/119/110
f 130/52/52 131/129/116 124/48/48
f 4/132/28 107/133/30 122/134/104
f 125/130/117 133/126/115 126/135/119
f 123/123/112 129/53/53 99/43/43
f 121/136/120 115/131/118 190/119/110
f 116/137/121 124/48/48 117/47/47
f 114/138/122 113/139/123 120/140/124
f 80/32/32 123/123/112 99/43/43
f 128/121/105 123/123/112 80/32/32
f 79/141/125 1/142/107 128/121/105
f 111/143/126 118/144/127 126/135/119
f 107/145/30 121/136/120 122/134/104
f 103/146/128 111/143/126 112/147/129
f 106/148/130 114/138/122 115/131/118
f 108/44/44 116/137/121 117/47/47
f 104/149/131 112/147/129 113/139/123
f 106/148/130 105/40/40 114/138/122
f 104/149/131 113/139/123 105/40/40
f 102/150/132 109/151/133 111/143/126
f 101/152/134 109/151/133 102/150/132
f 95/153/135 101/152/134 96/154/136
f 95/153/135 100/45/45 101/152/134
f 94/42/42 100/45/45 95/153/135
f 86/41/41 105/40/40 106/148/130
f 80/32/32 99/43/43 81/33/33
f 90/155/137 95/153/135 82/156/138
f 93/34/34 92/157/139 97/158/140
f 89/159/141 88/38/38 107/145/30
f 77/160/142 85/36/36 86/41/41
f 77/160/142 84/161/143 85/36/36
f 71/31/31 81/33/33 72/162/144
f 107/30/30 61/29/29 89/159/141
f 74/163/145 83/164/146 75/165/147
f 74/163/145 82/156/138 91/166/148
f 73/167/149 82/156/138 74/163/145
f 70/168/150 86/41/41 87/37/37
f 75/165/147 76/169/151 67/170/152
f 74/163/145 75/165/147 64/171/153
f 70/168/150 87/37/37 78/39/39
f 72/162/144 73/167/149 63/172/154
f 79/173/125 80/32/32 55/174/155
f 76/169/151 84/161/143 68/175/156
f 189/176/157 69/26/26 70/168/150
f 71/31/31 72/162/144 62/24/24
f 65/25/25 67/170/152 68/175/156
f 33/177/158 1/178/107 79/173/125
f 66/179/159 25/5/5 45/180/160 60/181/161
f 63/172/154 74/163/145 56/182/162
f 56/182/162 64/171/153 57/183/163
f 60/181/161 189/176/157 78/39/39
f 62/24/24 63/172/154 50/22/22
f 55/174/155 71/31/31 49/23/23
f 58/184/164 67/170/152 65/25/25
f 58/184/164 65/25/25 53/185/165
f 51/21/21 56/182/162 52/186/166
f 187/20/20 52/186/166 42/187/167
f 51/21/21 52/186/166 187/20/20
f 43/188/168 53/185/165 54/189/169
f 33/177/158 49/23/23 34/16/16
f 188/13/13 47/190/170 53/185/165
f 47/190/170 52/186/166 58/184/164
f 44/191/171 43/188/168 54/189/169
f 188/13/13 53/185/165 43/188/168
f 188/13/13 42/187/167 47/190/170
f 45/180/160 48/192/172 60/181/161
f 35/18/18 42/187/167 29/193/173
f 38/10/10 43/188/168 44/191/171
f 38/10/10 37/14/14 43/188/168
f 61/194/29 4/195/28 25/5/5
f 36/12/12 42/187/167 188/13/13
f 31/9/9 37/14/14 38/10/10
f 1/196/107 33/177/158 26/197/174
f 29/193/173 36/12/12 30/198/175
f 39/199/176 45/180/160 32/200/177
f 24/11/11 38/10/10 39/199/176
f 23/8/8 30/198/175 19/201/178
f 28/7/7 29/193/173 23/8/8
f 32/200/177 45/180/160 25/5/5
f 4/202/28 15/6/6 25/5/5
f 18/3/3 23/8/8 13/203/179
f 17/2/2 27/204/180 28/7/7
f 21/205/181 20/206/182 24/11/11
f 183/87/85 22/207/183 32/200/177
f 11/208/184 21/205/181 22/207/183
f 10/209/185 20/206/182 21/205/181
f 13/203/179 19/201/178 8/210/186
f 12/1/1 18/3/3 7/211/187
f 7/211/187 13/203/179 8/210/186
f 2/93/91 12/1/1 184/91/89
f 6/90/88 17/2/2 2/93/91
f 6/90/88 16/212/188 17/2/2
f 10/209/185 21/205/181 11/208/184
f 179/213/189 5/214/190 172/89/87
f 3/83/81 8/210/186 9/215/191
f 179/213/189 161/216/106 1/217/107
f 181/92/90 8/210/186 3/83/81
f 184/91/89 7/211/187 181/92/90
f 186/95/93 11/208/184 183/87/85
f 18/3/3 17/2/2 28/7/7
f 35/18/18 27/204/180 40/15/15
f 42/187/167 35/18/18 187/20/20
f 44/191/171 54/189/169 48/192/172
f 172/89/87 162/78/76 161/218/106 179/213/189
f 54/189/169 189/176/157 48/192/172
f 54/189/169 59/27/27 189/176/157
f 50/22/22 46/17/17 62/24/24
f 59/27/27 69/26/26 189/176/157
f 63/172/154 62/24/24 72/162/144
f 66/179/159 78/39/39 89/159/141
f 55/174/155 33/177/158 79/173/125
f 83/164/146 74/163/145 91/166/148
f 78/39/39 88/38/38 89/159/141
f 85/36/36 98/35/35 86/41/41
f 96/154/136 91/166/148 95/153/135
f 88/38/38 106/148/130 121/136/120
f 88/38/38 121/136/120 107/145/30
f 105/40/40 113/139/123 114/138/122
f 110/46/46 108/44/44 117/47/47
f 109/151/133 110/46/46 118/144/127
f 113/139/123 119/219/192 120/140/124
f 124/48/48 116/137/121 130/52/52
f 121/136/120 190/119/110 122/134/104
f 135/51/51 192/50/50 136/120/111
f 131/129/116 130/52/52 140/54/54
f 142/110/58 154/66/64 146/102/59
f 144/108/103 140/61/54 150/63/61
f 168/75/73 163/72/70 194/79/77
f 178/96/94 14/4/4 15/6/6
f 180/81/79 173/94/92 2/93/91
f 2/93/91 194/79/77 6/90/88
f 180/81/79 2/93/91 184/91/89
f 183/87/85 176/86/84 186/95/93
f 176/86/84 182/77/75 186/95/93
f 175/84/82 3/83/81 185/85/83
f 166/101/98 158/105/101 157/69/67 165/80/78
f 168/75/73 173/94/92 169/97/95
f 177/88/86 171/70/68 176/86/84
f 162/78/76 172/89/87 194/79/77
f 182/77/75 170/76/74 175/84/82
f 171/70/68 159/74/72 170/76/74
f 159/74/72 166/101/98 170/76/74
f 166/101/98 174/82/80 170/76/74
f 164/68/66 169/97/95 165/80/78
f 178/96/94 167/100/97 177/88/86
f 148/103/99 161/218/106 162/78/76
f 159/74/72 158/105/101 166/101/98
f 158/105/101 159/74/72 153/64/62 152/106/102
f 157/69/67 164/68/66 165/80/78
f 149/62/57 162/78/76 163/72/70
f 155/71/69 154/66/64 160/65/63
f 150/63/61 149/62/57 163/72/70
f 160/65/63 153/64/62 159/74/72
f 143/104/100 162/78/76 149/62/57
f 151/67/65 157/69/67 152/106/102 144/108/103
f 150/63/61 156/73/71 151/67/65
f 137/125/114 138/49/49 134/220/193 133/126/115
f 146/102/59 154/66/64 155/71/69
f 129/111/53 143/104/100 149/62/57
f 193/221/55 152/106/102 145/107/56
f 141/117/108 152/106/102 193/221/55
f 137/125/114 141/128/108 193/55/55
f 122/134/104 190/119/110 146/59/59
f 139/60/60 136/120/111 142/58/58
f 131/129/116 140/54/54 191/127/109
f 138/49/49 145/56/56 192/50/50
f 123/123/112 148/122/99 129/53/53
f 138/49/49 137/125/114 193/55/55
f 135/51/51 134/220/193 138/49/49
f 136/120/111 139/60/60 115/131/118 120/140/124
f 137/125/114 132/124/113 141/128/108
f 125/130/117 132/124/113 133/126/115
f 124/48/48 131/129/116 132/124/113
f 135/51/51 136/120/111 120/140/124 119/219/192
f 134/220/193 135/51/51 119/219/192 127/222/194
f 116/137/121 129/53/53 130/52/52
f 133/126/115 134/220/193 127/222/194 126/135/119
f 127/222/194 112/147/129 111/143/126 126/135/119
f 99/43/43 129/53/53 116/137/121
f 118/144/127 125/130/117 126/135/119
f 118/144/127 124/48/48 125/130/117
f 118/144/127 110/46/46 124/48/48
f 115/131/118 114/138/122 120/140/124
f 113/139/123 112/147/129 119/219/192
f 112/147/129 127/222/194 119/219/192
f 104/149/131 98/35/35 97/158/140 103/146/128
f 104/149/131 103/146/128 112/147/129
f 111/143/126 109/151/133 118/144/127
f 101/152/134 110/46/46 109/151/133
f 121/136/120 106/148/130 115/131/118
f 99/43/43 116/137/121 108/44/44
f 101/152/134 100/45/45 110/46/46
f 102/150/132 111/143/126 103/146/128
f 102/150/132 103/146/128 97/158/140 92/157/139
f 102/150/132 92/157/139 96/154/136 101/152/134
f 92/157/139 93/34/34 84/161/143 76/169/151
f 88/38/38 86/41/41 106/148/130
f 81/33/33 99/43/43 94/42/42
f 98/35/35 104/149/131 105/40/40
f 82/156/138 95/153/135 91/166/148
f 95/153/135 90/155/137 94/42/42
f 98/35/35 93/34/34 97/158/140
f 79/173/125 128/121/105 80/32/32
f 91/166/148 96/154/136 92/157/139
f 92/157/139 76/169/151 83/164/146 91/166/148
f 81/33/33 90/155/137 73/167/149 72/162/144
f 87/37/37 86/41/41 88/38/38
f 90/155/137 81/33/33 94/42/42
f 85/36/36 84/161/143 93/34/34
f 82/156/138 73/167/149 90/155/137
f 70/168/150 77/160/142 86/41/41
f 64/171/153 67/170/152 58/184/164 57/183/163
f 75/165/147 83/164/146 76/169/151
f 63/172/154 73/167/149 74/163/145
f 70/168/150 69/26/26 77/160/142
f 69/26/26 68/175/156 77/160/142
f 68/175/156 84/161/143 77/160/142
f 55/174/155 80/32/32 71/31/31
f 68/175/156 67/170/152 76/169/151
f 69/26/26 65/25/25 68/175/156
f 67/170/152 64/171/153 75/165/147
f 61/223/29 66/179/159 89/159/141
f 56/182/162 74/163/145 64/171/153
f 78/39/39 189/176/157 70/168/150
f 48/192/172 45/180/160 39/199/176 44/191/171
f 60/181/161 78/39/39 66/179/159
f 50/22/22 63/172/154 56/182/162
f 49/23/23 71/31/31 62/24/24
f 54/189/169 53/185/165 59/27/27
f 33/177/158 55/174/155 49/23/23
f 53/185/165 65/25/25 59/27/27
f 52/186/166 57/183/163 58/184/164
f 52/186/166 56/182/162 57/183/163
f 51/21/21 50/22/22 56/182/162
f 60/181/161 48/192/172 189/176/157
f 41/19/19 50/22/22 51/21/21
f 34/16/16 49/23/23 46/17/17
f 47/190/170 58/184/164 53/185/165
f 42/187/167 52/186/166 47/190/170
f 43/188/168 37/14/14 188/13/13
f 25/5/5 66/179/159 61/223/29
f 40/15/15 46/17/17 41/19/19
f 36/12/12 37/14/14 31/9/9 30/198/175
f 35/18/18 40/15/15 41/19/19
f 39/199/176 38/10/10 44/191/171
f 26/197/174 33/177/158 34/16/16
f 29/193/173 42/187/167 36/12/12
f 40/15/15 27/204/180 26/197/174 34/16/16
f 28/7/7 35/18/18 29/193/173
f 32/200/177 22/207/183 39/199/176
f 22/207/183 24/11/11 39/199/176
f 30/198/175 31/9/9 20/206/182 19/201/178
f 28/7/7 27/204/180 35/18/18
f 16/212/188 26/197/174 27/204/180
f 24/11/11 20/206/182 31/9/9
f 19/201/178 20/206/182 9/215/191 8/210/186
f 23/8/8 29/193/173 30/198/175
f 13/203/179 23/8/8 19/201/178
f 22/207/183 21/205/181 24/11/11
f 16/212/188 5/214/190 26/197/174
f 183/87/85 11/208/184 22/207/183
f 17/2/2 16/212/188 27/204/180
f 10/209/185 9/215/191 20/206/182
f 179/213/189 26/197/174 5/214/190
f 179/213/189 1/196/107 26/197/174
f 9/215/191 10/209/185 185/85/83 3/83/81
f 7/211/187 18/3/3 13/203/179
f 14/4/4 32/200/177 25/5/5
f 14/4/4 183/87/85 32/200/177
f 184/91/89 12/1/1 7/211/187
f 2/93/91 17/2/2 12/1/1
f 172/89/87 5/214/190 16/212/188
f 10/209/185 11/208/184 186/95/93 185/85/83
f 181/92/90 7/211/187 8/210/186
f 172/89/87 16/212/188 6/90/88
