# Blender 5.1.0
# www.blender.org
mtllib Star.mtl
o Plane
v 0.000000 0.165066 -1.526222
v 0.000000 0.165066 1.526222
v 0.000000 -1.577730 -0.000000
v -0.000000 1.165066 0.000000
v -0.000000 0.420926 0.255860
v 0.000000 -0.090794 0.255860
v -0.000000 0.420926 -0.255860
v 0.000000 -0.090794 -0.255860
v 0.147207 0.142915 -1.116600
v 0.147207 0.142915 1.116600
v 0.147207 0.142915 0.000000
v 0.147207 -1.132133 -0.000000
v 0.147207 0.874525 0.000000
v 0.147207 0.330105 0.187190
v 0.147207 -0.044275 0.187190
v 0.147207 0.330105 -0.187190
v 0.147207 -0.044275 -0.187190
v -0.176425 0.140377 0.000000
v -0.176425 0.140377 1.069670
v -0.176425 -0.038945 -0.179322
v -0.176425 0.140377 -1.069670
v -0.176425 -0.038945 0.179322
v -0.176425 -1.081082 -0.000000
v -0.176425 0.841239 0.000000
v -0.176425 0.319699 -0.179322
v -0.176425 0.319699 0.179322
vn -0.5125 0.2792 -0.8120
vn -0.3501 -0.9183 0.1849
vn -0.4308 -0.1530 -0.8894
vn -0.4308 -0.1530 0.8894
vn 1.0000 -0.0000 -0.0000
vn 0.5718 0.8043 0.1620
vn 0.5401 0.2736 0.7959
vn 0.4567 -0.1509 0.8768
vn 0.4567 -0.1509 -0.8768
vn 0.3729 -0.9096 0.1832
vn 0.5401 0.2736 -0.7959
vn 0.3729 -0.9096 -0.1832
vn 0.5718 0.8043 -0.1620
vn -1.0000 -0.0000 -0.0000
vn -0.3501 -0.9183 -0.1849
vn -0.5439 0.8226 -0.1657
vn -0.5439 0.8226 0.1657
vn -0.5125 0.2792 0.8120
vt 1.000000 0.500000
vt 1.000000 0.000000
vt 0.000000 1.000000
vt 0.500000 1.000000
vt 0.000000 0.000000
vt 0.000000 0.500000
vt 0.500000 0.500000
vt 1.000000 1.000000
vt 0.500000 0.000000
s 0
f 4/1/1 7/2/1 25/2/1 24/1/1
f 6/3/2 2/4/2 19/4/2 22/3/2
f 8/5/3 3/6/3 23/6/3 20/5/3
f 3/6/4 6/3/4 22/3/4 23/6/4
f 11/7/5 13/1/5 14/8/5 10/4/5
f 9/9/5 16/2/5 13/1/5 11/7/5
f 12/6/5 11/7/5 10/4/5 15/3/5
f 17/5/5 9/9/5 11/7/5 12/6/5
f 5/8/6 2/4/6 10/4/6 14/8/6
f 4/1/7 5/8/7 14/8/7 13/1/7
f 6/3/8 3/6/8 12/6/8 15/3/8
f 3/6/9 8/5/9 17/5/9 12/6/9
f 2/4/10 6/3/10 15/3/10 10/4/10
f 7/2/11 4/1/11 13/1/11 16/2/11
f 8/5/12 1/9/12 9/9/12 17/5/12
f 1/9/13 7/2/13 16/2/13 9/9/13
f 18/7/14 19/4/14 26/8/14 24/1/14
f 21/9/14 18/7/14 24/1/14 25/2/14
f 23/6/14 22/3/14 19/4/14 18/7/14
f 20/5/14 23/6/14 18/7/14 21/9/14
f 1/9/15 8/5/15 20/5/15 21/9/15
f 7/2/16 1/9/16 21/9/16 25/2/16
f 2/4/17 5/8/17 26/8/17 19/4/17
f 5/8/18 4/1/18 24/1/18 26/8/18
